<svg width="54" height="54" viewBox="0 0 54 54" fill="none" xmlns="http://www.w3.org/2000/svg">
<g filter="url(#filter0_f_5944_54371)">
<rect x="14.5" y="14.5" width="25" height="25" rx="12.4749" fill="#FF3C3C" fill-opacity="0.8"/>
</g>
<g clip-path="url(#clip0_5944_54371)">
<path d="M26.0069 6.83249C24.4553 7.41523 23.5048 8.23384 22.9316 8.87208C20.2757 11.8413 20.3037 17.0305 22.9177 21.9838C22.9037 22.0254 22.7639 22.2613 22.4564 22.3168C22.1349 22.3861 21.8972 22.178 21.8693 22.1641C21.0166 20.7628 19.7166 18.1404 19.7306 14.7411C19.7306 13.1594 19.7306 11.0088 21.1983 8.9692C22.5542 7.09611 24.3994 6.30525 25.266 6C25.28 6.09712 25.322 6.26362 25.4478 6.43012C25.6435 6.72149 25.923 6.80474 26.0069 6.83249Z" fill="#FFE2BB"/>
<mask id="mask0_5944_54371" style="mask-type:alpha" maskUnits="userSpaceOnUse" x="19" y="6" width="8" height="17">
<path d="M26.0069 6.83249C24.4553 7.41523 23.5048 8.23384 22.9316 8.87208C20.2757 11.8413 20.3037 17.0305 22.9177 21.9838C22.9037 22.0254 22.7639 22.2613 22.4564 22.3168C22.1349 22.3861 21.8972 22.178 21.8693 22.1641C21.0166 20.7628 19.7166 18.1404 19.7306 14.7411C19.7306 13.1594 19.7306 11.0088 21.1983 8.9692C22.5542 7.09611 24.3994 6.30525 25.266 6C25.28 6.09712 25.322 6.26362 25.4478 6.43012C25.6435 6.72149 25.923 6.80474 26.0069 6.83249Z" fill="#FFE2BB"/>
</mask>
<g mask="url(#mask0_5944_54371)">
<path opacity="0.56" d="M26.6353 6.70801C24.5804 7.041 23.4062 7.88736 22.8052 8.44236C19.1987 11.7168 20.0095 18.682 23.2385 22.5808C24.0912 23.6075 25.0277 24.7314 25.8385 24.5094C28.0051 23.9544 27.474 14.6999 26.6353 6.70801Z" fill="#F8C27F"/>
<path d="M24.4554 8.76115C22.75 8.23391 20.9748 7.72054 19.1855 8.09516C18.7522 8.19229 18.9339 8.85828 19.3673 8.76115C21.0167 8.41428 22.6941 8.94153 24.2597 9.42714C24.707 9.56589 24.8887 8.8999 24.4554 8.76115Z" fill="#F9C280"/>
<path d="M23.4775 10.1623C21.7302 9.88478 19.941 10.1345 18.3474 10.9115C18.1797 10.9948 18.1378 11.2306 18.2216 11.3833C18.3195 11.5498 18.5291 11.5914 18.6969 11.5081C20.1087 10.8283 21.7302 10.5785 23.2818 10.8283C23.4635 10.856 23.6592 10.7866 23.7151 10.5924C23.7711 10.4259 23.6732 10.19 23.4775 10.1623Z" fill="#F9C280"/>
<path d="M22.2601 12.3823C20.5827 12.1048 18.8074 12.743 17.745 14.0611C17.6332 14.2137 17.6053 14.408 17.745 14.5467C17.8708 14.6716 18.1225 14.6994 18.2343 14.5467C19.1429 13.4368 20.6386 12.8124 22.0644 13.0483C22.2461 13.076 22.4418 13.0066 22.4977 12.8124C22.5396 12.6459 22.4418 12.41 22.2601 12.3823Z" fill="#F9C280"/>
<path d="M21.6171 14.5743C20.9881 14.8657 20.3451 15.1987 19.8 15.6288C19.2828 16.0451 19.0311 16.6694 18.8075 17.2799C18.7376 17.4603 18.8774 17.6545 19.0451 17.71C19.2408 17.7655 19.4086 17.6407 19.4784 17.4742C19.6602 16.9747 19.8559 16.4752 20.2892 16.1283C20.5268 15.9479 20.8064 15.7953 21.058 15.6427C21.3516 15.4762 21.6451 15.3236 21.9526 15.1848C22.1204 15.1016 22.1623 14.8657 22.0784 14.7131C21.9946 14.5327 21.7849 14.4911 21.6171 14.5743Z" fill="#F9C280"/>
<path d="M20.2616 19.9025C20.3874 19.4169 20.7369 19.0007 21.0164 18.6122C21.324 18.1959 21.6595 17.7797 22.0229 17.3912C22.1487 17.2524 22.1627 17.0443 22.0229 16.9056C21.8971 16.7807 21.6595 16.7668 21.5336 16.9056C21.1423 17.3357 20.7648 17.7936 20.4294 18.2653C20.0939 18.7093 19.7444 19.181 19.5906 19.7221C19.4788 20.1523 20.1498 20.3326 20.2616 19.9025Z" fill="#F9C280"/>
</g>
<path d="M21.3797 21.9005C21.3937 21.845 21.4077 21.7895 21.4216 21.734C21.4496 21.6785 21.3797 21.7895 21.4356 21.6924C21.4496 21.6647 21.4636 21.6508 21.4775 21.623C21.5335 21.5259 21.6033 21.4288 21.6732 21.3456C21.7152 21.2901 21.813 21.1791 21.8689 21.0958C21.9528 20.9987 22.0227 20.9154 22.1066 20.8183C22.4281 20.4576 22.7775 20.1107 23.141 19.7916C23.2808 19.6667 23.2668 19.4308 23.141 19.306C23.0012 19.1672 22.7915 19.1811 22.6517 19.306C22.2743 19.639 21.9109 19.9997 21.5754 20.3882C21.4077 20.5824 21.2399 20.7906 21.0722 20.9987C20.9184 21.2068 20.7646 21.4288 20.7227 21.6924C20.6948 21.8728 20.7646 22.0809 20.9603 22.1225C21.1281 22.178 21.3517 22.0948 21.3797 21.9005Z" fill="#F9C280"/>
<path d="M25.0158 28.8374L24.9739 28.8513C22.7094 29.7116 20.5288 29.5173 20.1094 28.4212L17.7331 22.2053C17.3137 21.1231 18.7954 19.5552 21.046 18.695C21.0879 18.6811 21.1159 18.6672 21.1578 18.6534C21.1718 18.6395 21.1997 18.6395 21.2137 18.6256C23.4503 17.807 25.575 18.0151 25.9804 19.0835L28.3567 25.2994C28.79 26.3955 27.2804 27.9772 25.0158 28.8374Z" fill="#302E2F"/>
<mask id="mask1_5944_54371" style="mask-type:alpha" maskUnits="userSpaceOnUse" x="17" y="18" width="12" height="12">
<path d="M25.0158 28.8374L24.9739 28.8513C22.7094 29.7116 20.5288 29.5173 20.1094 28.4212L17.7331 22.2053C17.3137 21.1231 18.7954 19.5552 21.046 18.695C21.0879 18.6811 21.1159 18.6672 21.1578 18.6534C21.1718 18.6395 21.1997 18.6395 21.2137 18.6256C23.4503 17.807 25.575 18.0151 25.9804 19.0835L28.3567 25.2994C28.79 26.3955 27.2804 27.9772 25.0158 28.8374Z" fill="#302E2F"/>
</mask>
<g mask="url(#mask1_5944_54371)">
<path opacity="0.32" d="M22.9188 16.3779C22.6113 16.697 24.093 17.7792 24.2328 19.8604C24.3446 21.567 23.4081 22.3856 23.8414 22.8435C24.4705 23.5095 27.2522 22.7048 27.5737 21.2063C27.7694 20.3044 27.0145 19.4858 26.078 18.473C24.8618 17.141 23.2124 16.0865 22.9188 16.3779Z" fill="url(#paint0_linear_5944_54371)"/>
<path d="M19.8164 18.959C19.9003 20.4158 19.9702 21.8727 20.054 23.3295C19.2153 23.9678 18.3626 24.606 17.5239 25.2443C17.482 23.6625 17.4401 22.0947 17.4121 20.513C18.2089 20.0135 19.0196 19.4862 19.8164 18.959Z" fill="#231F20"/>
</g>
<path d="M26.9999 47.0005C34.1796 47.0005 39.9999 41.2233 39.9999 34.0969C39.9999 26.9705 34.1796 21.1934 26.9999 21.1934C19.8203 21.1934 14 26.9705 14 34.0969C14 41.2233 19.8203 47.0005 26.9999 47.0005Z" fill="url(#paint1_linear_5944_54371)"/>
<mask id="mask2_5944_54371" style="mask-type:alpha" maskUnits="userSpaceOnUse" x="14" y="21" width="26" height="26">
<path d="M26.9999 47.0005C34.1796 47.0005 39.9999 41.2233 39.9999 34.0969C39.9999 26.9705 34.1796 21.1934 26.9999 21.1934C19.8203 21.1934 14 26.9705 14 34.0969C14 41.2233 19.8203 47.0005 26.9999 47.0005Z" fill="url(#paint2_linear_5944_54371)"/>
</mask>
<g mask="url(#mask2_5944_54371)">
<path d="M19.0035 21.9287C18.5701 24.1626 18.2906 27.7839 20.0379 31.3081C23.197 37.6905 31.7518 41.2702 41.1872 39.6884C40.2367 41.0482 36.6442 45.8488 29.8228 47.7081C22.2465 49.7615 16.1519 46.6952 14.8239 46.0015C14.0132 44.1561 11.9304 38.7172 13.5239 32.0157C14.754 26.8404 17.5637 23.4549 19.0035 21.9287Z" fill="black"/>
</g>
</g>
<defs>
<filter id="filter0_f_5944_54371" x="0.5" y="0.5" width="53" height="53" filterUnits="userSpaceOnUse" color-interpolation-filters="sRGB">
<feFlood flood-opacity="0" result="BackgroundImageFix"/>
<feBlend mode="normal" in="SourceGraphic" in2="BackgroundImageFix" result="shape"/>
<feGaussianBlur stdDeviation="7" result="effect1_foregroundBlur_5944_54371"/>
</filter>
<linearGradient id="paint0_linear_5944_54371" x1="26.0313" y1="17.4099" x2="23.5978" y2="21.9249" gradientUnits="userSpaceOnUse">
<stop stop-color="white"/>
<stop offset="1"/>
</linearGradient>
<linearGradient id="paint1_linear_5944_54371" x1="13.3786" y1="0.196367" x2="25.6694" y2="31.2401" gradientUnits="userSpaceOnUse">
<stop stop-color="white"/>
<stop offset="1"/>
</linearGradient>
<linearGradient id="paint2_linear_5944_54371" x1="13.3786" y1="0.196367" x2="25.6694" y2="31.2401" gradientUnits="userSpaceOnUse">
<stop stop-color="white"/>
<stop offset="1"/>
</linearGradient>
<clipPath id="clip0_5944_54371">
<rect width="26" height="38" fill="white" transform="translate(14 9)"/>
</clipPath>
</defs>
</svg>
