<svg width="533" height="462" viewBox="0 0 533 462" fill="none" xmlns="http://www.w3.org/2000/svg">
<g filter="url(#filter0_f_663_5948)">
<mask id="mask0_663_5948" style="mask-type:alpha" maskUnits="userSpaceOnUse" x="268" y="6" width="256" height="215">
<path d="M420.542 11.6164L513.912 71.396C523.181 77.3292 526.572 89.3075 521.486 99.1588L469.714 201.03C466.436 207.411 460.105 211.889 452.984 212.673L394.543 219.726C384.03 220.957 373.292 218.382 364.588 212.225L277.548 151.214C268.957 145.169 265.905 133.974 270.426 124.459L320.729 18.3332C324.459 10.6089 332.372 5.68325 341.076 6.01909L409.351 8.14608C413.307 8.36997 417.151 9.48944 420.542 11.6164Z" fill="#FF9592"/>
</mask>
<g mask="url(#mask0_663_5948)">
<path d="M378.467 221.618L465.474 211.109L531.754 81.8623L447.367 83.8748L378.467 221.618Z" fill="url(#paint0_linear_663_5948)"/>
<path opacity="0.7" d="M493.489 108.806C489.731 116.185 490.528 121.999 495.083 121.663C499.639 121.44 506.358 115.29 510.116 108.023C513.874 100.756 513.191 94.9418 508.635 95.1654C503.966 95.1654 497.247 101.426 493.489 108.806Z" fill="white"/>
<path opacity="0.7" d="M401.13 193.328C397.372 200.931 398.511 206.521 403.636 205.962C408.76 205.403 415.821 198.806 419.579 191.315C423.337 183.824 422.312 178.122 417.302 178.681C412.177 179.129 405.002 185.725 401.13 193.328Z" fill="white"/>
<path d="M447.366 83.8742L531.753 81.8617L416.048 8.51778L326.764 5.72266L447.366 83.8742Z" fill="url(#paint1_linear_663_5948)"/>
<path d="M326.765 5.72363L262.193 140.784L378.467 221.619L447.367 83.8752L326.765 5.72363Z" fill="url(#paint2_linear_663_5948)"/>
<path d="M396.007 86.2227C392.249 93.9372 394.754 103.888 401.473 108.36C408.306 112.832 416.847 110.261 420.719 102.546C424.477 94.7198 422.086 84.7692 415.139 80.297C408.306 75.8248 399.765 78.5081 396.007 86.2227Z" fill="white"/>
<path d="M287.703 120.992C284.172 128.483 286.564 137.986 292.941 142.458C299.319 146.93 307.405 144.471 310.935 136.98C314.465 129.489 312.074 119.874 305.696 115.401C299.205 111.041 291.233 113.501 287.703 120.992Z" fill="white"/>
<path d="M306.493 80.8513C302.963 88.3422 305.354 98.0692 311.732 102.43C318.223 106.79 326.423 104.33 329.953 96.7276C333.597 89.1248 331.206 79.3978 324.601 75.0374C318.223 70.677 310.024 73.2486 306.493 80.8513Z" fill="white"/>
<path d="M375.963 127.591C372.319 135.194 374.71 145.033 381.429 149.617C388.148 154.201 396.576 151.741 400.334 144.027C404.092 136.312 401.587 126.473 394.868 121.889C388.148 117.417 379.721 119.989 375.963 127.591Z" fill="white"/>
<path d="M356.373 168.175C352.729 175.666 355.121 185.505 361.726 190.089C368.331 194.673 376.759 192.325 380.403 184.834C384.161 177.231 381.655 167.392 374.936 162.808C368.331 158.224 360.018 160.684 356.373 168.175Z" fill="white"/>
<path d="M325.512 39.9322C321.982 47.5349 324.259 57.2619 330.864 61.6223C337.47 65.9827 345.669 63.2994 349.313 55.5849C352.958 47.8703 350.566 38.1433 343.961 33.7829C337.356 29.5343 329.156 32.2177 325.512 39.9322Z" fill="white"/>
<path opacity="0.7" d="M476.405 58.2723C471.622 58.1605 473.102 61.4029 479.708 65.6515C486.427 69.7882 495.765 73.2542 500.548 73.366C505.331 73.4778 503.737 70.1236 497.018 65.9869C490.413 61.7383 481.188 58.3841 476.405 58.2723Z" fill="white"/>
<path opacity="0.7" d="M352.615 12.7661C347.376 12.5425 348.515 15.6731 355.12 19.9217C361.839 24.0584 371.406 27.6362 376.644 27.8598C381.769 28.0834 380.63 24.8411 373.911 20.7043C367.42 16.5675 357.854 12.9898 352.615 12.7661Z" fill="white"/>
<path opacity="0.7" d="M415.365 36.0205C410.355 35.9087 411.607 39.0392 418.326 43.2878C425.045 47.4246 434.498 51.0023 439.509 51.1141C444.406 51.2259 443.039 47.9836 436.434 43.8468C429.715 39.5982 420.376 36.1323 415.365 36.0205Z" fill="white"/>
</g>
</g>
<g opacity="0.3" filter="url(#filter1_f_663_5948)">
<mask id="mask1_663_5948" style="mask-type:alpha" maskUnits="userSpaceOnUse" x="321" y="222" width="181" height="154">
<path d="M428.692 371.552L494.361 328.68C500.881 324.425 503.266 315.834 499.688 308.769L463.276 235.71C460.97 231.134 456.518 227.922 451.509 227.36L410.407 222.302C403.013 221.419 395.46 223.266 389.339 227.681L328.122 271.437C322.079 275.772 319.933 283.801 323.113 290.625L358.492 366.735C361.115 372.275 366.68 375.807 372.802 375.567L420.822 374.041C423.604 373.881 426.307 373.078 428.692 371.552Z" fill="#FF9592"/>
</mask>
<g mask="url(#mask1_663_5948)">
<path d="M399.101 220.944L460.295 228.481L506.911 321.173L447.559 319.73L399.101 220.944Z" fill="url(#paint3_linear_663_5948)"/>
<path opacity="0.7" d="M479.998 301.849C477.355 296.557 477.916 292.387 481.12 292.628C484.323 292.788 489.049 297.198 491.692 302.41C494.336 307.622 493.855 311.792 490.651 311.631C487.367 311.631 482.641 307.141 479.998 301.849Z" fill="white"/>
<path opacity="0.7" d="M415.04 241.231C412.397 235.778 413.198 231.769 416.803 232.17C420.407 232.571 425.373 237.302 428.016 242.674C430.659 248.046 429.938 252.135 426.414 251.735C422.81 251.414 417.764 246.683 415.04 241.231Z" fill="white"/>
<path d="M447.559 319.729L506.91 321.173L425.532 373.773L362.737 375.777L447.559 319.729Z" fill="url(#paint4_linear_663_5948)"/>
<path d="M362.737 375.777L317.323 278.916L399.101 220.944L447.559 319.729L362.737 375.777Z" fill="url(#paint5_linear_663_5948)"/>
<path d="M411.437 318.045C408.793 312.513 410.556 305.376 415.281 302.169C420.087 298.962 426.094 300.806 428.817 306.339C431.461 311.951 429.779 319.088 424.893 322.295C420.087 325.502 414.08 323.578 411.437 318.045Z" fill="white"/>
<path d="M335.265 293.108C332.782 287.735 334.464 280.92 338.949 277.713C343.434 274.505 349.121 276.269 351.604 281.641C354.087 287.014 352.405 293.91 347.92 297.117C343.354 300.244 337.748 298.48 335.265 293.108Z" fill="white"/>
<path d="M348.479 321.895C345.996 316.522 347.678 309.547 352.164 306.419C356.729 303.292 362.496 305.056 364.979 310.509C367.542 315.961 365.86 322.937 361.215 326.064C356.729 329.191 350.962 327.347 348.479 321.895Z" fill="white"/>
<path d="M397.339 288.378C394.776 282.925 396.458 275.869 401.184 272.582C405.91 269.294 411.837 271.058 414.48 276.591C417.123 282.123 415.361 289.179 410.635 292.467C405.91 295.674 399.982 293.83 397.339 288.378Z" fill="white"/>
<path d="M383.562 259.27C380.999 253.898 382.681 246.842 387.327 243.554C391.972 240.267 397.899 241.951 400.462 247.323C403.105 252.776 401.343 259.832 396.618 263.119C391.972 266.407 386.125 264.643 383.562 259.27Z" fill="white"/>
<path d="M361.857 351.242C359.374 345.79 360.976 338.814 365.621 335.687C370.267 332.559 376.034 334.484 378.597 340.016C381.16 345.549 379.478 352.525 374.832 355.652C370.187 358.699 364.42 356.775 361.857 351.242Z" fill="white"/>
<path opacity="0.7" d="M467.983 338.092C464.619 338.172 465.66 335.847 470.306 332.8C475.031 329.833 481.599 327.347 484.963 327.267C488.327 327.187 487.206 329.592 482.48 332.559C477.835 335.606 471.347 338.012 467.983 338.092Z" fill="white"/>
<path opacity="0.7" d="M380.918 370.726C377.234 370.887 378.035 368.642 382.68 365.595C387.406 362.628 394.134 360.062 397.819 359.902C401.423 359.741 400.622 362.066 395.896 365.033C391.331 368 384.603 370.566 380.918 370.726Z" fill="white"/>
<path opacity="0.7" d="M425.052 354.049C421.528 354.129 422.409 351.884 427.134 348.837C431.86 345.87 438.508 343.304 442.032 343.224C445.477 343.144 444.515 345.469 439.87 348.436C435.144 351.483 428.576 353.969 425.052 354.049Z" fill="white"/>
</g>
</g>
<g filter="url(#filter2_d_663_5948)">
<mask id="mask2_663_5948" style="mask-type:alpha" maskUnits="userSpaceOnUse" x="30" y="134" width="345" height="294">
<path d="M235.475 419.917L361.43 337.928C373.934 329.79 378.509 313.362 371.647 299.851L301.807 160.131C297.385 151.379 288.846 145.238 279.239 144.163L200.403 134.49C186.221 132.801 171.735 136.333 159.993 144.777L42.5771 228.455C30.9879 236.746 26.8707 252.1 32.9703 265.151L100.828 410.705C105.86 421.299 116.534 428.055 128.276 427.594L220.379 424.677C225.716 424.37 230.9 422.834 235.475 419.917Z" fill="#FF9592"/>
</mask>
<g mask="url(#mask2_663_5948)">
<path d="M178.718 131.892L296.089 146.307L385.5 323.571L271.663 320.811L178.718 131.892Z" fill="url(#paint6_linear_663_5948)"/>
<path opacity="0.7" d="M333.882 286.617C328.813 276.496 329.888 268.522 336.033 268.982C342.178 269.289 351.242 277.723 356.312 287.69C361.382 297.657 360.46 305.631 354.315 305.324C348.016 305.324 338.952 296.737 333.882 286.617Z" fill="white"/>
<path opacity="0.7" d="M209.29 170.69C204.22 160.263 205.756 152.596 212.669 153.362C219.583 154.129 229.108 163.176 234.177 173.45C239.247 183.724 237.864 191.545 231.105 190.778C224.192 190.165 214.513 181.118 209.29 170.69Z" fill="white"/>
<path d="M271.662 320.811L385.5 323.571L229.414 424.164L108.97 427.998L271.662 320.811Z" fill="url(#paint7_linear_663_5948)"/>
<path d="M108.971 427.998L21.8641 242.76L178.718 131.893L271.662 320.811L108.971 427.998Z" fill="url(#paint8_linear_663_5948)"/>
<path d="M202.378 317.591C197.309 307.011 200.689 293.363 209.753 287.229C218.97 281.096 230.492 284.623 235.716 295.203C240.785 305.937 237.559 319.585 228.188 325.719C218.97 331.852 207.448 328.172 202.378 317.591Z" fill="white"/>
<path d="M56.2777 269.901C51.5152 259.627 54.7414 246.593 63.3445 240.459C71.9476 234.325 82.8552 237.699 87.6176 247.973C92.3801 258.247 89.1539 271.434 80.5508 277.568C71.794 283.549 61.0401 280.175 56.2777 269.901Z" fill="white"/>
<path d="M81.6247 324.953C76.8622 314.679 80.0884 301.338 88.6916 295.358C97.4483 289.377 108.509 292.751 113.272 303.178C118.188 313.606 114.962 326.946 106.051 332.927C97.4483 338.907 86.3871 335.38 81.6247 324.953Z" fill="white"/>
<path d="M175.339 260.853C170.423 250.426 173.649 236.932 182.713 230.645C191.777 224.358 203.146 227.731 208.216 238.312C213.285 248.892 209.905 262.387 200.841 268.674C191.777 274.807 180.409 271.281 175.339 260.853Z" fill="white"/>
<path d="M148.914 205.19C143.998 194.916 147.224 181.422 156.134 175.135C165.045 168.848 176.413 172.068 181.329 182.342C186.399 192.769 183.019 206.264 173.955 212.551C165.045 218.838 153.83 215.464 148.914 205.19Z" fill="white"/>
<path d="M107.282 381.076C102.52 370.649 105.592 357.308 114.502 351.327C123.413 345.347 134.474 349.027 139.39 359.608C144.306 370.189 141.08 383.529 132.17 389.51C123.259 395.337 112.198 391.657 107.282 381.076Z" fill="white"/>
<path opacity="0.7" d="M310.836 355.928C304.384 356.081 306.381 351.634 315.291 345.807C324.355 340.133 336.953 335.38 343.405 335.226C349.857 335.073 347.707 339.673 338.643 345.347C329.732 351.174 317.288 355.774 310.836 355.928Z" fill="white"/>
<path opacity="0.7" d="M143.843 418.338C136.777 418.645 138.313 414.351 147.223 408.524C156.287 402.85 169.192 397.943 176.259 397.637C183.172 397.33 181.636 401.777 172.572 407.451C163.815 413.124 150.91 418.031 143.843 418.338Z" fill="white"/>
<path opacity="0.7" d="M228.493 386.445C221.734 386.599 223.423 382.305 232.487 376.478C241.551 370.804 254.303 365.897 261.062 365.744C267.668 365.591 265.825 370.038 256.914 375.711C247.85 381.538 235.253 386.292 228.493 386.445Z" fill="white"/>
</g>
</g>
<defs>
<filter id="filter0_f_663_5948" x="260" y="0" width="272.194" height="226.025" filterUnits="userSpaceOnUse" color-interpolation-filters="sRGB">
<feFlood flood-opacity="0" result="BackgroundImageFix"/>
<feBlend mode="normal" in="SourceGraphic" in2="BackgroundImageFix" result="shape"/>
<feGaussianBlur stdDeviation="3" result="effect1_foregroundBlur_663_5948"/>
</filter>
<filter id="filter1_f_663_5948" x="314" y="215" width="195" height="166.578" filterUnits="userSpaceOnUse" color-interpolation-filters="sRGB">
<feFlood flood-opacity="0" result="BackgroundImageFix"/>
<feBlend mode="normal" in="SourceGraphic" in2="BackgroundImageFix" result="shape"/>
<feGaussianBlur stdDeviation="3" result="effect1_foregroundBlur_663_5948"/>
</filter>
<filter id="filter2_d_663_5948" x="-3" y="102" width="415" height="359.616" filterUnits="userSpaceOnUse" color-interpolation-filters="sRGB">
<feFlood flood-opacity="0" result="BackgroundImageFix"/>
<feColorMatrix in="SourceAlpha" type="matrix" values="0 0 0 0 0 0 0 0 0 0 0 0 0 0 0 0 0 0 127 0" result="hardAlpha"/>
<feOffset dx="2" dy="2"/>
<feGaussianBlur stdDeviation="16"/>
<feComposite in2="hardAlpha" operator="out"/>
<feColorMatrix type="matrix" values="0 0 0 0 0.0745098 0 0 0 0 0.0196078 0 0 0 0 0.176471 0 0 0 0.24 0"/>
<feBlend mode="normal" in2="BackgroundImageFix" result="effect1_dropShadow_663_5948"/>
<feBlend mode="normal" in="SourceGraphic" in2="effect1_dropShadow_663_5948" result="shape"/>
</filter>
<linearGradient id="paint0_linear_663_5948" x1="455.111" y1="81.8623" x2="455.111" y2="300.348" gradientUnits="userSpaceOnUse">
<stop stop-color="#13052D"/>
<stop offset="1" stop-color="#5A18C9"/>
</linearGradient>
<linearGradient id="paint1_linear_663_5948" x1="429.258" y1="5.72266" x2="429.258" y2="127.9" gradientUnits="userSpaceOnUse">
<stop stop-color="#13052D"/>
<stop offset="1" stop-color="#5A18C9"/>
</linearGradient>
<linearGradient id="paint2_linear_663_5948" x1="354.78" y1="5.72363" x2="354.78" y2="343.24" gradientUnits="userSpaceOnUse">
<stop stop-color="#13052D"/>
<stop offset="1" stop-color="#5A18C9"/>
</linearGradient>
<linearGradient id="paint3_linear_663_5948" x1="453.006" y1="321.173" x2="453.006" y2="164.481" gradientUnits="userSpaceOnUse">
<stop stop-color="#13052D"/>
<stop offset="1" stop-color="#5A18C9"/>
</linearGradient>
<linearGradient id="paint4_linear_663_5948" x1="434.823" y1="375.777" x2="434.823" y2="288.156" gradientUnits="userSpaceOnUse">
<stop stop-color="#13052D"/>
<stop offset="1" stop-color="#5A18C9"/>
</linearGradient>
<linearGradient id="paint5_linear_663_5948" x1="382.441" y1="375.777" x2="382.441" y2="133.721" gradientUnits="userSpaceOnUse">
<stop stop-color="#13052D"/>
<stop offset="1" stop-color="#5A18C9"/>
</linearGradient>
<linearGradient id="paint6_linear_663_5948" x1="282.109" y1="323.571" x2="282.109" y2="23.9133" gradientUnits="userSpaceOnUse">
<stop stop-color="#13052D"/>
<stop offset="1" stop-color="#5A18C9"/>
</linearGradient>
<linearGradient id="paint7_linear_663_5948" x1="247.235" y1="427.998" x2="247.235" y2="260.429" gradientUnits="userSpaceOnUse">
<stop stop-color="#13052D"/>
<stop offset="1" stop-color="#5A18C9"/>
</linearGradient>
<linearGradient id="paint8_linear_663_5948" x1="146.763" y1="427.998" x2="146.763" y2="-34.9135" gradientUnits="userSpaceOnUse">
<stop stop-color="#13052D"/>
<stop offset="1" stop-color="#5A18C9"/>
</linearGradient>
</defs>
</svg>
