<svg width="612" height="473" viewBox="0 0 612 473" fill="none" xmlns="http://www.w3.org/2000/svg">
<g opacity="0.4" filter="url(#filter0_f_663_6007)">
<path d="M537.74 395.83C497.064 438.289 429.419 439.74 386.959 399.064C344.5 358.388 343.049 290.742 383.725 248.283C387.201 244.652 390.929 241.27 394.882 238.164C435.944 205.883 495.724 207.895 534.506 245.049C573.21 282.127 577.848 341.611 547.539 384.006C544.563 388.18 541.288 392.131 537.74 395.83Z" fill="url(#paint0_linear_663_6007)"/>
<path d="M405.259 272.295C378.107 302.027 382.312 345.391 411.546 373.397C440.779 401.403 484.289 403.75 512.825 375.343C514.599 373.405 516.268 371.372 517.823 369.254C528.546 354.714 533.618 336.772 532.095 318.77C530.572 300.768 522.557 283.933 509.544 271.401C496.531 258.869 479.406 251.494 461.359 250.65C443.313 249.806 425.574 255.55 411.448 266.813C409.282 268.52 407.215 270.35 405.259 272.295Z" fill="url(#paint1_linear_663_6007)"/>
<path d="M408.54 268.871C422.205 254.607 440.977 246.355 460.726 245.932C480.475 245.508 499.583 252.947 513.847 266.612C528.111 280.277 536.363 299.049 536.787 318.798C537.21 338.547 529.771 357.655 516.106 371.919C515.727 372.315 515.357 372.702 514.982 373.093C542.139 343.365 537.928 299.996 508.695 271.99C479.461 243.985 435.957 241.642 407.416 270.044C407.791 269.653 408.161 269.267 408.54 268.871Z" fill="#200E47"/>
<path d="M543.473 380.977C558.757 359.552 565.135 333.033 561.265 307.001C557.394 280.969 543.576 257.453 522.719 241.402C501.862 225.351 475.592 218.016 449.437 220.94C423.282 223.864 399.281 236.82 382.484 257.082C365.687 277.343 357.404 303.329 359.378 329.574C361.352 355.818 373.429 380.273 393.068 397.793C412.707 415.314 438.376 424.533 464.675 423.512C490.973 422.491 515.85 411.308 534.071 392.318C537.476 388.77 540.618 384.98 543.473 380.977ZM512.255 268.274C525.26 280.77 533.297 297.554 534.877 315.52C536.457 333.486 531.474 351.416 520.85 365.989C519.237 368.227 517.497 370.37 515.638 372.408C487.097 400.81 443.593 398.468 414.359 370.462C385.125 342.456 380.915 299.087 408.072 269.36C409.932 267.504 411.891 265.75 413.941 264.105C428.042 252.748 445.793 246.908 463.883 247.675C481.973 248.442 499.166 255.764 512.255 268.274Z" fill="#450F77"/>
<path d="M514.514 373.581C500.849 387.845 482.077 396.097 462.328 396.521C442.579 396.944 423.471 389.505 409.206 375.84C394.942 362.175 386.691 343.403 386.267 323.654C385.844 303.905 393.283 284.797 406.948 270.533C407.327 270.137 407.697 269.751 408.072 269.359C380.915 299.087 385.125 342.456 414.359 370.462C443.592 398.468 487.097 400.81 515.638 372.408C515.263 372.799 514.893 373.185 514.514 373.581Z" fill="#7623A8"/>
<g clip-path="url(#clip0_663_6007)">
<path d="M518.299 324.674C507.756 331.002 497.331 337.506 486.972 344.106C483.039 341.577 478.985 338.711 474.949 335.543C485.693 328.359 496.445 321.182 507.288 314.093L518.299 324.674Z" fill="url(#paint2_linear_663_6007)"/>
<path d="M486.988 344.091C476.182 351.025 465.37 358.032 454.607 365.087C450.941 363.244 447.43 361.108 444.108 358.699C450.177 347.322 456.322 335.998 462.545 324.726C465.569 327.623 468.597 330.333 471.637 332.848C470.301 335.349 468.986 337.866 467.693 340.398C470.117 338.78 472.565 337.121 474.965 335.528C479.001 338.695 483.03 341.538 486.988 344.091Z" fill="url(#paint3_linear_663_6007)"/>
<path d="M471.621 332.863C468.581 330.348 465.52 327.622 462.529 324.741C464.502 321.144 466.481 317.559 468.465 313.984C465.021 316.086 461.571 318.189 458.116 320.291C455.236 317.294 452.575 314.284 450.109 311.269C461.321 304.74 472.457 298.091 483.576 291.41L490.37 297.918C484.055 309.536 477.772 321.168 471.621 332.863Z" fill="url(#paint4_linear_663_6007)"/>
<path d="M458.134 320.276C447.086 326.999 435.987 333.652 424.839 340.237C422.289 337.021 420.004 333.605 418.006 330.021C424.898 318.448 431.75 306.868 438.494 295.185C441.055 299.227 443.936 303.385 447.182 307.56L442.111 315.888C444.788 314.354 447.465 312.804 450.126 311.253C452.601 314.276 455.254 317.278 458.134 320.276Z" fill="url(#paint5_linear_663_6007)"/>
<path d="M447.166 307.576C443.92 303.402 441.039 299.244 438.477 295.201C444.325 285.106 450.049 274.924 455.649 264.655L466.676 275.219C460.239 286.052 453.71 296.814 447.166 307.576Z" fill="url(#paint6_linear_663_6007)"/>
</g>
</g>
<g filter="url(#filter1_d_663_6007)">
<g opacity="0.8" filter="url(#filter2_f_663_6007)">
<path d="M481.597 211.496C462.778 251.323 415.06 268.417 375.233 249.598C335.406 230.779 318.312 183.061 337.131 143.234C338.738 139.829 340.584 136.541 342.655 133.395C364.164 100.708 407.117 87.9429 443.495 105.132C479.799 122.286 497.219 163.449 485.751 200.769C484.628 204.44 483.24 208.026 481.597 211.496Z" fill="url(#paint7_linear_663_6007)"/>
<path d="M482.144 199.583C487.916 180.73 486.151 160.374 477.219 142.797C468.287 125.22 452.885 111.793 434.255 105.341C415.624 98.8887 395.217 99.915 377.328 108.204C359.439 116.492 345.462 131.397 338.339 149.781C331.215 168.166 331.501 188.596 339.136 206.774C346.77 224.953 361.158 239.461 379.272 247.246C397.386 255.031 417.814 255.486 436.257 248.516C454.7 241.545 469.72 227.693 478.157 209.873C479.733 206.544 481.066 203.105 482.144 199.583ZM433.201 126.919C445.408 132.709 455.104 142.726 460.493 155.116C465.882 167.505 466.599 181.428 462.511 194.306C461.896 196.279 461.169 198.215 460.332 200.104C446.798 227.061 415.331 235.727 387.91 222.771C360.489 209.814 347.199 180 359.435 152.429C360.316 150.668 361.291 148.957 362.357 147.302C369.679 135.884 380.905 127.519 393.94 123.769C406.976 120.018 420.93 121.138 433.201 126.919Z" fill="#FEBC2A"/>
<path d="M460.332 200.099C446.797 227.056 415.33 235.723 387.909 222.766C360.488 209.809 347.198 179.995 359.435 152.424C360.316 150.664 361.291 148.952 362.357 147.297C369.66 135.902 380.856 127.55 393.859 123.796C406.862 120.043 420.787 121.144 433.039 126.894C445.291 132.644 455.036 142.651 460.457 155.052C465.879 167.453 466.609 181.402 462.51 194.301C461.896 196.274 461.168 198.21 460.332 200.099Z" fill="url(#paint8_linear_663_6007)"/>
</g>
<g opacity="0.8">
<g filter="url(#filter3_f_663_6007)">
<path d="M460.071 201.309C453.846 214.481 442.564 224.603 428.704 229.448C414.845 234.293 399.544 233.465 386.168 227.144C372.792 220.824 362.437 209.53 357.38 195.747C352.323 181.963 352.978 166.819 359.202 153.647C359.375 153.281 359.544 152.925 359.714 152.563C347.677 179.711 361.102 209.225 388.515 222.178C415.928 235.131 447.248 226.76 460.583 200.225C460.412 200.586 460.243 200.943 460.071 201.309Z" fill="#FBC652"/>
</g>
<path d="M441.328 184.159L434.321 186.537L421.975 190.726L416.542 210.338C416.471 210.6 416.327 210.836 416.126 211.02C415.926 211.204 415.678 211.328 415.409 211.378C415.141 211.427 414.863 211.401 414.608 211.302C414.353 211.203 414.13 211.034 413.966 210.816L402.058 195.11C401.915 194.921 401.728 194.769 401.513 194.668C401.298 194.566 401.062 194.518 400.825 194.528L381.155 195.295C380.882 195.306 380.611 195.241 380.373 195.107C380.134 194.973 379.937 194.775 379.805 194.536C379.673 194.297 379.611 194.027 379.625 193.755C379.639 193.483 379.729 193.222 379.885 193L391.589 176.351L387.045 164.372L384.354 157.238C384.258 156.984 384.236 156.708 384.289 156.442C384.342 156.176 384.47 155.931 384.656 155.734C384.843 155.536 385.081 155.396 385.345 155.327C385.608 155.258 385.886 155.263 386.147 155.343L405.754 161.372L421.751 148.746C421.964 148.578 422.221 148.473 422.492 148.443C422.764 148.413 423.038 148.458 423.286 148.575C423.533 148.692 423.743 148.875 423.892 149.104C424.041 149.333 424.123 149.598 424.129 149.87L424.532 170.245L441.635 181.562C441.866 181.711 442.05 181.921 442.167 182.169C442.283 182.416 442.328 182.69 442.296 182.961C442.265 183.232 442.157 183.487 441.986 183.699C441.814 183.911 441.587 184.07 441.328 184.159Z" fill="#F08B00"/>
<g filter="url(#filter4_f_663_6007)">
<path d="M442.181 182.356L435.174 184.733L422.828 188.923L417.395 208.534C417.323 208.796 417.179 209.033 416.979 209.216C416.779 209.4 416.53 209.524 416.262 209.574C415.993 209.624 415.716 209.597 415.46 209.498C415.205 209.399 414.983 209.231 414.818 209.012L402.911 193.307C402.768 193.118 402.581 192.966 402.366 192.864C402.151 192.762 401.914 192.714 401.677 192.724L382.008 193.492C381.735 193.503 381.464 193.437 381.225 193.303C380.986 193.169 380.79 192.971 380.658 192.732C380.526 192.493 380.463 192.223 380.477 191.951C380.491 191.68 380.582 191.418 380.738 191.196L392.442 174.548L387.898 162.568L385.206 155.435C385.111 155.18 385.088 154.904 385.142 154.638C385.195 154.372 385.322 154.127 385.509 153.93C385.695 153.733 385.934 153.592 386.197 153.523C386.461 153.454 386.739 153.46 387 153.54L406.607 159.568L422.603 146.943C422.817 146.774 423.074 146.669 423.345 146.639C423.616 146.609 423.891 146.655 424.138 146.772C424.386 146.889 424.596 147.072 424.745 147.3C424.893 147.529 424.975 147.794 424.981 148.066L425.384 168.441L442.488 179.758C442.718 179.907 442.902 180.118 443.019 180.365C443.136 180.612 443.181 180.887 443.149 181.157C443.117 181.428 443.009 181.684 442.838 181.896C442.667 182.107 442.439 182.267 442.181 182.356Z" fill="url(#paint9_linear_663_6007)"/>
</g>
<g opacity="0.48" filter="url(#filter5_f_663_6007)">
<path d="M392.134 174.212L389.536 167.39C389.447 167.161 389.439 166.91 389.513 166.678C389.586 166.446 389.736 166.246 389.939 166.111C390.143 165.975 390.387 165.913 390.632 165.932C390.878 165.952 391.11 166.053 391.292 166.219C396.695 171.102 402.802 175.157 409.406 178.248C415.943 181.303 422.895 183.378 430.029 184.403C430.273 184.439 430.498 184.554 430.668 184.731C430.839 184.908 430.945 185.136 430.971 185.379C430.996 185.621 430.938 185.864 430.807 186.069C430.676 186.273 430.479 186.427 430.247 186.506L423.178 188.88C423.01 188.936 422.859 189.033 422.738 189.161C422.617 189.289 422.529 189.444 422.483 189.614L417.273 208.493C417.203 208.753 417.06 208.987 416.861 209.168C416.662 209.35 416.415 209.472 416.148 209.521C415.881 209.57 415.604 209.543 415.35 209.444C415.096 209.345 414.874 209.178 414.71 208.961L402.824 193.364C402.681 193.176 402.494 193.025 402.28 192.924C402.066 192.823 401.831 192.774 401.595 192.783L382.022 193.498C381.75 193.509 381.48 193.443 381.242 193.31C381.004 193.176 380.808 192.979 380.676 192.742C380.544 192.505 380.481 192.237 380.495 191.968C380.508 191.699 380.598 191.439 380.752 191.219L392.033 175.209C392.129 175.064 392.189 174.898 392.207 174.724C392.225 174.55 392.2 174.375 392.134 174.212Z" fill="url(#paint10_linear_663_6007)"/>
</g>
<g filter="url(#filter6_f_663_6007)">
<path d="M359.93 152.109C366.154 138.937 377.437 128.815 391.296 123.97C405.155 119.125 420.456 119.953 433.832 126.274C447.208 132.594 457.564 143.888 462.621 157.671C467.678 171.455 467.022 186.598 460.798 199.771C460.625 200.137 460.457 200.493 460.286 200.854C472.323 173.707 458.898 144.193 431.485 131.24C404.072 118.287 372.752 126.658 359.418 153.193C359.589 152.832 359.757 152.475 359.93 152.109Z" fill="#F68A03"/>
</g>
</g>
</g>
<g filter="url(#filter7_d_663_6007)">
<path d="M340.468 136.126C378.08 211.181 347.613 302.856 272.557 340.468C197.502 378.079 105.827 347.612 68.2156 272.557C64.9975 266.142 62.2365 259.507 59.9531 252.703C36.2148 182.006 67.5705 102.57 136.126 68.2151C204.544 33.9297 286.769 56.1995 329.262 117.282C333.449 123.283 337.194 129.581 340.468 136.126Z" fill="url(#paint11_linear_663_6007)"/>
<path d="M110.831 255.103C137.807 305.871 198.145 320.996 249.821 295.1C301.497 269.204 325.505 211.811 300.975 159.818C299.219 156.503 297.285 153.285 295.182 150.178C280.765 128.788 259.065 113.368 234.123 106.789C209.181 100.21 182.698 102.921 159.607 114.417C136.515 125.913 118.39 145.411 108.606 169.278C98.8217 193.145 98.0463 219.755 106.424 244.152C107.682 247.884 109.153 251.54 110.831 255.103Z" fill="url(#paint12_linear_663_6007)"/>
<path d="M107.797 249.049C95.1617 223.834 93.0601 194.633 101.955 167.868C110.85 141.104 130.012 118.969 155.227 106.334C180.442 93.6982 209.643 91.5967 236.408 100.491C263.172 109.386 285.306 128.549 297.942 153.764C298.293 154.464 298.635 155.146 298.981 155.838C272.014 105.066 211.667 89.9451 159.991 115.841C108.315 141.737 84.3154 199.126 108.837 251.123C108.49 250.432 108.148 249.749 107.797 249.049Z" fill="#200E47"/>
<path d="M323.241 121.299C301.75 90.4742 269.141 69.1875 232.274 61.9178C195.407 54.648 157.158 61.9622 125.574 82.3211C93.9908 102.68 71.5358 134.496 62.9342 171.075C54.3325 207.654 60.255 246.143 79.4554 278.444C98.6558 310.745 129.637 334.339 165.88 344.261C202.123 354.184 240.802 349.661 273.778 331.644C306.753 313.627 331.455 283.522 342.685 247.662C353.915 211.803 350.797 172.986 333.988 139.378C330.848 133.1 327.256 127.057 323.241 121.299ZM156.701 109.273C179.739 97.7706 206.165 95.0057 231.085 101.49C256.005 107.975 277.732 123.27 292.241 144.543C294.478 147.785 296.526 151.152 298.376 154.629C322.898 206.626 298.898 264.015 247.222 289.911C195.546 315.807 135.199 300.685 108.232 249.914C106.627 246.523 105.207 243.047 103.977 239.503C95.4599 215.094 96.113 188.421 105.814 164.459C115.515 140.497 133.602 120.882 156.701 109.273Z" fill="#450F77"/>
<path d="M299.414 156.702C312.05 181.917 314.151 211.118 305.257 237.883C296.362 264.647 277.199 286.782 251.984 299.417C226.77 312.053 197.568 314.154 170.804 305.259C144.04 296.365 121.905 277.202 109.269 251.987C108.919 251.287 108.576 250.605 108.23 249.913C135.197 300.685 195.544 315.806 247.22 289.91C298.896 264.014 322.896 206.625 298.375 154.628C298.721 155.319 299.063 156.002 299.414 156.702Z" fill="#7623A8"/>
<g clip-path="url(#clip1_663_6007)">
<path d="M235.45 128.172C238.908 145.384 242.659 162.523 246.572 179.617C241.286 183.695 235.488 187.773 229.293 191.684C224.78 173.791 220.28 155.891 215.942 137.911L235.45 128.172Z" fill="url(#paint13_linear_663_6007)"/>
<path d="M246.559 179.589C250.707 197.445 254.949 215.345 259.28 233.201C255.045 237.249 250.488 240.948 245.656 244.261C233.264 230.646 220.978 216.954 208.801 203.183C214.146 200.504 219.242 197.73 224.082 194.847C226.805 197.843 229.56 200.817 232.346 203.769C231.332 199.734 230.273 195.647 229.281 191.655C235.475 187.745 241.229 183.689 246.559 179.589Z" fill="url(#paint14_linear_663_6007)"/>
<path d="M224.094 194.876C219.254 197.759 214.122 200.57 208.813 203.212C204.921 198.834 201.047 194.455 197.19 190.073C198.367 195.712 199.541 201.359 200.714 207.014C195.302 209.451 189.978 211.587 184.742 213.46C181.334 195.252 177.728 177.087 174.071 158.93L186.08 152.912C198.678 166.974 211.313 180.998 224.094 194.876Z" fill="url(#paint15_linear_663_6007)"/>
<path d="M200.701 206.983C204.448 225.064 208.078 243.179 211.591 261.329C206.045 263.217 200.355 264.653 194.577 265.623C182.315 250.807 170.024 236.042 157.542 221.373C164.208 219.865 171.18 217.984 178.35 215.618L187.121 226.43C186.341 222.094 185.539 217.751 184.729 213.429C189.98 211.549 195.289 209.42 200.701 206.983Z" fill="url(#paint16_linear_663_6007)"/>
<path d="M178.363 215.646C171.193 218.011 164.221 219.893 157.556 221.401C146.78 208.698 135.829 196.12 124.703 183.667L144.195 173.899C155.68 187.748 167.025 201.686 178.363 215.646Z" fill="url(#paint17_linear_663_6007)"/>
</g>
</g>
<defs>
<filter id="filter0_f_663_6007" x="342.142" y="203.461" width="237.185" height="237.187" filterUnits="userSpaceOnUse" color-interpolation-filters="sRGB">
<feFlood flood-opacity="0" result="BackgroundImageFix"/>
<feBlend mode="normal" in="SourceGraphic" in2="BackgroundImageFix" result="shape"/>
<feGaussianBlur stdDeviation="6" result="effect1_foregroundBlur_663_6007"/>
</filter>
<filter id="filter1_d_663_6007" x="299.479" y="67.4785" width="223.77" height="223.771" filterUnits="userSpaceOnUse" color-interpolation-filters="sRGB">
<feFlood flood-opacity="0" result="BackgroundImageFix"/>
<feColorMatrix in="SourceAlpha" type="matrix" values="0 0 0 0 0 0 0 0 0 0 0 0 0 0 0 0 0 0 127 0" result="hardAlpha"/>
<feOffset dx="2" dy="2"/>
<feGaussianBlur stdDeviation="16"/>
<feComposite in2="hardAlpha" operator="out"/>
<feColorMatrix type="matrix" values="0 0 0 0 0.921569 0 0 0 0 1 0 0 0 0 1 0 0 0 0.16 0"/>
<feBlend mode="normal" in2="BackgroundImageFix" result="effect1_dropShadow_663_6007"/>
<feBlend mode="normal" in="SourceGraphic" in2="effect1_dropShadow_663_6007" result="shape"/>
</filter>
<filter id="filter2_f_663_6007" x="328.479" y="96.4785" width="161.77" height="161.771" filterUnits="userSpaceOnUse" color-interpolation-filters="sRGB">
<feFlood flood-opacity="0" result="BackgroundImageFix"/>
<feBlend mode="normal" in="SourceGraphic" in2="BackgroundImageFix" result="shape"/>
<feGaussianBlur stdDeviation="0.5" result="effect1_foregroundBlur_663_6007"/>
</filter>
<filter id="filter3_f_663_6007" x="353.01" y="151.563" width="108.573" height="82.002" filterUnits="userSpaceOnUse" color-interpolation-filters="sRGB">
<feFlood flood-opacity="0" result="BackgroundImageFix"/>
<feBlend mode="normal" in="SourceGraphic" in2="BackgroundImageFix" result="shape"/>
<feGaussianBlur stdDeviation="0.5" result="effect1_foregroundBlur_663_6007"/>
</filter>
<filter id="filter4_f_663_6007" x="379.475" y="145.63" width="64.6841" height="64.9688" filterUnits="userSpaceOnUse" color-interpolation-filters="sRGB">
<feFlood flood-opacity="0" result="BackgroundImageFix"/>
<feBlend mode="normal" in="SourceGraphic" in2="BackgroundImageFix" result="shape"/>
<feGaussianBlur stdDeviation="0.5" result="effect1_foregroundBlur_663_6007"/>
</filter>
<filter id="filter5_f_663_6007" x="379.493" y="164.929" width="52.4834" height="45.6162" filterUnits="userSpaceOnUse" color-interpolation-filters="sRGB">
<feFlood flood-opacity="0" result="BackgroundImageFix"/>
<feBlend mode="normal" in="SourceGraphic" in2="BackgroundImageFix" result="shape"/>
<feGaussianBlur stdDeviation="0.5" result="effect1_foregroundBlur_663_6007"/>
</filter>
<filter id="filter6_f_663_6007" x="358.418" y="119.853" width="108.573" height="82.002" filterUnits="userSpaceOnUse" color-interpolation-filters="sRGB">
<feFlood flood-opacity="0" result="BackgroundImageFix"/>
<feBlend mode="normal" in="SourceGraphic" in2="BackgroundImageFix" result="shape"/>
<feGaussianBlur stdDeviation="0.5" result="effect1_foregroundBlur_663_6007"/>
</filter>
<filter id="filter7_d_663_6007" x="22.0928" y="22.0938" width="368.494" height="368.493" filterUnits="userSpaceOnUse" color-interpolation-filters="sRGB">
<feFlood flood-opacity="0" result="BackgroundImageFix"/>
<feColorMatrix in="SourceAlpha" type="matrix" values="0 0 0 0 0 0 0 0 0 0 0 0 0 0 0 0 0 0 127 0" result="hardAlpha"/>
<feOffset dx="2" dy="2"/>
<feGaussianBlur stdDeviation="16"/>
<feComposite in2="hardAlpha" operator="out"/>
<feColorMatrix type="matrix" values="0 0 0 0 0.0745098 0 0 0 0 0.0196078 0 0 0 0 0.176471 0 0 0 0.24 0"/>
<feBlend mode="normal" in2="BackgroundImageFix" result="effect1_dropShadow_663_6007"/>
<feBlend mode="normal" in="SourceGraphic" in2="effect1_dropShadow_663_6007" result="shape"/>
</filter>
<linearGradient id="paint0_linear_663_6007" x1="546.966" y1="232.043" x2="376.364" y2="410.124" gradientUnits="userSpaceOnUse">
<stop stop-color="#811CDE"/>
<stop offset="0.677083" stop-color="#450F77"/>
<stop offset="1" stop-color="#100755"/>
</linearGradient>
<linearGradient id="paint1_linear_663_6007" x1="509.394" y1="271.259" x2="411.546" y2="373.397" gradientUnits="userSpaceOnUse">
<stop stop-color="#671F91"/>
<stop offset="0.807292" stop-color="#450F77"/>
</linearGradient>
<linearGradient id="paint2_linear_663_6007" x1="509.727" y1="316.431" x2="483.537" y2="343.77" gradientUnits="userSpaceOnUse">
<stop stop-color="#CE99FE"/>
<stop offset="1" stop-color="white"/>
</linearGradient>
<linearGradient id="paint3_linear_663_6007" x1="475.778" y1="333.352" x2="447.96" y2="362.389" gradientUnits="userSpaceOnUse">
<stop stop-color="#CE99FE"/>
<stop offset="1" stop-color="white"/>
</linearGradient>
<linearGradient id="paint4_linear_663_6007" x1="487.048" y1="294.736" x2="460.325" y2="322.63" gradientUnits="userSpaceOnUse">
<stop stop-color="#CE99FE"/>
<stop offset="1" stop-color="white"/>
</linearGradient>
<linearGradient id="paint5_linear_663_6007" x1="449.881" y1="306.094" x2="420.841" y2="336.407" gradientUnits="userSpaceOnUse">
<stop stop-color="#CE99FE"/>
<stop offset="1" stop-color="white"/>
</linearGradient>
<linearGradient id="paint6_linear_663_6007" x1="464.157" y1="272.806" x2="438.657" y2="299.425" gradientUnits="userSpaceOnUse">
<stop stop-color="#CE99FE"/>
<stop offset="1" stop-color="white"/>
</linearGradient>
<linearGradient id="paint7_linear_663_6007" x1="449.259" y1="92.9326" x2="370.331" y2="259.972" gradientUnits="userSpaceOnUse">
<stop stop-color="#FFDD5D"/>
<stop offset="0.786458" stop-color="#FBB03B"/>
<stop offset="1" stop-color="#F8A201"/>
</linearGradient>
<linearGradient id="paint8_linear_663_6007" x1="433.179" y1="126.96" x2="387.909" y2="222.766" gradientUnits="userSpaceOnUse">
<stop stop-color="#F78C02"/>
<stop offset="0.64527" stop-color="#F8A201"/>
</linearGradient>
<linearGradient id="paint9_linear_663_6007" x1="424.144" y1="146.774" x2="398.329" y2="201.408" gradientUnits="userSpaceOnUse">
<stop stop-color="#FFF9E6"/>
<stop offset="1" stop-color="#FFC000"/>
</linearGradient>
<linearGradient id="paint10_linear_663_6007" x1="410.029" y1="176.662" x2="400.925" y2="195.928" gradientUnits="userSpaceOnUse">
<stop stop-color="#FBC652"/>
<stop offset="0.79" stop-color="#FBB03B"/>
</linearGradient>
<linearGradient id="paint11_linear_663_6007" x1="124.605" y1="45.2249" x2="282.355" y2="360.018" gradientUnits="userSpaceOnUse">
<stop stop-color="#811CDE"/>
<stop offset="0.677083" stop-color="#450F77"/>
<stop offset="1" stop-color="#100755"/>
</linearGradient>
<linearGradient id="paint12_linear_663_6007" x1="159.344" y1="114.551" x2="249.821" y2="295.1" gradientUnits="userSpaceOnUse">
<stop stop-color="#671F91"/>
<stop offset="0.807292" stop-color="#450F77"/>
</linearGradient>
<linearGradient id="paint13_linear_663_6007" x1="220.255" y1="135.75" x2="244.473" y2="184.077" gradientUnits="userSpaceOnUse">
<stop stop-color="#CE99FE"/>
<stop offset="1" stop-color="white"/>
</linearGradient>
<linearGradient id="paint14_linear_663_6007" x1="226.744" y1="189.519" x2="252.466" y2="240.848" gradientUnits="userSpaceOnUse">
<stop stop-color="#CE99FE"/>
<stop offset="1" stop-color="white"/>
</linearGradient>
<linearGradient id="paint15_linear_663_6007" x1="180.208" y1="155.855" x2="204.917" y2="205.165" gradientUnits="userSpaceOnUse">
<stop stop-color="#CE99FE"/>
<stop offset="1" stop-color="white"/>
</linearGradient>
<linearGradient id="paint16_linear_663_6007" x1="177.672" y1="211.286" x2="204.525" y2="264.87" gradientUnits="userSpaceOnUse">
<stop stop-color="#CE99FE"/>
<stop offset="1" stop-color="white"/>
</linearGradient>
<linearGradient id="paint17_linear_663_6007" x1="139.743" y1="176.13" x2="163.323" y2="223.183" gradientUnits="userSpaceOnUse">
<stop stop-color="#CE99FE"/>
<stop offset="1" stop-color="white"/>
</linearGradient>
<clipPath id="clip0_663_6007">
<rect width="86.7602" height="75.9152" fill="white" transform="translate(455.666 264.639) rotate(43.7712)"/>
</clipPath>
<clipPath id="clip1_663_6007">
<rect width="123.874" height="108.39" fill="white" transform="translate(124.688 183.639) rotate(-26.6163)"/>
</clipPath>
</defs>
</svg>
