<svg width="80" height="80" viewBox="0 0 80 80" fill="none" xmlns="http://www.w3.org/2000/svg">
<path d="M79.8738 40.0004C79.8738 61.9852 61.9852 79.8738 40.0004 79.8738C18.0156 79.8738 0.126956 61.9852 0.126956 40.0004C0.126211 38.1208 0.258185 36.2436 0.521893 34.3826C3.2586 15.0459 19.9194 0.126953 40.0004 0.126953C60.0409 0.126953 76.6788 14.9877 79.4611 34.2738C79.7372 36.1701 79.8751 38.084 79.8738 40.0004Z" fill="url(#paint0_linear_5548_6258)"/>
<path d="M77.5809 34.5068C76.1659 24.7687 71.0287 15.9592 63.2503 9.93186C55.4719 3.90454 45.6588 1.12941 35.8758 2.19041C26.0929 3.2514 17.1029 8.0658 10.7975 15.6205C4.4921 23.1753 1.363 32.8813 2.0686 42.6963C2.77419 52.5113 7.25947 61.67 14.5806 68.2451C21.9018 74.8203 31.488 78.2993 41.3221 77.95C51.1563 77.6007 60.4715 73.4505 67.3078 66.3725C74.1441 59.2945 77.9683 49.8408 77.9758 40.0004C77.9773 38.1621 77.8453 36.326 77.5809 34.5068ZM40.0011 12.1523C46.7444 12.1623 53.2557 14.6153 58.3292 19.0572C63.4028 23.4992 66.6949 29.629 67.5961 36.3118C67.7395 37.3331 67.824 38.3618 67.8492 39.3929C67.4898 54.4435 55.1379 65.0637 40.0011 65.0637C24.8644 65.0637 12.51 54.4435 12.153 39.3929C12.1753 38.4106 12.2505 37.4303 12.3784 36.4561C13.248 29.7424 16.5303 23.5743 21.6129 19.1024C26.6955 14.6304 33.2313 12.1602 40.0011 12.1523Z" fill="#FEBC2A"/>
<path d="M67.8476 39.391C67.4881 54.4416 55.1362 65.0619 39.9995 65.0619C24.8628 65.0619 12.5083 54.4416 12.1514 39.391C12.1736 38.4088 12.2488 37.4284 12.3767 36.4543C13.2425 29.755 16.5139 23.5988 21.5815 19.1323C26.649 14.6658 33.1673 12.1935 39.9223 12.1759C46.6772 12.1582 53.2084 14.5964 58.2992 19.0364C63.39 23.4763 66.6935 29.6153 67.5944 36.31C67.7378 37.3313 67.8223 38.36 67.8476 39.391Z" fill="url(#paint1_linear_5548_6258)"/>
<path d="M67.8476 40.0021C67.8476 47.3879 64.9136 54.4712 59.691 59.6937C54.4685 64.9162 47.3852 67.8502 39.9995 67.8502C32.6137 67.8502 25.5304 64.9162 20.3079 59.6937C15.0854 54.4712 12.1514 47.3879 12.1514 40.0021C12.1514 39.7971 12.1514 39.5971 12.1514 39.3945C12.5083 54.4452 24.8628 65.0654 39.9995 65.0654C55.1362 65.0654 67.4881 54.4452 67.8476 39.3945C67.8476 39.5971 67.8476 39.7971 67.8476 40.0021Z" fill="#FBC652"/>
<path d="M55.7305 36.1997L53.0749 38.8071L48.3957 43.4012L50.126 53.567C50.1496 53.7027 50.135 53.8422 50.0838 53.9699C50.0325 54.0975 49.9468 54.2081 49.8362 54.2891C49.7257 54.3701 49.5948 54.4182 49.4584 54.4279C49.3221 54.4377 49.1858 54.4087 49.065 54.3443L40.3403 49.7244C40.2354 49.6686 40.1185 49.6395 39.9998 49.6395C39.8811 49.6395 39.7642 49.6686 39.6592 49.7244L30.9444 54.3364C30.8235 54.4005 30.6872 54.4293 30.5508 54.4195C30.4145 54.4096 30.2836 54.3615 30.173 54.2807C30.0624 54.1998 29.9765 54.0893 29.9249 53.9618C29.8734 53.8343 29.8583 53.6948 29.8814 53.5591L31.6138 43.3933L27.0073 38.8864L24.2711 36.1997C24.1735 36.1036 24.1046 35.982 24.072 35.8485C24.0394 35.7151 24.0445 35.5751 24.0866 35.4444C24.1288 35.3137 24.2064 35.1975 24.3106 35.1088C24.4148 35.0201 24.5416 34.9626 24.6766 34.9426L34.8126 33.4595L39.3403 24.2077C39.4008 24.0844 39.4944 23.9805 39.6104 23.9079C39.7264 23.8353 39.8603 23.7969 39.9968 23.7969C40.1334 23.7969 40.2673 23.8353 40.3833 23.9079C40.4993 23.9805 40.5928 24.0844 40.6533 24.2077L45.181 33.4595L55.3151 34.9426C55.4509 34.961 55.5788 35.0175 55.6844 35.1055C55.7899 35.1936 55.8688 35.3097 55.912 35.4406C55.9553 35.5716 55.9612 35.7122 55.9291 35.8463C55.897 35.9805 55.8282 36.1029 55.7305 36.1997Z" fill="#F08B00"/>
<g filter="url(#filter0_i_5548_6258)">
<path d="M55.7305 35.188L53.0749 37.7953L48.3957 42.3895L50.126 52.5553C50.1496 52.6909 50.135 52.8305 50.0838 52.9581C50.0325 53.0858 49.9468 53.1964 49.8362 53.2774C49.7257 53.3583 49.5948 53.4065 49.4584 53.4162C49.3221 53.426 49.1858 53.397 49.065 53.3326L40.3403 48.7127C40.2354 48.6569 40.1185 48.6278 39.9998 48.6278C39.8811 48.6278 39.7642 48.6569 39.6592 48.7127L30.9444 53.3247C30.8235 53.3888 30.6872 53.4176 30.5508 53.4077C30.4145 53.3979 30.2836 53.3498 30.173 53.2689C30.0624 53.1881 29.9765 53.0776 29.9249 52.9501C29.8734 52.8226 29.8583 52.6831 29.8814 52.5474L31.6138 42.3816L27.0073 37.8747L24.2711 35.188C24.1735 35.0919 24.1046 34.9703 24.072 34.8368C24.0394 34.7034 24.0445 34.5634 24.0866 34.4327C24.1288 34.302 24.2064 34.1858 24.3106 34.0971C24.4148 34.0084 24.5416 33.9509 24.6766 33.9309L34.8126 32.4477L39.3403 23.196C39.4008 23.0726 39.4944 22.9688 39.6104 22.8962C39.7264 22.8236 39.8603 22.7852 39.9968 22.7852C40.1334 22.7852 40.2673 22.8236 40.3833 22.8962C40.4993 22.9688 40.5928 23.0726 40.6533 23.196L45.181 32.4477L55.3151 33.9309C55.4509 33.9493 55.5788 34.0058 55.6844 34.0938C55.7899 34.1819 55.8688 34.298 55.912 34.4289C55.9553 34.5599 55.9612 34.7004 55.9291 34.8346C55.897 34.9688 55.8282 35.0912 55.7305 35.188Z" fill="url(#paint2_linear_5548_6258)"/>
</g>
<path opacity="0.48" d="M31.4025 42.2949L28.7745 39.7306C28.6859 39.645 28.6287 39.5319 28.6123 39.4096C28.5959 39.2874 28.6211 39.1632 28.684 39.0571C28.7468 38.9511 28.8436 38.8693 28.9586 38.8252C29.0736 38.781 29.2002 38.777 29.3177 38.8137C32.7981 39.8815 36.4193 40.4177 40.0594 40.4041C43.6622 40.3889 47.2425 39.8343 50.6814 38.7587C50.7989 38.7225 50.9252 38.7268 51.04 38.7709C51.1548 38.8151 51.2514 38.8965 51.3145 39.0022C51.3776 39.1079 51.4034 39.2317 51.3878 39.3538C51.3722 39.4759 51.3162 39.5892 51.2286 39.6757L48.5437 42.2949C48.4799 42.3571 48.4323 42.434 48.4049 42.5189C48.3776 42.6037 48.3714 42.694 48.3868 42.7818L50.0616 52.5636C50.0852 52.6979 50.0706 52.8361 50.0196 52.9625C49.9685 53.0889 49.8831 53.1984 49.7729 53.2786C49.6628 53.3588 49.5324 53.4064 49.3966 53.4161C49.2607 53.4258 49.1249 53.3971 49.0045 53.3333L40.3124 48.7585C40.2078 48.7033 40.0913 48.6744 39.9731 48.6744C39.8549 48.6744 39.7384 48.7033 39.6338 48.7585L30.9514 53.3254C30.831 53.3889 30.6951 53.4174 30.5593 53.4077C30.4235 53.3979 30.2931 53.3503 30.1829 53.2703C30.0727 53.1902 29.9871 53.0808 29.9357 52.9545C29.8844 52.8283 29.8694 52.6901 29.8924 52.5558L31.5692 42.774C31.5821 42.6866 31.5736 42.5974 31.5446 42.5139C31.5156 42.4305 31.4668 42.3554 31.4025 42.2949Z" fill="url(#paint3_linear_5548_6258)"/>
<path d="M12.1524 39.1404C12.1524 31.7547 15.0864 24.6714 20.309 19.4489C25.5315 14.2263 32.6148 11.2924 40.0005 11.2924C47.3863 11.2924 54.4696 14.2263 59.6921 19.4489C64.9146 24.6714 67.8486 31.7547 67.8486 39.1405C67.8486 39.3455 67.8486 39.5455 67.8486 39.748C67.4917 24.6974 55.1372 14.0772 40.0005 14.0772C24.8638 14.0772 12.5119 24.6974 12.1524 39.748C12.1524 39.5455 12.1524 39.3455 12.1524 39.1404Z" fill="#F68A03"/>
<defs>
<filter id="filter0_i_5548_6258" x="24.0508" y="22.7852" width="32.4048" height="30.6328" filterUnits="userSpaceOnUse" color-interpolation-filters="sRGB">
<feFlood flood-opacity="0" result="BackgroundImageFix"/>
<feBlend mode="normal" in="SourceGraphic" in2="BackgroundImageFix" result="shape"/>
<feColorMatrix in="SourceAlpha" type="matrix" values="0 0 0 0 0 0 0 0 0 0 0 0 0 0 0 0 0 0 127 0" result="hardAlpha"/>
<feOffset dx="0.506329"/>
<feGaussianBlur stdDeviation="2.02532"/>
<feComposite in2="hardAlpha" operator="arithmetic" k2="-1" k3="1"/>
<feColorMatrix type="matrix" values="0 0 0 0 1 0 0 0 0 1 0 0 0 0 1 0 0 0 0.45 0"/>
<feBlend mode="normal" in2="shape" result="effect1_innerShadow_5548_6258"/>
</filter>
<linearGradient id="paint0_linear_5548_6258" x1="40.0004" y1="-6.60722" x2="40.0004" y2="85.6004" gradientUnits="userSpaceOnUse">
<stop stop-color="#FFDD5D"/>
<stop offset="0.786458" stop-color="#FBB03B"/>
<stop offset="1" stop-color="#F8A201"/>
</linearGradient>
<linearGradient id="paint1_linear_5548_6258" x1="39.9995" y1="12.1758" x2="39.9995" y2="65.0619" gradientUnits="userSpaceOnUse">
<stop stop-color="#F78C02"/>
<stop offset="0.64527" stop-color="#F8A201"/>
</linearGradient>
<linearGradient id="paint2_linear_5548_6258" x1="40.0001" y1="22.7852" x2="40.0001" y2="53.4181" gradientUnits="userSpaceOnUse">
<stop stop-color="#FFF9E6"/>
<stop offset="1" stop-color="#FFC000"/>
</linearGradient>
<linearGradient id="paint3_linear_5548_6258" x1="40.0025" y1="39.5422" x2="40.0025" y2="50.3449" gradientUnits="userSpaceOnUse">
<stop stop-color="#FBC652"/>
<stop offset="0.79" stop-color="#FBB03B"/>
</linearGradient>
</defs>
</svg>
