<svg width="321" height="303" viewBox="0 0 321 303" fill="none" xmlns="http://www.w3.org/2000/svg">
<path d="M147.844 110.539C158.636 150.391 134.991 191.599 95.1401 202.391C55.2886 213.184 14.0806 189.539 3.28808 149.688C2.36405 146.281 1.68173 142.814 1.24619 139.311C-3.28559 102.916 19.5912 67.6939 55.9916 57.8359C92.3187 47.9979 129.773 66.768 144.284 100.362C145.716 103.664 146.905 107.065 147.844 110.539Z" fill="url(#paint0_linear_3748_19658)"/>
<path d="M140.989 101.707C133.644 84.7497 120.007 71.3027 102.948 64.1956C85.8899 57.0885 66.7395 56.8754 49.527 63.6012C32.3144 70.327 18.3818 83.4672 10.6609 100.257C2.93996 117.047 2.03268 136.177 8.12997 153.622C14.2273 171.067 26.8537 185.467 43.3524 193.791C59.8512 202.116 78.9357 203.716 96.5904 198.255C114.245 192.795 129.093 180.699 138.011 164.513C146.928 148.327 149.219 129.313 144.402 111.471C143.502 108.138 142.362 104.875 140.989 101.707ZM61.8952 79.6339C74.1235 76.3415 87.1305 77.5917 98.5079 83.1528C109.885 88.7139 118.862 98.2093 123.776 109.881C124.537 111.662 125.196 113.485 125.748 115.341C132.484 142.8 115.308 168.115 87.8699 175.545C60.4319 182.976 32.8237 169.79 24.7881 142.683C24.3462 140.892 24.0013 139.078 23.7549 137.249C22.0355 124.652 24.9572 111.86 31.975 101.259C38.9928 90.6577 49.6275 82.9714 61.8952 79.6339Z" fill="#FEBC2A"/>
<path d="M125.747 115.342C132.484 142.801 115.308 168.116 87.8697 175.546C60.4317 182.977 32.8235 169.791 24.7879 142.684C24.346 140.893 24.0011 139.079 23.7547 137.25C22.0355 124.681 24.9433 111.916 31.9365 101.332C38.9298 90.7482 49.5317 83.0668 61.7676 79.7187C74.0035 76.3707 87.0393 77.5842 98.447 83.1333C109.855 88.6823 118.857 98.1887 123.776 109.882C124.537 111.663 125.195 113.486 125.747 115.342Z" fill="url(#paint1_linear_3748_19658)"/>
<path d="M126.046 116.443C129.672 129.831 127.83 144.111 120.927 156.142C114.024 168.172 102.625 176.968 89.237 180.594C75.8489 184.22 61.5689 182.378 49.5383 175.475C37.5077 168.572 28.7121 157.173 25.0864 143.785C24.9857 143.413 24.8875 143.051 24.7881 142.684C32.8236 169.79 60.4318 182.977 87.8699 175.546C115.308 168.115 132.484 142.8 125.748 115.342C125.847 115.709 125.945 116.071 126.046 116.443Z" fill="#FBC652"/>
<path d="M102.214 115.505L98.6803 121.535L92.4536 132.16L100.581 149.737C100.69 149.972 100.732 150.232 100.702 150.488C100.672 150.745 100.57 150.988 100.41 151.189C100.249 151.39 100.036 151.541 99.7932 151.626C99.5509 151.71 99.2895 151.725 99.0389 151.667L80.956 147.576C80.7383 147.526 80.5121 147.531 80.297 147.589C80.0819 147.647 79.8843 147.758 79.7214 147.91L66.1883 160.548C66.0006 160.724 65.7676 160.843 65.5156 160.892C65.2636 160.941 65.0028 160.918 64.7626 160.826C64.5224 160.734 64.3124 160.576 64.1564 160.37C64.0004 160.164 63.9046 159.919 63.8799 159.661L62.0295 140.384L51.4671 134.475L45.1881 130.948C44.9642 130.822 44.7795 130.636 44.6549 130.41C44.5303 130.184 44.4708 129.928 44.483 129.67C44.4953 129.412 44.5789 129.163 44.7243 128.952C44.8697 128.74 45.0712 128.573 45.3061 128.471L62.9515 120.806L66.6169 101.813C66.6661 101.56 66.7847 101.326 66.9593 101.137C67.134 100.949 67.3577 100.813 67.6053 100.746C67.8529 100.679 68.1144 100.683 68.3603 100.758C68.6062 100.832 68.8268 100.975 68.997 101.169L81.746 115.716L100.844 113.43C101.099 113.397 101.359 113.436 101.593 113.544C101.828 113.652 102.028 113.824 102.171 114.04C102.313 114.256 102.393 114.508 102.401 114.767C102.408 115.026 102.344 115.281 102.214 115.505Z" fill="#F08B00"/>
<g filter="url(#filter0_i_3748_19658)">
<path d="M101.717 113.669L98.1832 119.699L91.9565 130.324L100.084 147.902C100.193 148.136 100.235 148.396 100.205 148.652C100.175 148.909 100.073 149.152 99.9128 149.353C99.7522 149.554 99.5385 149.705 99.2962 149.79C99.0538 149.874 98.7925 149.889 98.5418 149.831L80.4589 145.74C80.2413 145.69 80.0151 145.695 79.7999 145.753C79.5848 145.811 79.3872 145.922 79.2243 146.074L65.6913 158.712C65.5035 158.888 65.2705 159.007 65.0185 159.056C64.7666 159.105 64.5057 159.082 64.2655 158.99C64.0253 158.898 63.8153 158.74 63.6593 158.534C63.5033 158.328 63.4075 158.083 63.3828 157.825L61.5324 138.548L50.97 132.639L44.6911 129.112C44.4671 128.986 44.2824 128.8 44.1578 128.574C44.0332 128.348 43.9737 128.092 43.986 127.834C43.9982 127.576 44.0818 127.328 44.2272 127.116C44.3726 126.904 44.5742 126.737 44.809 126.635L62.4544 118.97L66.1198 99.9772C66.169 99.7239 66.2876 99.4898 66.4622 99.3013C66.6369 99.1127 66.8606 98.9773 67.1082 98.9102C67.3558 98.8432 67.6173 98.8472 67.8632 98.9218C68.1092 98.9965 68.3297 99.1388 68.4999 99.3326L81.2489 113.88L100.347 111.594C100.602 111.561 100.862 111.6 101.096 111.708C101.331 111.816 101.531 111.988 101.673 112.204C101.816 112.42 101.896 112.672 101.904 112.931C101.911 113.19 101.847 113.445 101.717 113.669Z" fill="url(#paint2_linear_3748_19658)"/>
</g>
<path opacity="0.32" d="M61.1075 138.494L55.0849 135.136C54.8822 135.024 54.7231 134.847 54.6333 134.634C54.5435 134.42 54.5284 134.183 54.5902 133.96C54.652 133.736 54.7873 133.541 54.9741 133.404C55.1609 133.268 55.3883 133.198 55.6195 133.207C62.4524 133.434 69.2798 132.628 75.8714 130.817C82.3947 129.021 88.6123 126.258 94.318 122.62C94.5132 122.497 94.7442 122.442 94.974 122.466C95.2037 122.49 95.4189 122.59 95.5851 122.75C95.7513 122.911 95.8589 123.123 95.8906 123.352C95.9223 123.581 95.8763 123.814 95.76 124.013L92.1789 130.079C92.0939 130.223 92.0453 130.386 92.0374 130.553C92.0295 130.721 92.0625 130.887 92.1335 131.039L99.9715 147.948C100.08 148.18 100.122 148.438 100.091 148.692C100.061 148.946 99.9595 149.186 99.7992 149.386C99.6389 149.585 99.4259 149.736 99.1844 149.82C98.9429 149.904 98.6827 149.919 98.4332 149.862L80.4313 145.837C80.2146 145.788 79.9893 145.793 79.775 145.851C79.5606 145.909 79.3637 146.018 79.2012 146.17L65.7048 158.71C65.5176 158.885 65.2854 159.003 65.0344 159.052C64.7834 159.101 64.5236 159.079 64.2846 158.988C64.0455 158.897 63.8366 158.74 63.6816 158.537C63.5265 158.333 63.4315 158.09 63.4072 157.835L61.6449 139.281C61.6253 139.116 61.5662 138.958 61.4726 138.821C61.379 138.684 61.2538 138.572 61.1075 138.494Z" fill="url(#paint3_linear_3748_19658)"/>
<path d="M24.6632 142.225C21.0375 128.837 22.8786 114.557 29.7816 102.526C36.6846 90.4955 48.084 81.6999 61.472 78.0742C74.8601 74.4484 89.1401 76.2896 101.171 83.1926C113.201 90.0956 121.997 101.495 125.623 114.883C125.723 115.255 125.821 115.617 125.921 115.984C117.885 88.8776 90.2772 75.6914 62.8391 83.1221C35.4011 90.5529 18.2247 115.868 24.9615 143.326C24.8621 142.959 24.7639 142.596 24.6632 142.225Z" fill="#F68A03"/>
<g filter="url(#filter1_f_3748_19658)">
<ellipse cx="147.271" cy="165.637" rx="64.8322" ry="64.8322" fill="url(#paint4_linear_3748_19658)"/>
</g>
<g filter="url(#filter2_d_3748_19658)">
<path d="M283.805 161.53C263.82 210.403 207.791 233.91 158.918 213.925C110.044 193.94 86.5378 137.911 106.523 89.0377C108.229 84.8587 110.229 80.8054 112.507 76.9081C136.169 36.4091 186.768 18.3883 231.41 36.6425C275.961 54.8598 299.44 103.021 288.093 148.424C286.983 152.891 285.55 157.271 283.805 161.53Z" fill="url(#paint5_linear_3748_19658)"/>
</g>
<path d="M256.243 152.627C241.762 185.758 204.649 198.14 170.999 184.38C137.349 170.62 119.539 135.78 132.427 101.997C133.369 99.8339 134.427 97.7229 135.597 95.6736C143.612 81.5678 156.48 70.856 171.806 65.5332C187.132 60.2104 203.87 60.6396 218.902 66.7408C233.935 72.842 246.238 84.1992 253.519 98.6972C260.8 113.195 262.564 129.846 258.481 145.547C257.871 147.948 257.124 150.312 256.243 152.627Z" fill="url(#paint6_linear_3748_19658)"/>
<path d="M134.038 98.0551C140.752 81.6361 153.713 68.5566 170.07 61.694C186.428 54.8314 204.842 54.7478 221.261 61.4617C237.68 68.1755 250.759 81.1369 257.622 97.4943C264.484 113.852 264.568 132.265 257.854 148.684C257.668 149.14 257.486 149.585 257.302 150.035C270.19 116.252 252.379 81.4122 218.729 67.6525C185.079 53.8928 147.966 66.2741 133.486 99.4059C133.67 98.9556 133.851 98.511 134.038 98.0551Z" fill="#200E47"/>
<path d="M283.7 147.232C289.406 124.297 285.994 100.043 274.181 79.5733C262.368 59.1034 243.076 44.0137 220.363 37.4794C197.651 30.9451 173.289 33.4757 152.404 44.5386C131.519 55.6016 115.74 74.3343 108.387 96.7951C101.033 119.256 102.679 143.693 112.977 164.965C123.276 186.238 141.424 202.686 163.603 210.849C185.783 219.012 210.264 218.253 231.895 208.733C253.527 199.212 270.622 181.672 279.584 159.804C281.258 155.718 282.634 151.516 283.7 147.232ZM220.478 63.3755C235.46 69.5273 247.705 80.8995 254.946 95.3862C262.187 109.873 263.934 126.493 259.862 142.168C259.252 144.569 258.505 146.933 257.624 149.248C243.144 182.379 206.03 194.761 172.381 181.001C138.731 167.241 120.92 132.401 133.808 98.6182C134.75 96.4548 135.809 94.3439 136.978 92.2945C145.015 78.16 157.918 67.4315 173.282 62.1104C188.646 56.7892 205.421 57.2389 220.478 63.3755Z" fill="#450F77"/>
<path d="M257.072 150.599C250.358 167.018 237.396 180.098 221.039 186.96C204.681 193.823 186.268 193.906 169.849 187.193C153.43 180.479 140.35 167.517 133.488 151.16C126.625 134.803 126.541 116.389 133.255 99.9699C133.442 99.514 133.624 99.0694 133.808 98.6191C120.92 132.402 138.73 167.242 172.38 181.002C206.03 194.761 243.143 182.38 257.624 149.248C257.44 149.699 257.258 150.143 257.072 150.599Z" fill="#7623A8"/>
<g clip-path="url(#clip0_3748_19658)">
<g filter="url(#filter3_i_3748_19658)">
<g filter="url(#filter4_d_3748_19658)">
<path d="M166.397 89.3136L165.879 90.5799L159.949 104.663C158.008 101.822 156.243 98.8645 154.663 95.8077L158.637 86.0881L159.904 86.6059L165.13 88.7958L166.397 89.3136Z" fill="url(#paint7_linear_3748_19658)"/>
<path d="M203.677 104.459L202.983 105.805C198.709 114.167 194.598 122.149 190.573 129.936C186.043 128.124 181.739 125.791 177.749 122.984C177.816 122.355 177.877 121.723 177.933 121.089C178.068 119.666 178.179 118.43 178.324 117.353C177.707 118.139 177.017 118.941 176.174 119.831L175.086 121.028C170.896 117.743 167.098 113.986 163.768 109.831C165.828 103.362 167.638 97.6189 169.37 92.0667L169.811 90.618L177.589 93.7984L177.19 95.0148C175.364 100.686 173.438 106.618 171.395 112.93C171.537 112.736 171.695 112.555 171.867 112.387C174.876 109.125 176.393 107.472 179.601 103.851L180.257 103.081L181.173 103.508L186.328 105.859L187.199 106.268L187.088 107.26C186.711 111.396 186.438 113.8 186.097 117.411L185.845 119.634C185.831 119.998 185.797 120.361 185.742 120.722C188.898 114.609 192.055 108.496 195.211 102.384L195.756 101.293L197 101.801L202.303 103.917L203.677 104.459Z" fill="url(#paint8_linear_3748_19658)"/>
<path d="M204.739 133.784C201.889 133.35 199.071 132.728 196.303 131.924L206.352 107.091L206.873 105.819L214.65 108.999L214.13 110.271L204.739 133.784Z" fill="url(#paint9_linear_3748_19658)"/>
<path d="M222.649 134.066C222.248 132.745 221.864 131.441 221.497 130.152L219.871 134.322C216.856 134.549 213.83 134.575 210.812 134.402L219.446 112.484L219.964 111.218L226.6 113.931L226.77 114.592C228.319 120.94 229.811 126.865 231.729 132.504C228.736 133.204 225.704 133.725 222.649 134.066Z" fill="url(#paint10_linear_3748_19658)"/>
<path d="M248.683 122.915L246.812 127.491C243.406 128.973 239.911 130.24 236.347 131.285L240.424 121.023L240.945 119.751L248.683 122.915Z" fill="url(#paint11_linear_3748_19658)"/>
<path d="M159.949 104.663L154.174 118.37L153.023 121.184L151.606 119.638C149.978 117.836 149.127 116.897 147.628 115.003L147.109 114.344L154.685 95.817C156.258 98.8701 158.016 101.824 159.949 104.663Z" fill="url(#paint12_linear_3748_19658)"/>
<path d="M163.77 109.826C167.101 113.98 170.899 117.737 175.089 121.023C171.502 124.976 169.494 127.124 165.888 130.865L165.047 131.749L164.043 130.991C162.05 129.44 161.062 128.642 159.169 126.975L158.468 126.392L158.728 125.513C160.593 119.766 162.244 114.601 163.77 109.826Z" fill="url(#paint13_linear_3748_19658)"/>
<path d="M190.573 129.936C188.5 133.93 186.453 137.875 184.412 141.79L183.781 142.964L182.589 142.378C180.362 141.316 179.225 140.707 177.05 139.522L176.234 139.09L176.323 138.167C176.706 134.225 176.976 131.379 177.25 128.429C177.4 126.744 177.555 125 177.756 122.967C181.745 125.773 186.047 128.105 190.574 129.917L190.573 129.936Z" fill="url(#paint14_linear_3748_19658)"/>
<path d="M199.355 147.256L198.895 148.382L197.716 148.051C195.43 147.36 194.298 146.995 192.045 146.225L190.699 145.773L191.263 144.394L196.314 131.929C199.082 132.733 201.901 133.354 204.75 133.789L199.355 147.256Z" fill="url(#paint15_linear_3748_19658)"/>
<path d="M219.88 134.3L213.681 150.231L213.285 151.199L212.206 151.059C209.865 150.759 208.647 150.59 206.319 150.13L204.717 149.823L205.331 148.321L210.812 134.402C213.834 134.568 216.863 134.534 219.88 134.3Z" fill="url(#paint16_linear_3748_19658)"/>
<path d="M246.812 127.491L237.135 151.157L236.303 151.263C234.127 151.509 233.009 151.591 230.85 151.746L229.992 151.789L229.569 151.025C226.689 145.629 224.378 139.949 222.672 134.075C225.724 133.74 228.754 133.224 231.745 132.53C232.362 134.346 233.021 136.139 233.746 137.901L236.362 131.311C239.922 130.257 243.412 128.981 246.812 127.491Z" fill="url(#paint17_linear_3748_19658)"/>
<path d="M166.397 89.3136L165.879 90.5799L159.949 104.663C158.008 101.822 156.243 98.8645 154.663 95.8077L158.637 86.0881L159.904 86.6059L165.13 88.7958L166.397 89.3136Z" fill="url(#paint18_linear_3748_19658)"/>
<path d="M203.677 104.459L202.983 105.805C198.709 114.167 194.598 122.149 190.573 129.936C186.043 128.124 181.739 125.791 177.749 122.984C177.816 122.355 177.877 121.723 177.933 121.089C178.068 119.666 178.179 118.43 178.324 117.353C177.707 118.139 177.017 118.941 176.174 119.831L175.086 121.028C170.896 117.743 167.098 113.986 163.768 109.831C165.828 103.362 167.638 97.6189 169.37 92.0667L169.811 90.618L177.589 93.7984L177.19 95.0148C175.364 100.686 173.438 106.618 171.395 112.93C171.537 112.736 171.695 112.555 171.867 112.387C174.876 109.125 176.393 107.472 179.601 103.851L180.257 103.081L181.173 103.508L186.328 105.859L187.199 106.268L187.088 107.26C186.711 111.396 186.438 113.8 186.097 117.411L185.845 119.634C185.831 119.998 185.797 120.361 185.742 120.722C188.898 114.609 192.055 108.496 195.211 102.384L195.756 101.293L197 101.801L202.303 103.917L203.677 104.459Z" fill="url(#paint19_linear_3748_19658)"/>
<path d="M204.739 133.784C201.889 133.35 199.071 132.728 196.303 131.924L206.352 107.091L206.873 105.819L214.65 108.999L214.13 110.271L204.739 133.784Z" fill="url(#paint20_linear_3748_19658)"/>
<path d="M222.649 134.066C222.248 132.745 221.864 131.441 221.497 130.152L219.871 134.322C216.856 134.549 213.83 134.575 210.812 134.402L219.446 112.484L219.964 111.218L226.6 113.931L226.77 114.592C228.319 120.94 229.811 126.865 231.729 132.504C228.736 133.204 225.704 133.725 222.649 134.066Z" fill="url(#paint21_linear_3748_19658)"/>
<path d="M248.683 122.915L246.812 127.491C243.406 128.973 239.911 130.24 236.347 131.285L240.424 121.023L240.945 119.751L248.683 122.915Z" fill="url(#paint22_linear_3748_19658)"/>
</g>
<g opacity="0.5">
<path d="M166.397 89.3136L165.879 90.5799L159.949 104.663C158.008 101.822 156.243 98.8645 154.663 95.8077L158.637 86.0881L159.904 86.6059L165.13 88.7958L166.397 89.3136Z" fill="url(#paint23_linear_3748_19658)"/>
<path d="M203.677 104.459L202.983 105.805C198.709 114.167 194.598 122.149 190.573 129.936C186.043 128.124 181.739 125.791 177.749 122.984C177.816 122.355 177.877 121.723 177.933 121.089C178.068 119.666 178.179 118.43 178.324 117.353C177.707 118.139 177.017 118.941 176.174 119.831L175.086 121.028C170.896 117.743 167.098 113.986 163.768 109.831C165.828 103.362 167.638 97.6189 169.37 92.0667L169.811 90.618L177.589 93.7984L177.19 95.0148C175.364 100.686 173.438 106.618 171.395 112.93C171.537 112.736 171.695 112.555 171.867 112.387C174.876 109.125 176.393 107.472 179.601 103.851L180.257 103.081L181.173 103.508L186.328 105.859L187.199 106.268L187.088 107.26C186.711 111.396 186.438 113.8 186.097 117.411L185.845 119.634C185.831 119.998 185.797 120.361 185.742 120.722C188.898 114.609 192.055 108.496 195.211 102.384L195.756 101.293L197 101.801L202.303 103.917L203.677 104.459Z" fill="url(#paint24_linear_3748_19658)"/>
<path d="M204.739 133.784C201.889 133.35 199.071 132.728 196.303 131.924L206.352 107.091L206.873 105.819L214.65 108.999L214.13 110.271L204.739 133.784Z" fill="url(#paint25_linear_3748_19658)"/>
<path d="M222.649 134.066C222.248 132.745 221.864 131.441 221.497 130.152L219.871 134.322C216.856 134.549 213.83 134.575 210.812 134.402L219.446 112.484L219.964 111.218L226.6 113.931L226.77 114.592C228.319 120.94 229.811 126.865 231.729 132.504C228.736 133.204 225.704 133.725 222.649 134.066Z" fill="url(#paint26_linear_3748_19658)"/>
<path d="M248.683 122.915L246.812 127.491C243.406 128.973 239.911 130.24 236.347 131.285L240.424 121.023L240.945 119.751L248.683 122.915Z" fill="url(#paint27_linear_3748_19658)"/>
</g>
</g>
</g>
<defs>
<filter id="filter0_i_3748_19658" x="43.9844" y="98.8633" width="58.7266" height="60.2188" filterUnits="userSpaceOnUse" color-interpolation-filters="sRGB">
<feFlood flood-opacity="0" result="BackgroundImageFix"/>
<feBlend mode="normal" in="SourceGraphic" in2="BackgroundImageFix" result="shape"/>
<feColorMatrix in="SourceAlpha" type="matrix" values="0 0 0 0 0 0 0 0 0 0 0 0 0 0 0 0 0 0 127 0" result="hardAlpha"/>
<feOffset dx="0.806669"/>
<feGaussianBlur stdDeviation="3.22668"/>
<feComposite in2="hardAlpha" operator="arithmetic" k2="-1" k3="1"/>
<feColorMatrix type="matrix" values="0 0 0 0 1 0 0 0 0 1 0 0 0 0 1 0 0 0 0.45 0"/>
<feBlend mode="normal" in2="shape" result="effect1_innerShadow_3748_19658"/>
</filter>
<filter id="filter1_f_3748_19658" x="10.4385" y="28.8047" width="273.665" height="273.664" filterUnits="userSpaceOnUse" color-interpolation-filters="sRGB">
<feFlood flood-opacity="0" result="BackgroundImageFix"/>
<feBlend mode="normal" in="SourceGraphic" in2="BackgroundImageFix" result="shape"/>
<feGaussianBlur stdDeviation="36" result="effect1_foregroundBlur_3748_19658"/>
</filter>
<filter id="filter2_d_3748_19658" x="52.1909" y="3.28949" width="254.473" height="254.476" filterUnits="userSpaceOnUse" color-interpolation-filters="sRGB">
<feFlood flood-opacity="0" result="BackgroundImageFix"/>
<feColorMatrix in="SourceAlpha" type="matrix" values="0 0 0 0 0 0 0 0 0 0 0 0 0 0 0 0 0 0 127 0" result="hardAlpha"/>
<feOffset dx="-15.7357" dy="5.24523"/>
<feGaussianBlur stdDeviation="15.7357"/>
<feComposite in2="hardAlpha" operator="out"/>
<feColorMatrix type="matrix" values="0 0 0 0 0.123708 0 0 0 0 0.0503125 0 0 0 0 0.191667 0 0 0 0.48 0"/>
<feBlend mode="normal" in2="BackgroundImageFix" result="effect1_dropShadow_3748_19658"/>
<feBlend mode="normal" in="SourceGraphic" in2="effect1_dropShadow_3748_19658" result="shape"/>
</filter>
<filter id="filter3_i_3748_19658" x="107.94" y="38.0605" width="174.446" height="176.57" filterUnits="userSpaceOnUse" color-interpolation-filters="sRGB">
<feFlood flood-opacity="0" result="BackgroundImageFix"/>
<feBlend mode="normal" in="SourceGraphic" in2="BackgroundImageFix" result="shape"/>
<feColorMatrix in="SourceAlpha" type="matrix" values="0 0 0 0 0 0 0 0 0 0 0 0 0 0 0 0 0 0 127 0" result="hardAlpha"/>
<feOffset dy="2.12434"/>
<feGaussianBlur stdDeviation="1.06217"/>
<feComposite in2="hardAlpha" operator="arithmetic" k2="-1" k3="1"/>
<feColorMatrix type="matrix" values="0 0 0 0 0.599733 0 0 0 0 0.39 0 0 0 0 0.866667 0 0 0 0.32 0"/>
<feBlend mode="normal" in2="shape" result="effect1_innerShadow_3748_19658"/>
</filter>
<filter id="filter4_d_3748_19658" x="147.109" y="86.0879" width="101.574" height="68.8877" filterUnits="userSpaceOnUse" color-interpolation-filters="sRGB">
<feFlood flood-opacity="0" result="BackgroundImageFix"/>
<feColorMatrix in="SourceAlpha" type="matrix" values="0 0 0 0 0 0 0 0 0 0 0 0 0 0 0 0 0 0 127 0" result="hardAlpha"/>
<feOffset dy="3.18652"/>
<feComposite in2="hardAlpha" operator="out"/>
<feColorMatrix type="matrix" values="0 0 0 0 0.00784314 0 0 0 0 0.00392157 0 0 0 0 0.0941176 0 0 0 0.16 0"/>
<feBlend mode="normal" in2="BackgroundImageFix" result="effect1_dropShadow_3748_19658"/>
<feBlend mode="normal" in="SourceGraphic" in2="effect1_dropShadow_3748_19658" result="shape"/>
</filter>
<linearGradient id="paint0_linear_3748_19658" x1="52.6858" y1="45.629" x2="97.9513" y2="212.772" gradientUnits="userSpaceOnUse">
<stop stop-color="#FFDD5D"/>
<stop offset="0.786458" stop-color="#FBB03B"/>
<stop offset="1" stop-color="#F8A201"/>
</linearGradient>
<linearGradient id="paint1_linear_3748_19658" x1="61.9074" y1="79.6807" x2="87.8697" y2="175.546" gradientUnits="userSpaceOnUse">
<stop stop-color="#F78C02"/>
<stop offset="0.64527" stop-color="#F8A201"/>
</linearGradient>
<linearGradient id="paint2_linear_3748_19658" x1="67.1142" y1="98.9086" x2="82.1522" y2="154.436" gradientUnits="userSpaceOnUse">
<stop stop-color="#FFF9E6"/>
<stop offset="1" stop-color="#FFC000"/>
</linearGradient>
<linearGradient id="paint3_linear_3748_19658" x1="75.3452" y1="129.282" x2="80.6484" y2="148.864" gradientUnits="userSpaceOnUse">
<stop stop-color="#FBC652"/>
<stop offset="0.79" stop-color="#FBB03B"/>
</linearGradient>
<linearGradient id="paint4_linear_3748_19658" x1="147.271" y1="230.469" x2="143.238" y2="100.93" gradientUnits="userSpaceOnUse">
<stop offset="0.0001" stop-color="#7B1B78"/>
<stop offset="1" stop-color="#310A30"/>
</linearGradient>
<linearGradient id="paint5_linear_3748_19658" x1="237.531" y1="21.6719" x2="153.712" y2="226.655" gradientUnits="userSpaceOnUse">
<stop stop-color="#811CDE"/>
<stop offset="0.677083" stop-color="#450F77"/>
<stop offset="1" stop-color="#100755"/>
</linearGradient>
<linearGradient id="paint6_linear_3748_19658" x1="219.074" y1="66.8118" x2="170.999" y2="184.38" gradientUnits="userSpaceOnUse">
<stop stop-color="#671F91"/>
<stop offset="0.807292" stop-color="#450F77"/>
</linearGradient>
<linearGradient id="paint7_linear_3748_19658" x1="203.677" y1="104.459" x2="187.338" y2="144.418" gradientUnits="userSpaceOnUse">
<stop stop-color="white"/>
<stop offset="1" stop-color="#CE99FE"/>
</linearGradient>
<linearGradient id="paint8_linear_3748_19658" x1="203.677" y1="104.459" x2="187.338" y2="144.418" gradientUnits="userSpaceOnUse">
<stop stop-color="white"/>
<stop offset="1" stop-color="#CE99FE"/>
</linearGradient>
<linearGradient id="paint9_linear_3748_19658" x1="203.677" y1="104.459" x2="187.338" y2="144.418" gradientUnits="userSpaceOnUse">
<stop stop-color="white"/>
<stop offset="1" stop-color="#CE99FE"/>
</linearGradient>
<linearGradient id="paint10_linear_3748_19658" x1="203.677" y1="104.459" x2="187.338" y2="144.418" gradientUnits="userSpaceOnUse">
<stop stop-color="white"/>
<stop offset="1" stop-color="#CE99FE"/>
</linearGradient>
<linearGradient id="paint11_linear_3748_19658" x1="203.677" y1="104.459" x2="187.338" y2="144.418" gradientUnits="userSpaceOnUse">
<stop stop-color="white"/>
<stop offset="1" stop-color="#CE99FE"/>
</linearGradient>
<linearGradient id="paint12_linear_3748_19658" x1="203.677" y1="104.459" x2="187.338" y2="144.418" gradientUnits="userSpaceOnUse">
<stop stop-color="white"/>
<stop offset="1" stop-color="#CE99FE"/>
</linearGradient>
<linearGradient id="paint13_linear_3748_19658" x1="203.677" y1="104.459" x2="187.338" y2="144.418" gradientUnits="userSpaceOnUse">
<stop stop-color="white"/>
<stop offset="1" stop-color="#CE99FE"/>
</linearGradient>
<linearGradient id="paint14_linear_3748_19658" x1="203.677" y1="104.459" x2="187.338" y2="144.418" gradientUnits="userSpaceOnUse">
<stop stop-color="white"/>
<stop offset="1" stop-color="#CE99FE"/>
</linearGradient>
<linearGradient id="paint15_linear_3748_19658" x1="203.677" y1="104.459" x2="187.338" y2="144.418" gradientUnits="userSpaceOnUse">
<stop stop-color="white"/>
<stop offset="1" stop-color="#CE99FE"/>
</linearGradient>
<linearGradient id="paint16_linear_3748_19658" x1="203.677" y1="104.459" x2="187.338" y2="144.418" gradientUnits="userSpaceOnUse">
<stop stop-color="white"/>
<stop offset="1" stop-color="#CE99FE"/>
</linearGradient>
<linearGradient id="paint17_linear_3748_19658" x1="203.677" y1="104.459" x2="187.338" y2="144.418" gradientUnits="userSpaceOnUse">
<stop stop-color="white"/>
<stop offset="1" stop-color="#CE99FE"/>
</linearGradient>
<linearGradient id="paint18_linear_3748_19658" x1="203.677" y1="104.459" x2="187.338" y2="144.418" gradientUnits="userSpaceOnUse">
<stop stop-color="white"/>
<stop offset="1" stop-color="#CE99FE"/>
</linearGradient>
<linearGradient id="paint19_linear_3748_19658" x1="203.677" y1="104.459" x2="187.338" y2="144.418" gradientUnits="userSpaceOnUse">
<stop stop-color="white"/>
<stop offset="1" stop-color="#CE99FE"/>
</linearGradient>
<linearGradient id="paint20_linear_3748_19658" x1="203.677" y1="104.459" x2="187.338" y2="144.418" gradientUnits="userSpaceOnUse">
<stop stop-color="white"/>
<stop offset="1" stop-color="#CE99FE"/>
</linearGradient>
<linearGradient id="paint21_linear_3748_19658" x1="203.677" y1="104.459" x2="187.338" y2="144.418" gradientUnits="userSpaceOnUse">
<stop stop-color="white"/>
<stop offset="1" stop-color="#CE99FE"/>
</linearGradient>
<linearGradient id="paint22_linear_3748_19658" x1="203.677" y1="104.459" x2="187.338" y2="144.418" gradientUnits="userSpaceOnUse">
<stop stop-color="white"/>
<stop offset="1" stop-color="#CE99FE"/>
</linearGradient>
<linearGradient id="paint23_linear_3748_19658" x1="203.677" y1="104.459" x2="192.874" y2="130.879" gradientUnits="userSpaceOnUse">
<stop stop-color="white"/>
<stop offset="1" stop-color="#CE99FE"/>
</linearGradient>
<linearGradient id="paint24_linear_3748_19658" x1="203.677" y1="104.459" x2="192.874" y2="130.879" gradientUnits="userSpaceOnUse">
<stop stop-color="white"/>
<stop offset="1" stop-color="#CE99FE"/>
</linearGradient>
<linearGradient id="paint25_linear_3748_19658" x1="203.677" y1="104.459" x2="192.874" y2="130.879" gradientUnits="userSpaceOnUse">
<stop stop-color="white"/>
<stop offset="1" stop-color="#CE99FE"/>
</linearGradient>
<linearGradient id="paint26_linear_3748_19658" x1="203.677" y1="104.459" x2="192.874" y2="130.879" gradientUnits="userSpaceOnUse">
<stop stop-color="white"/>
<stop offset="1" stop-color="#CE99FE"/>
</linearGradient>
<linearGradient id="paint27_linear_3748_19658" x1="203.677" y1="104.459" x2="192.874" y2="130.879" gradientUnits="userSpaceOnUse">
<stop stop-color="white"/>
<stop offset="1" stop-color="#CE99FE"/>
</linearGradient>
<clipPath id="clip0_3748_19658">
<rect width="133.768" height="135.592" fill="white" transform="translate(159.26 36.373) rotate(22.24)"/>
</clipPath>
</defs>
</svg>
