<svg width="106" height="96" viewBox="0 0 106 96" fill="none" xmlns="http://www.w3.org/2000/svg">
<mask id="mask0_4819_22443" style="mask-type:alpha" maskUnits="userSpaceOnUse" x="0" y="0" width="106" height="96">
<path d="M106 0H0V96H106V0Z" fill="#090214"/>
</mask>
<g mask="url(#mask0_4819_22443)">
<g opacity="0.5">
<path opacity="0.5" d="M49.4597 19.5844C49.4597 41.5692 31.5711 59.4578 9.5863 59.4578C-12.3985 59.4578 -30.2871 41.5692 -30.2871 19.5844C-30.2879 17.7048 -30.1559 15.8276 -29.8922 13.9666C-27.1555 -5.37003 -10.4947 -20.2891 9.5863 -20.2891C29.6268 -20.2891 46.2648 -5.42826 49.0471 13.8578C49.3232 15.7541 49.4611 17.668 49.4597 19.5844Z" fill="url(#paint0_linear_4819_22443)"/>
<path opacity="0.5" d="M-18.2627 20.4965C-17.9032 35.5471 -5.55131 46.1674 9.5854 46.1674C24.7221 46.1674 37.0765 35.5471 37.4335 20.4965C37.4113 19.5142 37.3361 18.5339 37.2082 17.5598C36.3423 10.8605 33.071 4.70432 28.0034 0.237809C22.9358 -4.22869 16.4175 -6.701 9.66257 -6.71865C2.90761 -6.73631 -3.6235 -4.29811 -8.71434 0.141852C-13.8052 4.5818 -17.1087 10.7208 -18.0095 17.4155C-18.1529 18.4368 -18.2375 19.4655 -18.2627 20.4965Z" fill="url(#paint1_linear_4819_22443)"/>
<path opacity="0.5" d="M-18.2627 18.725C-18.2627 11.3393 -15.3287 4.25601 -10.1062 -0.966523C-4.88365 -6.18906 2.19963 -9.12305 9.5854 -9.12305C16.9712 -9.12305 24.0544 -6.18905 29.277 -0.966519C34.4995 4.25601 37.4335 11.3393 37.4335 18.725C37.4335 18.9301 37.4335 19.1301 37.4335 19.3326C37.0765 4.28202 24.7221 -6.33823 9.5854 -6.33824C-5.5513 -6.33824 -17.9032 4.28201 -18.2627 19.3326C-18.2627 19.1301 -18.2627 18.9301 -18.2627 18.725Z" fill="#200E47"/>
<path opacity="0.5" d="M47.1649 14.0927C45.7499 4.35469 40.6127 -4.45484 32.8343 -10.4822C25.0559 -16.5095 15.2428 -19.2847 5.45979 -18.2237C-4.32317 -17.1627 -13.3132 -12.3483 -19.6185 -4.79347C-25.9239 2.76128 -29.053 12.4673 -28.3474 22.2823C-27.6418 32.0973 -23.1566 41.2559 -15.8354 47.8311C-8.51423 54.4062 1.07198 57.8852 10.9061 57.5359C20.7403 57.1867 30.0555 53.0364 36.8918 45.9584C43.728 38.8805 47.5523 29.4267 47.5598 19.5864C47.5613 17.748 47.4293 15.912 47.1649 14.0927ZM9.58511 -8.26168C16.3284 -8.25176 22.8396 -5.79872 27.9132 -1.35679C32.9868 3.08513 36.2789 9.21503 37.1801 15.8978C37.3235 16.9191 37.408 17.9478 37.4332 18.9788C37.0737 34.0294 24.7218 44.6497 9.58511 44.6497C-5.5516 44.6497 -17.906 34.0294 -18.263 18.9788C-18.2408 17.9965 -18.1655 17.0162 -18.0377 16.0421C-17.168 9.32837 -13.8857 3.16023 -8.80315 -1.31167C-3.72055 -5.78358 2.81527 -8.25385 9.58511 -8.26168Z" fill="#450F77"/>
<path opacity="0.5" d="M37.4345 19.5842C37.4345 26.9699 34.5005 34.0532 29.278 39.2757C24.0554 44.4983 16.9722 47.4323 9.58636 47.4323C2.20059 47.4323 -4.88269 44.4983 -10.1052 39.2757C-15.3277 34.0532 -18.2617 26.9699 -18.2617 19.5842C-18.2617 19.3791 -18.2617 19.1791 -18.2617 18.9766C-17.9048 34.0272 -5.55035 44.6474 9.58636 44.6474C24.7231 44.6474 37.075 34.0272 37.4345 18.9766C37.4345 19.1791 37.4345 19.3791 37.4345 19.5842Z" fill="#7623A8"/>
<path opacity="0.5" d="M44.6413 40.0005C33.614 59.1003 9.10018 65.6688 -9.99966 54.6415C-29.0996 43.6142 -35.668 19.1003 -24.6407 0.00050354C-23.6986 -1.63276 -22.6424 -3.19747 -21.4798 -4.68194C-9.40315 -20.1085 12.5545 -24.7129 30.0004 -14.6405C47.4111 -4.58845 54.4117 16.6676 47.1553 34.8184C46.444 36.6044 45.6037 38.3363 44.6413 40.0005Z" fill="url(#paint2_linear_4819_22443)"/>
<path opacity="0.5" d="M-14.6519 6.82448C-21.8888 20.0804 -16.4848 35.5026 -3.33437 43.0949C9.81602 50.6873 25.8762 47.6575 33.7355 34.761C34.2089 33.8965 34.6353 33.0071 35.0128 32.0966C37.6208 25.8422 37.8666 18.853 35.7044 12.4308C33.5421 6.00854 29.1193 0.591177 23.2596 -2.81237C17.3999 -6.21591 10.5029 -7.37358 3.85309 -6.06976C-2.79673 -4.76594 -8.74596 -1.08952 -12.8866 4.27476C-13.5234 5.09011 -14.1129 5.94143 -14.6519 6.82448Z" fill="url(#paint3_linear_4819_22443)"/>
<path opacity="0.5" d="M-13.7627 5.28668C-10.0581 -1.12989 -3.95618 -5.81201 3.20058 -7.72965C10.3573 -9.6473 17.9827 -8.6434 24.3993 -4.93879C30.8159 -1.23418 35.498 4.86768 37.4156 12.0244C39.3333 19.1811 38.3294 26.8066 34.6248 33.2231C34.5219 33.4013 34.4216 33.575 34.32 33.751C41.5591 20.4963 36.1529 5.07297 23.0025 -2.51941C9.85212 -10.1118 -6.20588 -7.08075 -14.0674 5.81454C-13.9658 5.63859 -13.8655 5.46484 -13.7627 5.28668Z" fill="#200E47"/>
<path opacity="0.5" d="M45.4029 34.0809C49.0581 24.911 49.0138 14.6808 45.2793 5.54282C41.5449 -3.5951 34.4115 -10.9282 25.3801 -14.9134C16.3487 -18.8987 6.1236 -19.2253 -3.14372 -15.8246C-12.4111 -12.424 -19.998 -5.56113 -24.308 3.31981C-28.6181 12.2008 -29.3153 22.4073 -26.2529 31.7919C-23.1904 41.1764 -16.6072 49.0071 -7.88833 53.6364C0.830495 58.2656 11.0051 59.3324 20.4945 56.6122C29.9838 53.8921 38.0481 47.597 42.9905 39.0518C43.9139 37.4554 44.7201 35.7941 45.4029 34.0809ZM23.9673 -4.18956C29.8207 -0.798606 34.2471 4.59849 36.4268 11.0024C38.6066 17.4062 38.3921 24.383 35.823 30.6409C35.4353 31.6001 34.9927 32.5362 34.4975 33.4446C26.636 46.3399 10.578 49.3709 -2.57241 41.7785C-15.7228 34.1862 -21.129 18.7627 -13.8899 5.50805C-13.378 4.66585 -12.8209 3.85189 -12.2212 3.06973C-8.0981 -2.3268 -2.15269 -6.03917 4.506 -7.37489C11.1647 -8.7106 18.0819 -7.57842 23.9673 -4.18956Z" fill="#450F77"/>
<path opacity="0.5" d="M34.1937 33.9683C30.4891 40.3848 24.3872 45.067 17.2305 46.9846C10.0737 48.9023 2.44834 47.8984 -3.96824 44.1937C-10.3848 40.4891 -15.067 34.3873 -16.9846 27.2305C-18.9022 20.0738 -17.8983 12.4483 -14.1937 6.03177C-14.0909 5.85361 -13.9906 5.67986 -13.889 5.50391C-21.1281 18.7586 -15.7218 34.182 -2.57141 41.7744C10.5789 49.3668 26.6369 46.3357 34.4985 33.4404C34.3969 33.6164 34.2966 33.7901 34.1937 33.9683Z" fill="#7623A8"/>
<path d="M30.8524 15.8822C27.6311 19.0748 24.4674 22.3203 21.3361 25.5942C19.7051 25.0337 18.0012 24.3626 16.2773 23.5823C19.4952 20.0653 22.7169 16.5503 25.9788 13.0586L30.8524 15.8822Z" fill="url(#paint4_linear_4819_22443)"/>
<path d="M21.3402 25.5839C18.078 29.0168 14.8199 32.4765 11.5838 35.9489C10.1086 35.6107 8.66317 35.1537 7.26172 34.5823C8.43697 29.9738 9.64437 25.3774 10.8839 20.793C12.2215 21.5653 13.5442 22.2703 14.8541 22.9044C14.5949 23.9177 14.3449 24.9347 14.1041 25.9554C14.8304 25.1629 15.5615 24.3536 16.2815 23.5721C18.0054 24.3524 19.6983 25.0171 21.3402 25.5839Z" fill="url(#paint5_linear_4819_22443)"/>
<path d="M14.8494 22.9136C13.5395 22.2795 12.2037 21.5718 10.8792 20.8022C11.2702 19.3406 11.6643 17.8823 12.0613 16.4273C11.0121 17.4829 9.96094 18.539 8.90787 19.5956C7.61297 18.7747 6.39534 17.93 5.24707 17.0667C8.69039 13.7433 12.096 10.3835 15.4929 7.01367L18.498 8.74866C17.2556 13.4649 16.0263 18.1839 14.8494 22.9136Z" fill="url(#paint6_linear_4819_22443)"/>
<path d="M8.91221 19.5882C5.54457 22.9668 2.15289 26.3249 -1.26285 29.6626C-2.45845 28.7347 -3.57696 27.7114 -4.60742 26.6029C-3.15439 21.8519 -1.71658 17.1018 -0.326424 12.3242C0.946214 13.5476 2.34319 14.7842 3.87256 15.9945L2.78706 19.4235C3.61146 18.6388 4.43432 17.8483 5.2514 17.0593C6.40334 17.9247 7.61731 18.7673 8.91221 19.5882Z" fill="url(#paint7_linear_4819_22443)"/>
<path d="M3.86987 16.0036C2.34051 14.7932 0.943536 13.5567 -0.329102 12.3333C0.879367 8.20331 2.03596 4.05315 3.14068 -0.117188L8.01846 2.699C6.66337 7.14501 5.26951 11.5735 3.86987 16.0036Z" fill="url(#paint8_linear_4819_22443)"/>
</g>
<g opacity="0.3">
<path d="M137.874 82.9984C137.874 104.983 119.985 122.872 98.0004 122.872C76.0156 122.872 58.127 104.983 58.127 82.9984C58.1262 81.1189 58.2582 79.2416 58.5219 77.3807C61.2586 58.044 77.9194 43.125 98.0004 43.125C118.041 43.125 134.679 57.9858 137.461 77.2718C137.737 79.1682 137.875 81.0821 137.874 82.9984Z" fill="url(#paint9_linear_4819_22443)"/>
<path d="M135.581 77.5068C134.166 67.7687 129.029 58.9592 121.25 52.9319C113.472 46.9045 103.659 44.1294 93.8758 45.1904C84.0929 46.2514 75.1029 51.0658 68.7975 58.6205C62.4921 66.1753 59.363 75.8813 60.0686 85.6963C60.7742 95.5113 65.2595 104.67 72.5806 111.245C79.9018 117.82 89.488 121.299 99.3221 120.95C109.156 120.601 118.472 116.45 125.308 109.373C132.144 102.295 135.968 92.8408 135.976 83.0004C135.977 81.1621 135.845 79.326 135.581 77.5068ZM98.0011 55.1523C104.744 55.1623 111.256 57.6153 116.329 62.0572C121.403 66.4992 124.695 72.629 125.596 79.3118C125.739 80.3331 125.824 81.3618 125.849 82.3929C125.49 97.4435 113.138 108.064 98.0011 108.064C82.8644 108.064 70.51 97.4435 70.153 82.3929C70.1753 81.4106 70.2505 80.4303 70.3784 79.4561C71.248 72.7424 74.5303 66.5743 79.6129 62.1023C84.6955 57.6304 91.2313 55.1602 98.0011 55.1523Z" fill="#FEBC2A"/>
<path d="M125.849 82.3871C125.489 97.4377 113.137 108.058 98.0004 108.058C82.8637 108.058 70.5093 97.4377 70.1523 82.3871C70.1746 81.4049 70.2498 80.4245 70.3777 79.4504C71.2435 72.7511 74.5149 66.5949 79.5824 62.1284C84.65 57.6619 91.1683 55.1896 97.9233 55.172C104.678 55.1543 111.209 57.5925 116.3 62.0325C121.391 66.4724 124.695 72.6114 125.595 79.3061C125.739 80.3274 125.823 81.3561 125.849 82.3871Z" fill="url(#paint10_linear_4819_22443)"/>
<path d="M113.73 79.3032L111.075 81.9106L106.396 86.5047L108.126 96.6705C108.15 96.8062 108.135 96.9457 108.084 97.0734C108.033 97.201 107.947 97.3116 107.836 97.3926C107.726 97.4736 107.595 97.5217 107.458 97.5314C107.322 97.5412 107.186 97.5122 107.065 97.4478L98.3403 92.8279C98.2354 92.7721 98.1185 92.743 97.9998 92.743C97.8811 92.743 97.7642 92.7721 97.6592 92.8279L88.9444 97.4399C88.8235 97.504 88.6872 97.5328 88.5508 97.523C88.4145 97.5131 88.2836 97.465 88.173 97.3842C88.0624 97.3033 87.9765 97.1928 87.9249 97.0653C87.8734 96.9378 87.8583 96.7983 87.8814 96.6626L89.6138 86.4968L85.0073 81.9899L82.2711 79.3032C82.1735 79.2071 82.1046 79.0855 82.072 78.952C82.0394 78.8186 82.0445 78.6786 82.0866 78.5479C82.1288 78.4172 82.2064 78.301 82.3106 78.2123C82.4148 78.1236 82.5416 78.0661 82.6766 78.0461L92.8126 76.563L97.3403 67.3112C97.4008 67.1879 97.4944 67.084 97.6104 67.0114C97.7264 66.9388 97.8603 66.9004 97.9968 66.9004C98.1334 66.9004 98.2673 66.9388 98.3833 67.0114C98.4993 67.084 98.5928 67.1879 98.6533 67.3112L103.181 76.563L113.315 78.0461C113.451 78.0645 113.579 78.121 113.684 78.209C113.79 78.2971 113.869 78.4132 113.912 78.5441C113.955 78.6751 113.961 78.8157 113.929 78.9498C113.897 79.084 113.828 79.2064 113.73 79.3032Z" fill="#F08B00"/>
<path d="M125.849 82.9982C125.849 90.384 122.915 97.4673 117.692 102.69C112.469 107.912 105.386 110.846 98.0004 110.846C90.6147 110.846 83.5314 107.912 78.3089 102.69C73.0863 97.4673 70.1523 90.384 70.1523 82.9982C70.1523 82.7932 70.1523 82.5932 70.1523 82.3906C70.5093 97.4413 82.8637 108.062 98.0004 108.062C113.137 108.062 125.489 97.4413 125.849 82.3906C125.849 82.5932 125.849 82.7932 125.849 82.9982Z" fill="#FBC652"/>
<path d="M113.73 78.188L111.075 80.7953L106.396 85.3895L108.126 95.5553C108.15 95.6909 108.135 95.8305 108.084 95.9581C108.033 96.0858 107.947 96.1964 107.836 96.2774C107.726 96.3583 107.595 96.4065 107.458 96.4162C107.322 96.426 107.186 96.397 107.065 96.3326L98.3403 91.7127C98.2354 91.6569 98.1185 91.6278 97.9998 91.6278C97.8811 91.6278 97.7642 91.6569 97.6592 91.7127L88.9444 96.3247C88.8235 96.3888 88.6872 96.4176 88.5508 96.4077C88.4145 96.3979 88.2836 96.3498 88.173 96.2689C88.0624 96.1881 87.9765 96.0776 87.9249 95.9501C87.8734 95.8226 87.8583 95.6831 87.8814 95.5474L89.6138 85.3816L85.0073 80.8747L82.2711 78.188C82.1735 78.0919 82.1046 77.9703 82.072 77.8368C82.0394 77.7034 82.0445 77.5634 82.0866 77.4327C82.1288 77.302 82.2064 77.1858 82.3106 77.0971C82.4148 77.0084 82.5416 76.9509 82.6766 76.9309L92.8126 75.4477L97.3403 66.196C97.4008 66.0726 97.4944 65.9688 97.6104 65.8962C97.7264 65.8236 97.8603 65.7852 97.9968 65.7852C98.1334 65.7852 98.2673 65.8236 98.3833 65.8962C98.4993 65.9688 98.5928 66.0726 98.6533 66.196L103.181 75.4477L113.315 76.9309C113.451 76.9493 113.579 77.0058 113.684 77.0938C113.79 77.1819 113.869 77.298 113.912 77.4289C113.955 77.5599 113.961 77.7004 113.929 77.8346C113.897 77.9688 113.828 78.0912 113.73 78.188Z" fill="url(#paint11_linear_4819_22443)"/>
<path opacity="0.48" d="M89.4045 85.2949L86.7764 82.7306C86.6878 82.645 86.6307 82.5319 86.6143 82.4096C86.5978 82.2874 86.6231 82.1632 86.6859 82.0571C86.7488 81.9511 86.8455 81.8693 86.9606 81.8252C87.0756 81.781 87.2021 81.777 87.3197 81.8137C90.8 82.8815 94.4213 83.4177 98.0613 83.4041C101.664 83.3889 105.244 82.8343 108.683 81.7587C108.801 81.7225 108.927 81.7268 109.042 81.7709C109.157 81.8151 109.253 81.8965 109.316 82.0022C109.38 82.1079 109.405 82.2317 109.39 82.3538C109.374 82.4759 109.318 82.5892 109.231 82.6757L106.546 85.2949C106.482 85.3571 106.434 85.434 106.407 85.5189C106.38 85.6037 106.373 85.694 106.389 85.7818L108.064 95.5636C108.087 95.6979 108.073 95.8361 108.022 95.9625C107.97 96.0889 107.885 96.1984 107.775 96.2786C107.665 96.3588 107.534 96.4064 107.399 96.4161C107.263 96.4258 107.127 96.3971 107.007 96.3333L98.3143 91.7585C98.2097 91.7033 98.0933 91.6744 97.975 91.6744C97.8568 91.6744 97.7404 91.7033 97.6358 91.7585L88.9534 96.3254C88.8329 96.3889 88.6971 96.4174 88.5612 96.4077C88.4254 96.3979 88.295 96.3503 88.1848 96.2703C88.0746 96.1902 87.989 96.0808 87.9377 95.9545C87.8863 95.8283 87.8713 95.6901 87.8943 95.5558L89.5712 85.774C89.584 85.6866 89.5756 85.5974 89.5466 85.5139C89.5175 85.4305 89.4688 85.3554 89.4045 85.2949Z" fill="url(#paint12_linear_4819_22443)"/>
<path opacity="0.3" d="M70.1533 82.1391C70.1533 74.7533 73.0873 67.6701 78.3098 62.4475C83.5324 57.225 90.6156 54.291 98.0014 54.291C105.387 54.291 112.471 57.225 117.693 62.4475C122.916 67.6701 125.85 74.7533 125.85 82.1391C125.85 82.3442 125.85 82.5442 125.85 82.7467C125.493 67.6961 113.138 57.0758 98.0014 57.0758C82.8647 57.0758 70.5128 67.6961 70.1533 82.7467C70.1533 82.5442 70.1533 82.3442 70.1533 82.1391Z" fill="#F68A03"/>
</g>
</g>
<defs>
<linearGradient id="paint0_linear_4819_22443" x1="9.58631" y1="-27.0232" x2="9.58631" y2="65.1844" gradientUnits="userSpaceOnUse">
<stop stop-color="#811CDE"/>
<stop offset="0.677083" stop-color="#450F77"/>
<stop offset="1" stop-color="#100755"/>
</linearGradient>
<linearGradient id="paint1_linear_4819_22443" x1="9.58539" y1="-6.71826" x2="9.58539" y2="46.1674" gradientUnits="userSpaceOnUse">
<stop stop-color="#671F91"/>
<stop offset="0.807292" stop-color="#450F77"/>
</linearGradient>
<linearGradient id="paint2_linear_4819_22443" x1="33.3782" y1="-20.491" x2="-12.872" y2="59.6166" gradientUnits="userSpaceOnUse">
<stop stop-color="#811CDE"/>
<stop offset="0.677083" stop-color="#450F77"/>
<stop offset="1" stop-color="#100755"/>
</linearGradient>
<linearGradient id="paint3_linear_4819_22443" x1="23.1923" y1="-2.85074" x2="-3.33438" y2="43.0949" gradientUnits="userSpaceOnUse">
<stop stop-color="#671F91"/>
<stop offset="0.807292" stop-color="#450F77"/>
</linearGradient>
<linearGradient id="paint4_linear_4819_22443" x1="27.0581" y1="13.6818" x2="20.0758" y2="25.7754" gradientUnits="userSpaceOnUse">
<stop stop-color="#CE99FE"/>
<stop offset="1" stop-color="white"/>
</linearGradient>
<linearGradient id="paint5_linear_4819_22443" x1="16.3818" y1="22.7212" x2="8.96582" y2="35.5661" gradientUnits="userSpaceOnUse">
<stop stop-color="#CE99FE"/>
<stop offset="1" stop-color="white"/>
</linearGradient>
<linearGradient id="paint6_linear_4819_22443" x1="17.0284" y1="7.90021" x2="9.90427" y2="20.2396" gradientUnits="userSpaceOnUse">
<stop stop-color="#CE99FE"/>
<stop offset="1" stop-color="white"/>
</linearGradient>
<linearGradient id="paint7_linear_4819_22443" x1="4.71077" y1="15.2324" x2="-3.03109" y2="28.6417" gradientUnits="userSpaceOnUse">
<stop stop-color="#CE99FE"/>
<stop offset="1" stop-color="white"/>
</linearGradient>
<linearGradient id="paint8_linear_4819_22443" x1="6.90438" y1="2.05578" x2="0.106181" y2="13.8306" gradientUnits="userSpaceOnUse">
<stop stop-color="#CE99FE"/>
<stop offset="1" stop-color="white"/>
</linearGradient>
<linearGradient id="paint9_linear_4819_22443" x1="98.0004" y1="36.3908" x2="98.0004" y2="128.598" gradientUnits="userSpaceOnUse">
<stop stop-color="#FFDD5D"/>
<stop offset="0.786458" stop-color="#FBB03B"/>
<stop offset="1" stop-color="#F8A201"/>
</linearGradient>
<linearGradient id="paint10_linear_4819_22443" x1="98.0004" y1="55.1719" x2="98.0004" y2="108.058" gradientUnits="userSpaceOnUse">
<stop stop-color="#F78C02"/>
<stop offset="0.64527" stop-color="#F8A201"/>
</linearGradient>
<linearGradient id="paint11_linear_4819_22443" x1="98.0001" y1="65.7852" x2="98.0001" y2="96.4181" gradientUnits="userSpaceOnUse">
<stop stop-color="#FFF9E6"/>
<stop offset="1" stop-color="#FFC000"/>
</linearGradient>
<linearGradient id="paint12_linear_4819_22443" x1="98.0045" y1="82.5422" x2="98.0045" y2="93.3449" gradientUnits="userSpaceOnUse">
<stop stop-color="#FBC652"/>
<stop offset="0.79" stop-color="#FBB03B"/>
</linearGradient>
</defs>
</svg>
