<svg width="375" height="96" viewBox="0 0 375 96" fill="none" xmlns="http://www.w3.org/2000/svg">
<rect width="375" height="96" fill="url(#paint0_linear_753_5216)"/>
<mask id="mask0_753_5216" style="mask-type:alpha" maskUnits="userSpaceOnUse" x="0" y="0" width="375" height="96">
<rect width="375" height="96" fill="white"/>
</mask>
<g mask="url(#mask0_753_5216)">
<g opacity="0.3">
<mask id="mask1_753_5216" style="mask-type:alpha" maskUnits="userSpaceOnUse" x="38" y="23" width="96" height="82">
<path d="M95.0661 102.147L129.576 79.6422C133.002 77.4086 134.255 72.8991 132.375 69.1904L113.24 30.8388C112.028 28.4366 109.689 26.7508 107.057 26.4558L85.4569 23.8007C81.5715 23.3371 77.6024 24.3064 74.3854 26.6244L42.2155 49.5932C39.0403 51.869 37.9123 56.0834 39.5835 59.6657L58.1752 99.6188C59.5539 102.527 62.4784 104.381 65.6954 104.255L90.93 103.454C92.3922 103.37 93.8127 102.948 95.0661 102.147Z" fill="#FF9592"/>
</mask>
<g mask="url(#mask1_753_5216)">
<path d="M79.5154 23.0873L111.673 27.0438L136.17 75.7012L104.981 74.9435L79.5154 23.0873Z" fill="url(#paint1_linear_753_5216)"/>
<path opacity="0.7" d="M122.027 65.5569C120.638 62.7789 120.933 60.5901 122.617 60.7164C124.3 60.8006 126.784 63.1156 128.173 65.8515C129.562 68.5874 129.309 70.7762 127.626 70.692C125.9 70.692 123.416 68.3349 122.027 65.5569Z" fill="white"/>
<path opacity="0.7" d="M87.8915 33.7374C86.5025 30.8753 86.9234 28.7707 88.8175 28.9811C90.7116 29.1916 93.3213 31.675 94.7103 34.4951C96.0993 37.3152 95.7205 39.4618 93.8685 39.2514C91.9744 39.083 89.3226 36.5996 87.8915 33.7374Z" fill="white"/>
<path d="M104.98 74.9435L136.17 75.7012L93.4052 103.313L60.4058 104.365L104.98 74.9435Z" fill="url(#paint2_linear_753_5216)"/>
<path d="M60.406 104.365L36.5403 53.5192L79.5153 23.0873L104.98 74.9435L60.406 104.365Z" fill="url(#paint3_linear_753_5216)"/>
<path d="M85.9981 74.0592C84.6091 71.1549 85.5351 67.4088 88.0185 65.7251C90.5439 64.0415 93.7008 65.0096 95.1319 67.9139C96.5209 70.8602 95.6369 74.6063 93.0694 76.29C90.5439 77.9736 87.3871 76.9634 85.9981 74.0592Z" fill="white"/>
<path d="M45.9688 60.9686C44.664 58.1485 45.5479 54.5707 47.905 52.8871C50.2621 51.2034 53.2506 52.1294 54.5554 54.9496C55.8602 57.7697 54.9763 61.3895 52.6192 63.0731C50.22 64.7147 47.2736 63.7887 45.9688 60.9686Z" fill="white"/>
<path d="M52.9134 76.0804C51.6085 73.2603 52.4925 69.5983 54.8496 67.9568C57.2488 66.3152 60.2793 67.2412 61.5841 70.1034C62.9311 72.9656 62.0471 76.6275 59.6059 78.2691C57.2488 79.9107 54.2182 78.9426 52.9134 76.0804Z" fill="white"/>
<path d="M78.5896 58.4855C77.2427 55.6233 78.1266 51.9193 80.61 50.1936C83.0933 48.4678 86.2081 49.3938 87.5971 52.2981C88.9861 55.2024 88.0601 58.9064 85.5767 60.6322C83.0933 62.3158 79.9786 61.3477 78.5896 58.4855Z" fill="white"/>
<path d="M71.3495 43.2059C70.0026 40.3858 70.8865 36.6817 73.3278 34.956C75.7691 33.2303 78.8838 34.1142 80.2307 36.9343C81.6198 39.7965 80.6937 43.5005 78.2104 45.2262C75.7691 46.952 72.6964 46.026 71.3495 43.2059Z" fill="white"/>
<path d="M59.9432 91.4854C58.6384 88.6232 59.4802 84.9612 61.9215 83.3197C64.3628 81.6781 67.3934 82.6883 68.7403 85.5926C70.0872 88.4969 69.2033 92.1588 66.762 93.8004C64.3207 95.3998 61.2901 94.3896 59.9432 91.4854Z" fill="white"/>
<path opacity="0.7" d="M115.713 84.5829C113.945 84.625 114.493 83.4044 116.934 81.8049C119.417 80.2475 122.869 78.9427 124.637 78.9006C126.404 78.8585 125.815 80.1213 123.332 81.6786C120.89 83.2781 117.481 84.5408 115.713 84.5829Z" fill="white"/>
<path opacity="0.7" d="M69.9603 101.714C68.0241 101.798 68.445 100.619 70.8863 99.0197C73.3697 97.4623 76.9054 96.1154 78.8415 96.0312C80.7356 95.947 80.3147 97.1677 77.8314 98.7251C75.4322 100.282 71.8965 101.629 69.9603 101.714Z" fill="white"/>
<path opacity="0.7" d="M93.153 92.9589C91.301 93.001 91.764 91.8224 94.2474 90.2229C96.7307 88.6656 100.224 87.3187 102.076 87.2766C103.886 87.2345 103.381 88.4551 100.94 90.0125C98.4565 91.612 95.005 92.9168 93.153 92.9589Z" fill="white"/>
</g>
</g>
<g opacity="0.5">
<mask id="mask2_753_5216" style="mask-type:alpha" maskUnits="userSpaceOnUse" x="238" y="-1" width="121" height="103">
<path d="M310.332 1.92813L354.256 30.5731C358.617 33.4161 360.212 39.1558 357.819 43.8763L333.464 92.6907C331.922 95.7483 328.944 97.894 325.594 98.2695L298.101 101.649C293.156 102.239 288.104 101.005 284.009 98.055L243.063 68.82C239.022 65.9233 237.586 60.5591 239.713 55.9995L263.377 5.14667C265.131 1.44535 268.854 -0.914903 272.949 -0.753976L305.067 0.265226C306.929 0.37251 308.737 0.908932 310.332 1.92813Z" fill="#FF9592"/>
</mask>
<g mask="url(#mask2_753_5216)">
<path d="M290.539 102.558L331.469 97.5216L362.65 35.5898L322.951 36.5542L290.539 102.558Z" fill="url(#paint4_linear_753_5216)"/>
<path opacity="0.7" d="M344.649 48.501C342.881 52.0368 343.256 54.8227 345.399 54.662C347.542 54.5548 350.703 51.6083 352.471 48.1259C354.239 44.6436 353.917 41.8578 351.774 41.9649C349.578 41.9649 346.417 44.9651 344.649 48.501Z" fill="white"/>
<path opacity="0.7" d="M301.2 89.0022C299.432 92.6452 299.968 95.3239 302.379 95.056C304.79 94.7882 308.111 91.6273 309.879 88.0378C311.647 84.4484 311.165 81.7161 308.808 81.984C306.397 82.1983 303.022 85.3591 301.2 89.0022Z" fill="white"/>
<path d="M322.951 36.5538L362.649 35.5895L308.218 0.444823L266.216 -0.894531L322.951 36.5538Z" fill="url(#paint5_linear_753_5216)"/>
<path d="M266.216 -0.894531L235.84 63.8231L290.539 102.557L322.951 36.5538L266.216 -0.894531Z" fill="url(#paint6_linear_753_5216)"/>
<path d="M298.79 37.6782C297.022 41.3748 298.201 46.1429 301.362 48.2859C304.576 50.4288 308.594 49.1966 310.416 45.5C312.184 41.7498 311.059 36.9817 307.791 34.8387C304.576 32.6958 300.558 33.9816 298.79 37.6782Z" fill="white"/>
<path d="M247.84 54.3404C246.179 57.9299 247.304 62.4837 250.305 64.6266C253.305 66.7696 257.109 65.591 258.769 62.0015C260.43 58.412 259.305 53.8047 256.305 51.6617C253.251 49.5723 249.501 50.7509 247.84 54.3404Z" fill="white"/>
<path d="M256.679 35.1066C255.019 38.6961 256.144 43.357 259.144 45.4464C262.198 47.5358 266.055 46.3572 267.716 42.7141C269.43 39.0711 268.305 34.4101 265.198 32.3208C262.198 30.2314 258.34 31.4636 256.679 35.1066Z" fill="white"/>
<path d="M289.36 57.5017C287.646 61.1448 288.771 65.8593 291.932 68.0558C295.093 70.2524 299.057 69.0737 300.825 65.3771C302.593 61.6805 301.414 56.966 298.254 54.7694C295.093 52.6265 291.128 53.8587 289.36 57.5017Z" fill="white"/>
<path d="M280.145 76.95C278.431 80.5394 279.556 85.254 282.663 87.4505C285.771 89.647 289.735 88.522 291.449 84.9325C293.217 81.2895 292.039 76.575 288.878 74.3784C285.771 72.1819 281.86 73.3605 280.145 76.95Z" fill="white"/>
<path d="M265.627 15.4993C263.966 19.1423 265.038 23.8033 268.145 25.8927C271.252 27.9821 275.11 26.6963 276.824 22.9997C278.539 19.303 277.413 14.6421 274.306 12.5527C271.199 10.5169 267.342 11.8027 265.627 15.4993Z" fill="white"/>
<path opacity="0.7" d="M336.612 24.2845C334.362 24.231 335.058 25.7846 338.166 27.8204C341.326 29.8027 345.72 31.4635 347.97 31.5171C350.22 31.5706 349.47 29.9634 346.309 27.9812C343.202 25.9453 338.862 24.3381 336.612 24.2845Z" fill="white"/>
<path opacity="0.7" d="M278.377 2.48098C275.913 2.37384 276.448 3.87391 279.556 5.90973C282.716 7.89197 287.217 9.60635 289.681 9.7135C292.092 9.82065 291.556 8.26699 288.395 6.28475C285.342 4.30251 280.841 2.58813 278.377 2.48098Z" fill="white"/>
<path opacity="0.7" d="M307.897 13.6225C305.54 13.5689 306.129 15.069 309.29 17.1048C312.451 19.087 316.897 20.8014 319.255 20.855C321.558 20.9086 320.915 19.3549 317.808 17.3727C314.647 15.3369 310.254 13.6761 307.897 13.6225Z" fill="white"/>
</g>
</g>
</g>
<defs>
<linearGradient id="paint0_linear_753_5216" x1="-27.5229" y1="75.4285" x2="416.332" y2="54.6594" gradientUnits="userSpaceOnUse">
<stop stop-color="#E66E60"/>
<stop offset="1" stop-color="#D82A88"/>
</linearGradient>
<linearGradient id="paint1_linear_753_5216" x1="107.843" y1="75.7012" x2="107.843" y2="-6.55188" gradientUnits="userSpaceOnUse">
<stop stop-color="#13052D"/>
<stop offset="1" stop-color="#5A18C9"/>
</linearGradient>
<linearGradient id="paint2_linear_753_5216" x1="98.2878" y1="104.365" x2="98.2878" y2="58.3693" gradientUnits="userSpaceOnUse">
<stop stop-color="#13052D"/>
<stop offset="1" stop-color="#5A18C9"/>
</linearGradient>
<linearGradient id="paint3_linear_753_5216" x1="70.7604" y1="104.365" x2="70.7604" y2="-22.6993" gradientUnits="userSpaceOnUse">
<stop stop-color="#13052D"/>
<stop offset="1" stop-color="#5A18C9"/>
</linearGradient>
<linearGradient id="paint4_linear_753_5216" x1="326.594" y1="35.5898" x2="326.594" y2="140.283" gradientUnits="userSpaceOnUse">
<stop stop-color="#13052D"/>
<stop offset="1" stop-color="#5A18C9"/>
</linearGradient>
<linearGradient id="paint5_linear_753_5216" x1="314.432" y1="-0.894531" x2="314.432" y2="57.6497" gradientUnits="userSpaceOnUse">
<stop stop-color="#13052D"/>
<stop offset="1" stop-color="#5A18C9"/>
</linearGradient>
<linearGradient id="paint6_linear_753_5216" x1="279.395" y1="-0.894531" x2="279.395" y2="160.835" gradientUnits="userSpaceOnUse">
<stop stop-color="#13052D"/>
<stop offset="1" stop-color="#5A18C9"/>
</linearGradient>
</defs>
</svg>
