<svg width="80" height="80" viewBox="0 0 80 80" fill="none" xmlns="http://www.w3.org/2000/svg">
<path d="M80 40C80 62.0546 62.0546 80 40 80C17.9454 80 3.147e-06 62.0546 3.147e-06 40C-0.000744284 38.1145 0.131649 36.2313 0.396194 34.3644C3.14159 14.9664 19.8552 0 40 0C60.1041 0 76.7949 14.9079 79.586 34.2552C79.863 36.1576 80.0014 38.0776 80 40Z" fill="url(#paint0_linear_5548_6289)"/>
<path d="M12.0625 40.9149C12.4232 56.0133 24.8143 66.6673 39.999 66.6673C55.1838 66.6673 67.5775 56.0133 67.9355 40.9149C67.9133 39.9295 67.8378 38.9461 67.7095 37.9689C66.8409 31.2483 63.5592 25.0726 58.4755 20.5919C53.3919 16.1112 46.8529 13.6311 40.0765 13.6134C33.3001 13.5957 26.7482 16.0416 21.6412 20.4957C16.5342 24.9497 13.2202 31.1082 12.3165 37.8241C12.1727 38.8486 12.0879 39.8806 12.0625 40.9149Z" fill="url(#paint1_linear_5548_6289)"/>
<path d="M12.0625 39.1366C12.0625 31.7273 15.0058 24.6216 20.245 19.3825C25.4841 14.1434 32.5898 11.2001 39.999 11.2001C47.4083 11.2001 54.514 14.1434 59.7531 19.3825C64.9922 24.6216 67.9355 31.7273 67.9355 39.1366C67.9355 39.3423 67.9355 39.5429 67.9355 39.7461C67.5775 24.6477 55.1838 13.9937 39.999 13.9937C24.8143 13.9937 12.4232 24.6477 12.0625 39.7461C12.0625 39.5429 12.0625 39.3423 12.0625 39.1366Z" fill="#200E47"/>
<path d="M77.6988 34.489C76.2794 24.72 71.1259 15.8825 63.3228 9.83605C55.5197 3.78959 45.6754 1.00565 35.8614 2.07002C26.0474 3.13438 17.0288 7.96406 10.7034 15.5428C4.37804 23.1215 1.239 32.8584 1.94684 42.7045C2.65467 52.5507 7.15418 61.7384 14.4986 68.3344C21.843 74.9305 31.4596 78.4205 41.325 78.0701C51.1903 77.7197 60.5352 73.5563 67.3931 66.4559C74.2511 59.3554 78.0875 49.8717 78.095 40.0001C78.0965 38.1559 77.9641 36.314 77.6988 34.489ZM39.9998 12.0636C46.7645 12.0735 53.2964 14.5344 58.3861 18.9904C63.4757 23.4464 66.7783 29.5958 67.6823 36.2998C67.8262 37.3243 67.911 38.3563 67.9363 39.3906C67.5757 54.489 55.1846 65.1429 39.9998 65.1429C24.815 65.1429 12.4214 54.489 12.0633 39.3906C12.0856 38.4052 12.161 37.4218 12.2893 36.4445C13.1617 29.7095 16.4544 23.5218 21.5532 19.0357C26.6519 14.5495 33.2085 12.0714 39.9998 12.0636Z" fill="#450F77"/>
<path d="M67.9355 40.0001C67.9355 47.4094 64.9922 54.5151 59.7531 59.7542C54.514 64.9933 47.4082 67.9367 39.999 67.9367C32.5898 67.9367 25.484 64.9933 20.2449 59.7542C15.0058 54.5151 12.0625 47.4094 12.0625 40.0001C12.0625 39.7944 12.0625 39.5938 12.0625 39.3906C12.4206 54.489 24.8142 65.143 39.999 65.143C55.1838 65.143 67.5749 54.489 67.9355 39.3906C67.9355 39.5938 67.9355 39.7944 67.9355 40.0001Z" fill="#7623A8"/>
<g clip-path="url(#clip0_5548_6289)">
<path d="M55.9998 26.0085C54.8065 30.384 53.6893 34.7765 52.6145 39.1775C50.9218 39.5075 49.1106 39.7784 47.2275 39.9646C48.2558 35.3097 49.2884 30.6549 50.3674 26L55.9998 26.0085Z" fill="url(#paint2_linear_5548_6289)"/>
<path d="M52.615 39.1699C51.5063 43.774 50.4145 48.3992 49.3481 53.0245C47.9015 53.4692 46.4212 53.7961 44.9218 54.002C43.6354 49.4233 42.3828 44.839 41.1641 40.249C42.7086 40.249 44.2066 40.1982 45.6581 40.0924C45.9402 41.0996 46.2322 42.1053 46.5341 43.1096C46.7668 42.0602 46.9953 40.9938 47.2281 39.957C49.1112 39.7708 50.9096 39.5 52.615 39.1699Z" fill="url(#paint3_linear_5548_6289)"/>
<path d="M45.6573 40.0993C44.2059 40.2051 42.6951 40.2601 41.1633 40.2559C40.7711 38.7946 40.3832 37.3346 39.9996 35.8761C39.6187 37.3149 39.2364 38.7551 38.8528 40.1967C37.3209 40.1332 35.844 40.0105 34.418 39.837C35.7383 35.2371 37.0078 30.6246 38.2646 26.0078H41.7346C43.0168 30.7134 44.3116 35.4148 45.6573 40.0993Z" fill="url(#paint4_linear_5548_6289)"/>
<path d="M38.8536 40.1891C37.6264 44.7988 36.3682 49.4029 35.0789 54.0013C33.5795 53.7954 32.0993 53.4685 30.6526 53.0238C29.5354 48.1827 28.4056 43.3502 27.2207 38.5176C28.9345 38.9407 30.7626 39.3131 32.6923 39.5967L33.4667 43.109C33.7883 42.0172 34.1057 40.9212 34.4188 39.8294C35.8491 40.0029 37.3217 40.1256 38.8536 40.1891Z" fill="url(#paint5_linear_5548_6289)"/>
<path d="M32.6919 39.6042C30.7622 39.3207 28.9341 38.9483 27.2203 38.5251C26.2019 34.3442 25.1284 30.1718 24 26.0078H29.6324C30.6818 30.5357 31.689 35.0678 32.6919 39.6042Z" fill="url(#paint6_linear_5548_6289)"/>
</g>
<defs>
<linearGradient id="paint0_linear_5548_6289" x1="40" y1="-6.75556" x2="40" y2="85.7448" gradientUnits="userSpaceOnUse">
<stop stop-color="#811CDE"/>
<stop offset="0.677083" stop-color="#450F77"/>
<stop offset="1" stop-color="#100755"/>
</linearGradient>
<linearGradient id="paint1_linear_5548_6289" x1="39.999" y1="13.6138" x2="39.999" y2="66.6673" gradientUnits="userSpaceOnUse">
<stop stop-color="#671F91"/>
<stop offset="0.807292" stop-color="#450F77"/>
</linearGradient>
<linearGradient id="paint2_linear_5548_6289" x1="51.6137" y1="26" x2="51.6137" y2="39.9646" gradientUnits="userSpaceOnUse">
<stop stop-color="#CE99FE"/>
<stop offset="1" stop-color="white"/>
</linearGradient>
<linearGradient id="paint3_linear_5548_6289" x1="46.8895" y1="39.1699" x2="46.8895" y2="54.002" gradientUnits="userSpaceOnUse">
<stop stop-color="#CE99FE"/>
<stop offset="1" stop-color="white"/>
</linearGradient>
<linearGradient id="paint4_linear_5548_6289" x1="40.0376" y1="26.0078" x2="40.0376" y2="40.2561" gradientUnits="userSpaceOnUse">
<stop stop-color="#CE99FE"/>
<stop offset="1" stop-color="white"/>
</linearGradient>
<linearGradient id="paint5_linear_5548_6289" x1="33.0372" y1="38.5176" x2="33.0372" y2="54.0013" gradientUnits="userSpaceOnUse">
<stop stop-color="#CE99FE"/>
<stop offset="1" stop-color="white"/>
</linearGradient>
<linearGradient id="paint6_linear_5548_6289" x1="28.3459" y1="26.0078" x2="28.3459" y2="39.6042" gradientUnits="userSpaceOnUse">
<stop stop-color="#CE99FE"/>
<stop offset="1" stop-color="white"/>
</linearGradient>
<clipPath id="clip0_5548_6289">
<rect width="32" height="28.0011" fill="white" transform="translate(24 26)"/>
</clipPath>
</defs>
</svg>
