<svg width="300" height="300" viewBox="0 0 300 300" fill="none" xmlns="http://www.w3.org/2000/svg">
<g clip-path="url(#clip0_1430_1902)">
<g filter="url(#filter0_ii_1430_1902)">
<circle r="150" transform="matrix(1 0 0 -1 150 150)" fill="url(#paint0_radial_1430_1902)"/>
</g>
<g filter="url(#filter1_ii_1430_1902)">
<circle r="125" transform="matrix(1 0 0 -1 150 150)" fill="url(#paint1_linear_1430_1902)"/>
</g>
<path d="M286.956 211.284C275.118 237.707 255.89 260.142 231.589 275.883C207.289 291.624 178.953 300 150 300C121.046 300 92.7112 291.624 68.4105 275.883C44.1099 260.142 24.8815 237.707 13.0439 211.284C36.4799 171.492 88.9799 143.772 150 143.772C211.02 143.772 263.52 171.492 286.956 211.284Z" fill="url(#paint2_linear_1430_1902)"/>
<path d="M240.171 40.8149C240.134 40.7838 240.096 40.7527 240.058 40.7217L230.559 53.7909C230.596 53.8219 230.634 53.853 230.672 53.8841C230.696 53.9015 230.717 53.9226 230.741 53.9434C233.575 56.3272 236.299 58.8319 238.912 61.4576C238.937 61.4784 238.954 61.4995 238.974 61.5197C239.008 61.5533 239.041 61.5877 239.074 61.6213L251.281 51.0398C251.248 51.0059 251.216 50.972 251.182 50.9379C251.164 50.9154 251.143 50.8946 251.12 50.8757C247.669 47.3554 244.038 44.0156 240.242 40.8695C240.217 40.8531 240.196 40.8323 240.171 40.8149Z" fill="url(#paint3_linear_1430_1902)"/>
<path d="M252.033 51.8193C252 51.7839 251.964 51.7485 251.93 51.7134L241.004 63.6125C241.038 63.6483 241.072 63.6834 241.106 63.7191C241.13 63.7402 241.148 63.761 241.168 63.7812C243.712 66.4686 246.134 69.2665 248.434 72.1749C248.454 72.1953 248.472 72.2176 248.487 72.2414C248.518 72.279 248.545 72.3179 248.575 72.3555L261.911 63.2332C261.881 63.195 261.852 63.1561 261.822 63.1182C261.805 63.0937 261.787 63.0729 261.77 63.0521C258.743 59.1615 255.513 55.4324 252.095 51.8802C252.076 51.8582 252.056 51.8378 252.033 51.8193Z" fill="url(#paint4_linear_1430_1902)"/>
<path d="M271.648 77.4855C271.623 77.4429 271.596 77.401 271.571 77.3584L258.233 86.4748C258.258 86.517 258.284 86.559 258.309 86.6015C258.323 86.6261 258.34 86.654 258.351 86.6783C260.221 89.865 261.949 93.1376 263.534 96.4959C263.547 96.5238 263.558 96.5483 263.568 96.5763C263.589 96.6192 263.608 96.6627 263.628 96.7056L278.683 90.8408C278.664 90.7982 278.645 90.7554 278.624 90.7128C278.616 90.6842 278.603 90.6572 278.586 90.6326C276.522 86.1568 274.221 81.7939 271.693 77.5622C271.679 77.5358 271.664 77.5102 271.648 77.4855Z" fill="url(#paint5_linear_1430_1902)"/>
<path d="M137.058 25.1798C137.107 25.1749 137.155 25.169 137.204 25.1643C137.233 25.1599 137.262 25.1576 137.291 25.1572C140.945 24.787 144.642 24.5776 148.382 24.529H148.473C148.521 24.529 148.567 24.529 148.616 24.529L149.537 8.40297C149.488 8.40297 149.44 8.40297 149.393 8.40297C149.363 8.39953 149.332 8.39953 149.302 8.40297C144.37 8.42289 139.442 8.70133 134.539 9.23715C134.51 9.23699 134.48 9.24044 134.452 9.24741C134.404 9.25238 134.356 9.25859 134.308 9.26387L137.058 25.1798Z" fill="url(#paint6_linear_1430_1902)"/>
<path d="M275.152 140.917C275.158 140.946 275.16 140.975 275.159 141.004C275.372 143.974 275.479 146.973 275.48 150.001C275.48 150.696 275.473 151.39 275.459 152.085C275.462 152.114 275.462 152.143 275.459 152.172C275.459 152.219 275.457 152.265 275.456 152.314L291.554 153.693C291.554 153.646 291.557 153.598 291.559 153.551V153.463C291.586 152.312 291.6 151.16 291.6 150.001C291.6 146.201 291.451 142.436 291.154 138.708C291.155 138.679 291.153 138.651 291.147 138.624C291.143 138.573 291.138 138.523 291.134 138.473L275.141 140.769C275.145 140.819 275.148 140.867 275.152 140.917Z" fill="url(#paint7_linear_1430_1902)"/>
<path d="M273.32 126.702C273.327 126.73 273.331 126.759 273.334 126.789C274.011 130.397 274.53 134.057 274.89 137.768C274.895 137.797 274.897 137.826 274.897 137.856C274.902 137.903 274.906 137.95 274.911 137.998L291.058 137.533C291.053 137.486 291.05 137.44 291.046 137.391C291.045 137.362 291.043 137.333 291.039 137.304C290.604 132.398 289.912 127.518 288.966 122.684C288.962 122.655 288.956 122.626 288.948 122.597C288.939 122.549 288.929 122.5 288.92 122.452L273.292 126.556C273.301 126.605 273.311 126.653 273.32 126.702Z" fill="url(#paint8_linear_1430_1902)"/>
<path d="M166.76 9.38334C166.713 9.37744 166.665 9.37278 166.617 9.36719L165.691 25.4935C165.739 25.4994 165.787 25.5047 165.835 25.5109L165.922 25.5211C169.625 25.989 173.277 26.6172 176.877 27.4057C176.905 27.4095 176.933 27.4163 176.965 27.4235C177.011 27.4337 177.058 27.4452 177.104 27.4545L181.653 11.9514C181.606 11.9412 181.559 11.9291 181.512 11.9204C181.484 11.9126 181.454 11.9068 181.425 11.903C176.614 10.8087 171.747 9.97104 166.847 9.3936C166.819 9.38687 166.79 9.38342 166.76 9.38334Z" fill="url(#paint9_linear_1430_1902)"/>
<path d="M227.132 31.2346C227.092 31.2073 227.05 31.1818 227.008 31.1548L219.061 45.2219C219.102 45.2492 219.143 45.2756 219.185 45.303C219.21 45.3169 219.234 45.332 219.258 45.3483C222.35 47.397 225.343 49.5772 228.234 51.8888C228.258 51.9054 228.28 51.924 228.301 51.9445C228.339 51.9755 228.376 52.0066 228.414 52.0358L239.335 40.1326C239.297 40.1015 239.259 40.0705 239.221 40.0394C239.202 40.0189 239.179 40.0013 239.155 39.9869C235.329 36.8762 231.341 33.9697 227.209 31.2794C227.185 31.2611 227.16 31.246 227.132 31.2346Z" fill="url(#paint10_linear_1430_1902)"/>
<path d="M151.384 24.5293C151.433 24.5293 151.482 24.5293 151.53 24.5293H151.618C155.356 24.5746 159.054 24.784 162.712 25.1575C162.74 25.158 162.768 25.1604 162.796 25.1646C162.845 25.1693 162.894 25.1752 162.943 25.1801L165.694 9.26264C165.646 9.25766 165.598 9.25082 165.55 9.24616C165.521 9.2394 165.492 9.23597 165.463 9.23592C160.56 8.70051 155.632 8.42247 150.7 8.40297C150.671 8.39953 150.641 8.39953 150.613 8.40297C150.564 8.40297 150.514 8.40297 150.465 8.40297L151.384 24.5293Z" fill="url(#paint11_linear_1430_1902)"/>
<path d="M182.701 12.1949C182.654 12.1831 182.606 12.1731 182.558 12.1616L179.8 28.0794C179.848 28.0913 179.897 28.1012 179.944 28.113C179.973 28.1195 180.001 28.1276 180.028 28.1372C183.647 29.0239 187.202 30.0664 190.693 31.2646C190.722 31.2722 190.75 31.2815 190.777 31.2925C190.823 31.3081 190.868 31.3236 190.914 31.3401L197.201 16.4556C197.156 16.4397 197.111 16.4245 197.066 16.4074C197.039 16.3964 197.011 16.3871 196.983 16.3794C192.327 14.7398 187.588 13.3501 182.784 12.2163C182.758 12.2059 182.73 12.1987 182.701 12.1949Z" fill="url(#paint12_linear_1430_1902)"/>
<path d="M269.871 112.79C269.878 112.818 269.889 112.846 269.896 112.874C270.985 116.388 271.919 119.967 272.698 123.61C272.706 123.637 272.712 123.665 272.716 123.693C272.726 123.74 272.735 123.786 272.745 123.834L288.738 121.531C288.729 121.484 288.72 121.438 288.71 121.39L288.69 121.306C287.698 116.479 286.452 111.709 284.955 107.014C284.949 106.986 284.94 106.958 284.927 106.931C284.912 106.883 284.896 106.838 284.881 106.789L269.826 112.647C269.841 112.695 269.856 112.742 269.871 112.79Z" fill="url(#paint13_linear_1430_1902)"/>
<path d="M198.21 16.8207L198.072 16.771L193.517 32.2741C193.563 32.2915 193.61 32.3076 193.655 32.3247C193.683 32.3314 193.71 32.3419 193.736 32.3558C197.226 33.6505 200.638 35.0941 203.972 36.6867C204 36.7007 204.024 36.7147 204.052 36.7252C204.095 36.7457 204.138 36.7672 204.181 36.7874L212.122 22.7199C212.079 22.6991 212.036 22.6768 211.992 22.6578C211.966 22.6436 211.939 22.6307 211.912 22.6193C207.476 20.4576 202.929 18.5319 198.29 16.8502C198.264 16.8384 198.238 16.8285 198.21 16.8207Z" fill="url(#paint14_linear_1430_1902)"/>
<path d="M213.089 23.1927L212.956 23.1274L206.663 38.0123C206.706 38.0343 206.75 38.0555 206.793 38.0778C206.817 38.0881 206.845 38.1021 206.873 38.116C210.182 39.8018 213.404 41.6295 216.54 43.599C216.566 43.6116 216.591 43.6268 216.614 43.6443C216.654 43.6695 216.694 43.6956 216.734 43.7208L226.227 30.6488C226.187 30.623 226.147 30.596 226.107 30.5705C226.085 30.5533 226.061 30.5382 226.037 30.5251C221.878 27.8684 217.581 25.4336 213.165 23.2309C213.141 23.2169 213.113 23.2067 213.089 23.1927Z" fill="url(#paint15_linear_1430_1902)"/>
<path d="M262.574 64.0935C262.543 64.054 262.512 64.0149 262.483 63.9751L250.271 74.5532C250.302 74.593 250.333 74.6322 250.363 74.6719C250.38 74.6927 250.397 74.7173 250.415 74.7384C252.635 77.6942 254.723 80.7493 256.68 83.9035C256.696 83.9272 256.711 83.9516 256.725 83.9769C256.751 84.0179 256.775 84.0592 256.801 84.1011L271.088 76.559C271.063 76.518 271.039 76.4767 271.013 76.4347C271.001 76.4096 270.987 76.3851 270.971 76.3614C268.404 72.1531 265.619 68.0817 262.627 64.1637C262.612 64.1386 262.594 64.1151 262.574 64.0935Z" fill="url(#paint16_linear_1430_1902)"/>
<path d="M270.992 183.365C270.979 183.412 270.967 183.458 270.954 183.507C270.95 183.535 270.943 183.564 270.933 183.591C269.941 187.172 268.797 190.684 267.499 194.127C267.491 194.156 267.481 194.184 267.471 194.211C267.454 194.256 267.436 194.299 267.418 194.344L282.118 201.055C282.135 201.01 282.153 200.965 282.171 200.92C282.182 200.894 282.191 200.867 282.198 200.84C283.969 196.246 285.495 191.561 286.77 186.806C286.778 186.778 286.788 186.75 286.795 186.722C286.807 186.674 286.82 186.627 286.833 186.579L270.992 183.365Z" fill="url(#paint17_linear_1430_1902)"/>
<path d="M266.404 196.936C266.386 196.982 266.369 197.029 266.35 197.075C266.339 197.103 266.329 197.128 266.319 197.156C264.926 200.59 263.387 203.946 261.702 207.224C261.688 207.252 261.674 207.28 261.66 207.305C261.638 207.346 261.616 207.387 261.595 207.429L275.431 215.769C275.453 215.727 275.476 215.685 275.498 215.642C275.512 215.618 275.525 215.592 275.536 215.566C277.82 211.206 279.874 206.729 281.688 202.153L281.719 202.07C281.737 202.024 281.754 201.978 281.772 201.933L266.404 196.936Z" fill="url(#paint18_linear_1430_1902)"/>
<path d="M38.3417 207.302C38.3277 207.278 38.3137 207.253 38.2997 207.225C36.6177 203.951 35.0786 200.595 33.6824 197.157C33.6721 197.129 33.6616 197.104 33.6513 197.076C33.633 197.03 33.6156 196.983 33.597 196.937L18.2275 201.933C18.2456 201.979 18.263 202.024 18.281 202.07C18.291 202.099 18.3027 202.126 18.3158 202.154C20.1278 206.73 22.1806 211.207 24.4654 215.566C24.4767 215.593 24.4895 215.618 24.5036 215.643C24.526 215.685 24.549 215.727 24.571 215.77L38.4079 207.429C38.3861 207.386 38.3634 207.344 38.3417 207.302Z" fill="url(#paint19_linear_1430_1902)"/>
<path d="M275.377 155.096C275.375 155.145 275.374 155.194 275.372 155.244C275.372 155.275 275.369 155.303 275.369 155.334C275.215 159.058 274.899 162.738 274.419 166.373C274.42 166.403 274.416 166.432 274.409 166.461C274.403 166.507 274.396 166.554 274.39 166.601L290.224 169.806C290.23 169.76 290.238 169.713 290.243 169.668C290.25 169.639 290.255 169.61 290.257 169.581C290.933 164.704 291.353 159.795 291.517 154.874C291.521 154.845 291.521 154.816 291.517 154.787C291.519 154.737 291.52 154.687 291.522 154.638L275.377 155.096Z" fill="url(#paint20_linear_1430_1902)"/>
<path d="M273.995 169.356C273.987 169.405 273.981 169.455 273.973 169.505C273.97 169.533 273.965 169.561 273.959 169.588C273.383 173.263 272.649 176.884 271.757 180.449C271.753 180.478 271.746 180.506 271.736 180.533C271.724 180.58 271.712 180.626 271.7 180.673L287.073 185.665L287.109 185.528C287.116 185.497 287.123 185.468 287.13 185.44C288.357 180.672 289.335 175.844 290.058 170.974L290.069 170.89C290.077 170.841 290.083 170.791 290.09 170.742L273.995 169.356Z" fill="url(#paint21_linear_1430_1902)"/>
<path d="M32.5305 194.211C32.5196 194.184 32.5102 194.156 32.5026 194.127C31.2039 190.686 30.0592 187.174 29.0683 183.591C29.0579 183.564 29.0509 183.535 29.0475 183.507C29.0341 183.46 29.0217 183.414 29.0087 183.365L13.1704 186.577L13.2304 186.805C14.5058 191.56 16.032 196.245 17.8024 200.839C17.81 200.866 17.8194 200.893 17.8303 200.919C17.848 200.964 17.8654 201.009 17.8831 201.054L32.5824 194.343C32.565 194.3 32.5473 194.254 32.5305 194.211Z" fill="url(#paint22_linear_1430_1902)"/>
<path d="M28.2656 180.533C28.2553 180.506 28.2482 180.478 28.2444 180.45C27.3513 176.89 26.6174 173.269 26.0427 169.588C26.0362 169.561 26.0315 169.533 26.0287 169.505C26.0209 169.455 26.0138 169.405 26.0063 169.356L9.91113 170.742C9.91859 170.791 9.9248 170.841 9.93226 170.89C9.93567 170.918 9.9394 170.946 9.94282 170.974C10.6665 175.844 11.6439 180.672 12.871 185.44L12.93 185.664L28.3013 180.673C28.2895 180.626 28.2777 180.58 28.2656 180.533Z" fill="url(#paint23_linear_1430_1902)"/>
<path d="M27.2545 123.834C27.2648 123.787 27.2738 123.741 27.2837 123.693C27.2879 123.665 27.2939 123.637 27.3014 123.61C28.0798 119.97 29.0139 116.391 30.1038 112.874C30.1109 112.846 30.1215 112.819 30.1283 112.791C30.1432 112.743 30.1594 112.695 30.1737 112.647L15.118 106.789C15.1031 106.836 15.087 106.882 15.0721 106.931C15.0597 106.958 15.0503 106.986 15.0441 107.014C13.5478 111.709 12.3013 116.479 11.3097 121.306C11.3029 121.334 11.296 121.362 11.2889 121.39C11.2796 121.437 11.2706 121.483 11.2612 121.531L27.2545 123.834Z" fill="url(#paint24_linear_1430_1902)"/>
<path d="M25.0904 137.998C25.0951 137.95 25.0985 137.904 25.1032 137.856C25.1038 137.826 25.1062 137.797 25.1103 137.768C25.4697 134.058 25.9885 130.398 26.6668 126.789C26.6694 126.759 26.674 126.73 26.6808 126.702C26.6898 126.653 26.6998 126.605 26.7088 126.556L11.0815 122.452C11.0718 122.5 11.0619 122.549 11.0526 122.597C11.0452 122.626 11.0393 122.655 11.0352 122.684C10.0889 127.518 9.39685 132.398 8.962 137.304C8.95802 137.333 8.95575 137.362 8.95517 137.391C8.95082 137.439 8.94771 137.485 8.94336 137.533L25.0904 137.998Z" fill="url(#paint25_linear_1430_1902)"/>
<path d="M31.0301 110.008C31.0453 109.963 31.0596 109.918 31.0748 109.873C31.0854 109.845 31.0922 109.817 31.1028 109.789C32.2927 106.268 33.6329 102.82 35.1233 99.4435C35.1334 99.4161 35.1451 99.3892 35.1581 99.363C35.1783 99.3176 35.1991 99.2723 35.2202 99.2266L20.9289 91.6895C20.9087 91.7345 20.8869 91.7792 20.8667 91.8246C20.8519 91.8503 20.839 91.8771 20.8282 91.9048C18.803 96.3983 17.0169 100.996 15.4773 105.678C15.4664 105.705 15.457 105.733 15.4494 105.762C15.4342 105.807 15.4202 105.853 15.4053 105.898L31.0301 110.008Z" fill="url(#paint26_linear_1430_1902)"/>
<path d="M25.5918 166.461C25.5847 166.432 25.5812 166.403 25.5812 166.373C25.1069 162.74 24.7906 159.061 24.6321 155.334C24.6321 155.303 24.6287 155.275 24.6287 155.244C24.6265 155.194 24.6253 155.145 24.6234 155.096L8.47852 154.638C8.48069 154.687 8.48163 154.737 8.48381 154.787C8.48007 154.815 8.48007 154.845 8.48381 154.874C8.64771 159.795 9.06822 164.704 9.74362 169.581C9.74616 169.61 9.75083 169.639 9.75759 169.668C9.7635 169.714 9.77096 169.761 9.77717 169.806L25.6111 166.601C25.6055 166.554 25.598 166.507 25.5918 166.461Z" fill="url(#paint27_linear_1430_1902)"/>
<path d="M264.842 99.3645C264.856 99.3906 264.867 99.4175 264.877 99.4449C266.364 102.816 267.704 106.265 268.898 109.791C268.908 109.819 268.916 109.847 268.926 109.874C268.941 109.919 268.955 109.964 268.971 110.009L284.595 105.899C284.58 105.854 284.566 105.808 284.551 105.763C284.543 105.735 284.534 105.707 284.523 105.679C282.983 100.998 281.198 96.4007 279.173 91.9075C279.162 91.8795 279.148 91.8519 279.138 91.8273C279.117 91.7816 279.096 91.7366 279.076 91.6909L264.782 99.2293C264.801 99.2738 264.823 99.3191 264.842 99.3645Z" fill="url(#paint28_linear_1430_1902)"/>
<path d="M24.5419 152.172C24.5384 152.143 24.5384 152.114 24.5419 152.085C24.528 151.39 24.5209 150.696 24.5207 150.001C24.5207 146.975 24.6278 143.976 24.842 141.004C24.8409 140.976 24.8431 140.948 24.8488 140.92C24.8525 140.87 24.8569 140.82 24.8603 140.769L8.86641 138.473C8.86268 138.523 8.8574 138.573 8.85398 138.624C8.84832 138.651 8.84604 138.679 8.84716 138.708C8.55035 142.436 8.40143 146.2 8.40039 150.001C8.40039 151.16 8.41437 152.312 8.44234 153.463V153.551C8.44234 153.598 8.44575 153.646 8.44699 153.693L24.545 152.314C24.5443 152.266 24.5425 152.219 24.5419 152.172Z" fill="url(#paint29_linear_1430_1902)"/>
<path d="M109.089 31.3433C109.135 31.3281 109.18 31.3123 109.225 31.2964C109.252 31.2844 109.28 31.2741 109.308 31.2653C112.795 30.0682 116.35 29.0257 119.974 28.138C120.002 28.1284 120.032 28.1203 120.061 28.1138C120.108 28.1023 120.154 28.0923 120.202 28.0827L117.444 12.1611C117.397 12.1726 117.35 12.1823 117.304 12.1938C117.274 12.1973 117.245 12.2043 117.217 12.2146C112.413 13.3485 107.674 14.7382 103.018 16.3777C102.99 16.3854 102.962 16.3947 102.935 16.4057C102.89 16.4215 102.845 16.4368 102.8 16.4538L109.089 31.3433Z" fill="url(#paint30_linear_1430_1902)"/>
<path d="M170.002 273.893L169.857 273.917C169.828 273.923 169.799 273.928 169.77 273.931C166.158 274.503 162.497 274.917 158.787 275.174C158.758 275.18 158.729 275.182 158.7 275.181C158.651 275.184 158.602 275.187 158.553 275.19L158.556 291.346C158.604 291.343 158.652 291.341 158.7 291.338C158.729 291.338 158.758 291.337 158.787 291.334C163.692 291.034 168.579 290.48 173.428 289.676C173.459 289.67 173.487 289.666 173.515 289.659C173.563 289.651 173.611 289.642 173.659 289.634L170.002 273.893Z" fill="url(#paint31_linear_1430_1902)"/>
<path d="M155.76 275.348C155.711 275.35 155.663 275.353 155.614 275.355C155.585 275.358 155.556 275.359 155.527 275.358C153.695 275.441 151.853 275.482 150.002 275.481C148.151 275.479 146.308 275.439 144.474 275.358C144.445 275.359 144.415 275.358 144.386 275.355C144.338 275.353 144.289 275.35 144.24 275.348L142.402 291.397C142.45 291.4 142.499 291.404 142.547 291.406C142.576 291.41 142.605 291.412 142.635 291.413C145.074 291.538 147.53 291.601 150.002 291.601C152.474 291.601 154.929 291.538 157.365 291.413C157.394 291.412 157.423 291.41 157.452 291.406C157.501 291.404 157.549 291.4 157.598 291.397L155.76 275.348Z" fill="url(#paint32_linear_1430_1902)"/>
<path d="M109.534 285.734C109.58 285.748 109.628 285.761 109.672 285.774L113.335 270.036C113.289 270.021 113.242 270.008 113.195 269.993C113.168 269.987 113.141 269.979 113.115 269.969C109.574 268.884 106.1 267.646 102.694 266.256L102.61 266.225C102.565 266.206 102.519 266.187 102.474 266.168L95.3486 280.667L95.4869 280.726C95.5129 280.738 95.5398 280.748 95.5674 280.757C100.104 282.651 104.738 284.303 109.45 285.706C109.478 285.717 109.506 285.726 109.534 285.734Z" fill="url(#paint33_linear_1430_1902)"/>
<path d="M197.527 266.167C197.481 266.186 197.436 266.205 197.391 266.224C197.363 266.234 197.338 266.245 197.31 266.255C193.907 267.64 190.434 268.878 186.889 269.968C186.861 269.978 186.833 269.986 186.805 269.992C186.759 270.007 186.712 270.02 186.666 270.035L190.328 285.773C190.374 285.759 190.422 285.746 190.466 285.733C190.494 285.726 190.522 285.715 190.55 285.708C195.263 284.303 199.899 282.65 204.437 280.756C204.465 280.747 204.492 280.737 204.518 280.725C204.563 280.706 204.608 280.686 204.653 280.667L197.527 266.167Z" fill="url(#paint34_linear_1430_1902)"/>
<path d="M122.896 27.4564C122.943 27.4458 122.989 27.4337 123.038 27.4235C123.066 27.4163 123.094 27.4129 123.122 27.4057C126.717 26.6208 130.368 25.9926 134.077 25.5212L134.164 25.5109C134.212 25.5047 134.26 25.4994 134.308 25.4935L133.383 9.36719C133.335 9.37278 133.287 9.37744 133.239 9.38334C133.21 9.38337 133.181 9.38682 133.152 9.3936C128.252 9.97107 123.386 10.8087 118.574 11.903C118.546 11.9055 118.518 11.9113 118.49 11.9204C118.442 11.9309 118.395 11.9431 118.347 11.9539L122.896 27.4564Z" fill="url(#paint35_linear_1430_1902)"/>
<path d="M125.258 289.444L125.401 289.469L127.245 273.419C127.197 273.41 127.148 273.402 127.1 273.393C127.072 273.391 127.044 273.385 127.017 273.376C123.366 272.706 119.775 271.875 116.243 270.884C116.215 270.878 116.187 270.872 116.159 270.863V270.859C116.111 270.846 116.064 270.832 116.016 270.819L110.588 286.042C110.635 286.056 110.681 286.07 110.729 286.083C110.757 286.093 110.786 286.101 110.816 286.108C115.54 287.467 120.333 288.576 125.174 289.43C125.201 289.437 125.229 289.441 125.258 289.444Z" fill="url(#paint36_linear_1430_1902)"/>
<path d="M183.985 270.819C183.938 270.832 183.892 270.846 183.845 270.859V270.863C183.817 270.871 183.788 270.878 183.758 270.883C180.23 271.871 176.639 272.702 172.988 273.375C172.96 273.385 172.93 273.391 172.901 273.393C172.852 273.402 172.804 273.41 172.756 273.419L174.6 289.468C174.648 289.46 174.696 289.452 174.743 289.444C174.773 289.441 174.802 289.436 174.831 289.43C179.672 288.575 184.464 287.466 189.189 286.107C189.217 286.101 189.245 286.092 189.272 286.083L189.413 286.042L183.985 270.819Z" fill="url(#paint37_linear_1430_1902)"/>
<path d="M252.734 222.059C252.706 222.099 252.679 222.139 252.651 222.179C252.636 222.205 252.619 222.229 252.599 222.252C250.474 225.271 248.218 228.19 245.832 231.009C245.811 231.033 245.793 231.054 245.772 231.075C245.741 231.111 245.71 231.146 245.679 231.182L257.265 242.437L257.415 242.264C260.623 238.536 263.634 234.643 266.436 230.6L266.569 230.406L252.734 222.059Z" fill="url(#paint38_linear_1430_1902)"/>
<path d="M260.29 209.891C260.265 209.935 260.242 209.98 260.218 210.024C260.207 210.051 260.193 210.076 260.176 210.101C258.403 213.346 256.492 216.502 254.442 219.569C254.429 219.594 254.413 219.618 254.393 219.639C254.366 219.679 254.339 219.719 254.312 219.759L267.107 229.622L267.236 229.432C270.004 225.365 272.553 221.153 274.873 216.815C274.89 216.792 274.904 216.766 274.915 216.739C274.938 216.695 274.961 216.65 274.985 216.606L260.29 209.891Z" fill="url(#paint39_linear_1430_1902)"/>
<path d="M243.851 233.291C243.817 233.328 243.786 233.367 243.752 233.404C243.735 233.425 243.714 233.446 243.693 233.466C241.24 236.224 238.669 238.866 235.98 241.392L235.918 241.455C235.883 241.487 235.847 241.52 235.812 241.553L246.037 254.054C246.073 254.021 246.109 253.989 246.144 253.956C246.169 253.939 246.191 253.919 246.21 253.896C249.816 250.556 253.247 247.031 256.488 243.336L256.644 243.157L243.851 233.291Z" fill="url(#paint40_linear_1430_1902)"/>
<path d="M233.751 243.439C233.714 243.472 233.678 243.505 233.641 243.538C233.621 243.559 233.599 243.577 233.575 243.594C230.829 246.055 227.975 248.388 225.014 250.595C224.99 250.616 224.965 250.633 224.941 250.651C224.903 250.679 224.864 250.706 224.826 250.734L233.564 264.325C233.603 264.297 233.641 264.27 233.68 264.241L233.753 264.189C237.714 261.278 241.522 258.164 245.162 254.86C245.183 254.843 245.204 254.821 245.224 254.801C245.261 254.768 245.297 254.733 245.334 254.7L233.751 243.439Z" fill="url(#paint41_linear_1430_1902)"/>
<path d="M222.568 252.379C222.528 252.408 222.489 252.437 222.448 252.466C222.424 252.48 222.4 252.497 222.375 252.515C219.37 254.64 216.27 256.634 213.074 258.497C213.049 258.513 213.024 258.528 212.997 258.542C212.956 258.566 212.913 258.589 212.873 258.613L220.005 273.113C220.048 273.088 220.09 273.065 220.132 273.04C220.158 273.029 220.183 273.015 220.206 272.998C224.474 270.56 228.612 267.899 232.602 265.027C232.626 265.009 232.651 264.992 232.672 264.975C232.712 264.946 232.752 264.916 232.792 264.887L222.568 252.379Z" fill="url(#paint42_linear_1430_1902)"/>
<path d="M210.442 259.988C210.399 260.012 210.357 260.037 210.314 260.06C210.29 260.074 210.265 260.088 210.237 260.102C207.012 261.872 203.704 263.5 200.312 264.988C200.283 264.998 200.255 265.01 200.228 265.023C200.185 265.042 200.141 265.06 200.098 265.079L205.53 280.296C205.574 280.277 205.618 280.259 205.662 280.24C205.691 280.23 205.718 280.218 205.746 280.205C210.265 278.267 214.68 276.096 218.973 273.699C218.997 273.682 219.022 273.668 219.05 273.658C219.092 273.633 219.134 273.609 219.177 273.585L210.442 259.988Z" fill="url(#paint43_linear_1430_1902)"/>
<path d="M141.449 275.19C141.4 275.186 141.351 275.184 141.302 275.18C141.273 275.181 141.243 275.179 141.215 275.173C137.505 274.922 133.844 274.508 130.232 273.93C130.202 273.927 130.173 273.923 130.144 273.916L130 273.893L126.343 289.632L126.487 289.657C126.518 289.664 126.546 289.667 126.574 289.674C131.422 290.478 136.309 291.031 141.215 291.332C141.244 291.335 141.273 291.336 141.302 291.335C141.35 291.339 141.398 291.34 141.446 291.343L141.449 275.19Z" fill="url(#paint44_linear_1430_1902)"/>
<path d="M43.2022 84.1001C43.227 84.06 43.2513 84.0196 43.2764 83.9796C43.2889 83.9536 43.3041 83.929 43.3218 83.9062H43.3249C45.276 80.7547 47.3631 77.6996 49.5864 74.7411C49.6038 74.7166 49.6212 74.6957 49.642 74.6712C49.6715 74.6317 49.7019 74.5929 49.7315 74.5534L37.5217 63.9766C37.4922 64.0154 37.4611 64.0539 37.4316 64.0927C37.4108 64.1173 37.3931 64.1381 37.376 64.1627C34.384 68.0798 31.5998 72.1513 29.0348 76.3604C29.0183 76.384 29.0032 76.4084 28.9894 76.4337C28.9639 76.4747 28.94 76.516 28.9146 76.558L43.2022 84.1001Z" fill="url(#paint45_linear_1430_1902)"/>
<path d="M71.5865 52.0361C71.6244 52.005 71.6617 51.974 71.6993 51.9445C71.7204 51.9271 71.7447 51.9097 71.7658 51.8923C74.6555 49.5818 77.6477 47.4005 80.7423 45.3483C80.7665 45.3344 80.7911 45.3173 80.8156 45.303C80.8566 45.2756 80.8983 45.2492 80.9399 45.2219L72.9927 31.1548C72.9517 31.1818 72.9103 31.2073 72.8684 31.2346C72.8423 31.2483 72.8178 31.2646 72.7951 31.2834C68.6612 33.9723 64.6723 36.8777 60.845 39.9875C60.8205 40.003 60.7982 40.0218 60.7788 40.0434C60.7412 40.0745 60.7043 40.1056 60.667 40.1345L71.5865 52.0361Z" fill="url(#paint46_linear_1430_1902)"/>
<path d="M51.426 72.3584C51.457 72.3202 51.4859 72.2816 51.5164 72.2434C51.5316 72.2196 51.5491 72.1974 51.5686 72.1769C53.8652 69.2733 56.2873 66.4754 58.8351 63.7832C58.8525 63.7624 58.8733 63.7416 58.8945 63.7211C58.928 63.6854 58.9631 63.6512 58.997 63.6155L48.0712 51.7163C48.0371 51.7527 48.001 51.7881 47.9669 51.8241C47.9455 51.8421 47.9257 51.862 47.9078 51.8835C44.4898 55.4357 41.2605 59.1648 38.2332 63.0553C38.2128 63.0761 38.1952 63.0995 38.181 63.1249C38.1499 63.1628 38.1226 63.2013 38.0928 63.2389L51.426 72.3584Z" fill="url(#paint47_linear_1430_1902)"/>
<path d="M60.9308 61.6253C60.9649 61.5911 60.9976 61.5557 61.0317 61.5215C61.0497 61.5 61.0696 61.4801 61.0911 61.4622C63.7008 58.8379 66.4253 56.3318 69.2645 53.9436C69.2851 53.9233 69.3074 53.9046 69.331 53.8877C69.3686 53.8566 69.4068 53.8256 69.4447 53.7945L59.9444 40.7231C59.9068 40.7542 59.8685 40.7853 59.8309 40.8163C59.8101 40.8372 59.7856 40.8546 59.7648 40.8757C55.9661 44.0189 52.3338 47.3581 48.8828 50.8797C48.8617 50.9005 48.8409 50.9216 48.8232 50.9418C48.7893 50.9763 48.757 51.0111 48.7231 51.0456L60.9308 61.6253Z" fill="url(#paint48_linear_1430_1902)"/>
<path d="M83.2691 43.7208C83.3095 43.6953 83.3493 43.6695 83.3894 43.6443C83.4139 43.627 83.4385 43.6096 83.4627 43.5956C86.5936 41.6304 89.8161 39.805 93.1302 38.1195C93.1547 38.1055 93.1827 38.0915 93.2107 38.0778C93.2538 38.0555 93.2973 38.0344 93.3408 38.0123L87.0464 23.1284C87.0032 23.1499 86.9597 23.1707 86.9169 23.1924C86.8889 23.2064 86.8644 23.2201 86.8364 23.234C82.4219 25.4363 78.1267 27.87 73.9686 30.5248C73.9444 30.5388 73.9198 30.5528 73.8953 30.5702C73.8546 30.5957 73.8148 30.6227 73.7744 30.6485L83.2691 43.7208Z" fill="url(#paint49_linear_1430_1902)"/>
<path d="M95.8201 36.7886C95.8639 36.7675 95.9077 36.7457 95.9518 36.7246C95.9763 36.714 96.0006 36.7001 96.0285 36.6898C99.3615 35.0983 102.774 33.6534 106.265 32.3551C106.29 32.3412 106.317 32.3317 106.345 32.3272C106.392 32.3095 106.439 32.2933 106.485 32.2759L101.929 16.771L101.791 16.8207C101.763 16.828 101.736 16.8373 101.71 16.8487C97.071 18.5297 92.5242 20.4554 88.0887 22.6177C88.0611 22.6284 88.0343 22.6413 88.0086 22.6563L87.8784 22.7184L95.8201 36.7886Z" fill="url(#paint50_linear_1430_1902)"/>
<path d="M53.7953 253.897C53.8165 253.918 53.8373 253.939 53.8575 253.957C53.8929 253.99 53.9289 254.022 53.9644 254.055L64.1926 241.55C64.1575 241.517 64.1218 241.485 64.0867 241.452C64.0659 241.435 64.0447 241.413 64.0245 241.393C61.3338 238.866 58.7616 236.223 56.3078 233.463C56.2874 233.444 56.2688 233.423 56.2522 233.401C56.219 233.364 56.1867 233.326 56.1534 233.289L43.3599 243.158C43.3928 243.196 43.4245 243.234 43.4577 243.271C43.4751 243.292 43.4925 243.313 43.5133 243.333C46.7544 247.031 50.1864 250.557 53.7953 253.897Z" fill="url(#paint51_linear_1430_1902)"/>
<path d="M66.3209 264.238C66.3601 264.267 66.3995 264.295 66.4384 264.324L75.1747 250.736C75.1372 250.708 75.098 250.681 75.0601 250.652V250.649C75.0341 250.634 75.0096 250.616 74.9868 250.597C72.0307 248.391 69.1771 246.057 66.4259 243.596C66.4035 243.578 66.3827 243.558 66.3638 243.536C66.3272 243.504 66.2911 243.47 66.2544 243.438L54.6694 254.7C54.7055 254.731 54.7409 254.767 54.7769 254.799C54.7972 254.82 54.8194 254.84 54.8431 254.858C58.4812 258.164 62.2895 261.278 66.2523 264.187C66.2729 264.207 66.296 264.224 66.3209 264.238Z" fill="url(#paint52_linear_1430_1902)"/>
<path d="M94.3393 280.24C94.3831 280.259 94.4275 280.277 94.4713 280.296L99.9036 265.079C99.8604 265.06 99.8166 265.042 99.7734 265.023C99.7455 265.013 99.7209 264.999 99.693 264.988C96.3005 263.501 92.9909 261.873 89.7639 260.102C89.7394 260.088 89.7114 260.074 89.6872 260.06C89.6443 260.037 89.602 260.012 89.5592 259.989L80.8271 273.582C80.87 273.606 80.9123 273.63 80.9551 273.654C80.9794 273.668 81.0073 273.682 81.0319 273.699C85.3247 276.097 89.7398 278.268 94.2592 280.205C94.2849 280.219 94.3117 280.23 94.3393 280.24Z" fill="url(#paint53_linear_1430_1902)"/>
<path d="M79.8697 273.039L79.9973 273.112L87.13 258.611C87.088 258.587 87.0452 258.563 87.0035 258.538C86.9777 258.527 86.9531 258.513 86.9302 258.496C83.7368 256.64 80.6364 254.646 77.629 252.514C77.603 252.499 77.5784 252.482 77.5557 252.462C77.5153 252.433 77.4762 252.404 77.4355 252.375L67.2109 264.884C67.2507 264.913 67.2898 264.942 67.3299 264.97C67.3526 264.99 67.3771 265.008 67.4033 265.023C71.3922 267.896 75.5289 270.558 79.7963 272.998L79.8697 273.039Z" fill="url(#paint54_linear_1430_1902)"/>
<path d="M36.3718 96.7056C36.392 96.6627 36.4115 96.6192 36.4317 96.5763C36.4423 96.5483 36.4563 96.5238 36.4669 96.4959C38.0513 93.1386 39.7789 89.8661 41.6497 86.6783C41.6636 86.654 41.6776 86.6261 41.6916 86.6015C41.7164 86.559 41.7419 86.5173 41.7668 86.4748L28.4292 77.3584C28.404 77.401 28.3776 77.4429 28.3525 77.4855C28.3385 77.51 28.3214 77.538 28.3071 77.5622C25.7795 81.7938 23.4787 86.1568 21.4143 90.6326C21.3974 90.6572 21.3844 90.6843 21.3758 90.7128C21.3559 90.7554 21.3373 90.7986 21.3174 90.8411L36.3718 96.7056Z" fill="url(#paint55_linear_1430_1902)"/>
<path d="M32.8096 229.501C32.8372 229.542 32.8652 229.582 32.8928 229.622L45.6873 219.76C45.6609 219.721 45.6339 219.682 45.6075 219.642C45.59 219.619 45.5737 219.594 45.5587 219.569C43.5101 216.505 41.5988 213.348 39.8248 210.101C39.8108 210.076 39.7968 210.048 39.7828 210.024C39.7586 209.98 39.7353 209.935 39.7114 209.891L25.0161 216.606C25.04 216.65 25.0627 216.695 25.0866 216.739C25.0971 216.766 25.1112 216.792 25.1286 216.815C27.451 221.152 30 225.363 32.7648 229.432C32.7777 229.456 32.7927 229.48 32.8096 229.501Z" fill="url(#paint56_linear_1430_1902)"/>
<path d="M42.6408 242.331C42.6718 242.367 42.7029 242.403 42.734 242.438L54.3199 231.183L54.2267 231.076C54.2093 231.055 54.1885 231.03 54.1708 231.006C51.7872 228.193 49.5303 225.276 47.4001 222.253C47.3805 222.23 47.363 222.206 47.3479 222.18C47.3199 222.14 47.2926 222.1 47.2647 222.06L33.4297 230.407C33.458 230.447 33.4853 230.488 33.5133 230.528C33.5272 230.552 33.5443 230.577 33.5623 230.601C36.3654 234.643 39.3766 238.536 42.5839 242.265C42.6022 242.285 42.6199 242.31 42.6408 242.331Z" fill="url(#paint57_linear_1430_1902)"/>
<path d="M228.66 150C230.947 150 232.811 148.145 232.697 145.862C232.027 132.473 228.114 119.425 221.27 107.852C213.721 95.088 202.884 84.5857 189.889 77.442C176.895 70.2983 162.221 66.7753 147.399 67.2411C133.96 67.6634 120.846 71.3515 109.183 77.9598C107.194 79.0869 106.627 81.6548 107.852 83.5854C109.077 85.5159 111.63 86.0767 113.626 84.9607C124.032 79.1408 135.702 75.8927 147.659 75.517C160.999 75.0978 174.206 78.2685 185.9 84.6978C197.595 91.1272 207.349 100.579 214.143 112.066C220.232 122.364 223.743 133.958 224.405 145.862C224.532 148.145 226.374 150 228.66 150Z" fill="white" fill-opacity="0.08"/>
<path d="M150 232.8C104.271 232.8 67.1998 195.729 67.1998 150C67.1998 104.271 104.271 67.2002 150 67.2002C195.729 67.2002 232.8 104.271 232.8 150C232.8 195.729 195.729 232.8 150 232.8ZM150 75.4802C108.844 75.4802 75.4798 108.844 75.4798 150C75.4798 191.156 108.844 224.52 150 224.52C191.156 224.52 224.52 191.156 224.52 150C224.52 108.844 191.156 75.4802 150 75.4802Z" fill="white" fill-opacity="0.04"/>
<path d="M71.3398 150C69.0534 150 67.189 151.855 67.3033 154.138C67.9944 167.95 72.1362 181.393 79.3788 193.226C87.3431 206.238 98.7473 216.796 112.333 223.736C125.919 230.676 141.158 233.728 156.368 232.555C170.2 231.488 183.52 226.964 195.116 219.429C197.033 218.183 197.443 215.585 196.103 213.733C194.763 211.88 192.181 211.475 190.256 212.711C179.902 219.358 168.042 223.349 155.731 224.299C142.042 225.355 128.327 222.609 116.1 216.363C103.873 210.117 93.6088 200.614 86.4409 188.903C79.9948 178.372 76.278 166.423 75.5948 154.138C75.4678 151.855 73.6263 150 71.3398 150Z" fill="white" fill-opacity="0.08"/>
</g>
<defs>
<filter id="filter0_ii_1430_1902" x="0" y="0" width="300" height="348" filterUnits="userSpaceOnUse" color-interpolation-filters="sRGB">
<feFlood flood-opacity="0" result="BackgroundImageFix"/>
<feBlend mode="normal" in="SourceGraphic" in2="BackgroundImageFix" result="shape"/>
<feColorMatrix in="SourceAlpha" type="matrix" values="0 0 0 0 0 0 0 0 0 0 0 0 0 0 0 0 0 0 127 0" result="hardAlpha"/>
<feOffset dy="48"/>
<feGaussianBlur stdDeviation="24"/>
<feComposite in2="hardAlpha" operator="arithmetic" k2="-1" k3="1"/>
<feColorMatrix type="matrix" values="0 0 0 0 0.403042 0 0 0 0 0.120417 0 0 0 0 0.566667 0 0 0 1 0"/>
<feBlend mode="normal" in2="shape" result="effect1_innerShadow_1430_1902"/>
<feColorMatrix in="SourceAlpha" type="matrix" values="0 0 0 0 0 0 0 0 0 0 0 0 0 0 0 0 0 0 127 0" result="hardAlpha"/>
<feOffset/>
<feGaussianBlur stdDeviation="12"/>
<feComposite in2="hardAlpha" operator="arithmetic" k2="-1" k3="1"/>
<feColorMatrix type="matrix" values="0 0 0 0 1 0 0 0 0 1 0 0 0 0 1 0 0 0 0.24 0"/>
<feBlend mode="normal" in2="effect1_innerShadow_1430_1902" result="effect2_innerShadow_1430_1902"/>
</filter>
<filter id="filter1_ii_1430_1902" x="25" y="25" width="250" height="274" filterUnits="userSpaceOnUse" color-interpolation-filters="sRGB">
<feFlood flood-opacity="0" result="BackgroundImageFix"/>
<feBlend mode="normal" in="SourceGraphic" in2="BackgroundImageFix" result="shape"/>
<feColorMatrix in="SourceAlpha" type="matrix" values="0 0 0 0 0 0 0 0 0 0 0 0 0 0 0 0 0 0 127 0" result="hardAlpha"/>
<feOffset dy="24"/>
<feGaussianBlur stdDeviation="28"/>
<feComposite in2="hardAlpha" operator="arithmetic" k2="-1" k3="1"/>
<feColorMatrix type="matrix" values="0 0 0 0 0.403042 0 0 0 0 0.120417 0 0 0 0 0.566667 0 0 0 1 0"/>
<feBlend mode="normal" in2="shape" result="effect1_innerShadow_1430_1902"/>
<feColorMatrix in="SourceAlpha" type="matrix" values="0 0 0 0 0 0 0 0 0 0 0 0 0 0 0 0 0 0 127 0" result="hardAlpha"/>
<feOffset/>
<feGaussianBlur stdDeviation="16"/>
<feComposite in2="hardAlpha" operator="arithmetic" k2="-1" k3="1"/>
<feColorMatrix type="matrix" values="0 0 0 0 1 0 0 0 0 1 0 0 0 0 1 0 0 0 0.24 0"/>
<feBlend mode="normal" in2="effect1_innerShadow_1430_1902" result="effect2_innerShadow_1430_1902"/>
</filter>
<radialGradient id="paint0_radial_1430_1902" cx="0" cy="0" r="1" gradientUnits="userSpaceOnUse" gradientTransform="translate(150 234.5) rotate(90) scale(234.5 37.6294)">
<stop stop-color="#5A18C9"/>
<stop offset="1" stop-color="#13052D"/>
</radialGradient>
<linearGradient id="paint1_linear_1430_1902" x1="250" y1="-4.15038" x2="-47.9512" y2="143.06" gradientUnits="userSpaceOnUse">
<stop stop-color="#150336"/>
<stop offset="1" stop-color="#1D0943"/>
</linearGradient>
<linearGradient id="paint2_linear_1430_1902" x1="150" y1="143.772" x2="150" y2="300" gradientUnits="userSpaceOnUse">
<stop stop-opacity="0.18"/>
<stop offset="1" stop-opacity="0"/>
</linearGradient>
<linearGradient id="paint3_linear_1430_1902" x1="230.559" y1="51.1715" x2="251.262" y2="50.5383" gradientUnits="userSpaceOnUse">
<stop stop-color="#6F39CC"/>
<stop offset="1" stop-color="#8740FF"/>
</linearGradient>
<linearGradient id="paint4_linear_1430_1902" x1="241.004" y1="62.0344" x2="261.89" y2="61.3758" gradientUnits="userSpaceOnUse">
<stop offset="0.0001" stop-color="#C918C3"/>
<stop offset="1" stop-color="#FF50F9"/>
</linearGradient>
<linearGradient id="paint5_linear_1430_1902" x1="258.233" y1="87.032" x2="278.662" y2="86.3659" gradientUnits="userSpaceOnUse">
<stop stop-color="#6F39CC"/>
<stop offset="1" stop-color="#8740FF"/>
</linearGradient>
<linearGradient id="paint6_linear_1430_1902" x1="134.308" y1="16.7901" x2="149.524" y2="16.3601" gradientUnits="userSpaceOnUse">
<stop stop-color="#1871C9"/>
<stop offset="1" stop-color="#61B0FF"/>
</linearGradient>
<linearGradient id="paint7_linear_1430_1902" x1="275.141" y1="146.083" x2="291.582" y2="145.535" gradientUnits="userSpaceOnUse">
<stop stop-color="#6F39CC"/>
<stop offset="1" stop-color="#8740FF"/>
</linearGradient>
<linearGradient id="paint8_linear_1430_1902" x1="273.292" y1="130.225" x2="291.035" y2="129.593" gradientUnits="userSpaceOnUse">
<stop offset="0.0001" stop-color="#C918C3"/>
<stop offset="1" stop-color="#FF50F9"/>
</linearGradient>
<linearGradient id="paint9_linear_1430_1902" x1="165.691" y1="18.4109" x2="181.641" y2="17.9767" gradientUnits="userSpaceOnUse">
<stop stop-color="#6F39CC"/>
<stop offset="1" stop-color="#8740FF"/>
</linearGradient>
<linearGradient id="paint10_linear_1430_1902" x1="219.061" y1="41.5953" x2="239.317" y2="40.9886" gradientUnits="userSpaceOnUse">
<stop stop-color="#6F39CC"/>
<stop offset="1" stop-color="#8740FF"/>
</linearGradient>
<linearGradient id="paint11_linear_1430_1902" x1="150.465" y1="16.7903" x2="165.682" y2="16.3603" gradientUnits="userSpaceOnUse">
<stop offset="0.0001" stop-color="#C918C3"/>
<stop offset="1" stop-color="#FF50F9"/>
</linearGradient>
<linearGradient id="paint12_linear_1430_1902" x1="179.8" y1="21.7508" x2="197.187" y2="21.2642" gradientUnits="userSpaceOnUse">
<stop stop-color="#6F39CC"/>
<stop offset="1" stop-color="#8740FF"/>
</linearGradient>
<linearGradient id="paint13_linear_1430_1902" x1="269.826" y1="115.311" x2="288.716" y2="114.665" gradientUnits="userSpaceOnUse">
<stop stop-color="#6F39CC"/>
<stop offset="1" stop-color="#8740FF"/>
</linearGradient>
<linearGradient id="paint14_linear_1430_1902" x1="193.517" y1="26.7792" x2="212.107" y2="26.2462" gradientUnits="userSpaceOnUse">
<stop stop-color="#6F39CC"/>
<stop offset="1" stop-color="#8740FF"/>
</linearGradient>
<linearGradient id="paint15_linear_1430_1902" x1="206.663" y1="33.4241" x2="226.21" y2="32.8459" gradientUnits="userSpaceOnUse">
<stop offset="0.0001" stop-color="#C918C3"/>
<stop offset="1" stop-color="#FF50F9"/>
</linearGradient>
<linearGradient id="paint16_linear_1430_1902" x1="250.271" y1="63.9751" x2="262.558" y2="65.1961" gradientUnits="userSpaceOnUse">
<stop stop-color="#F1F1F1"/>
<stop offset="1" stop-color="#C2C2C2"/>
</linearGradient>
<linearGradient id="paint17_linear_1430_1902" x1="267.418" y1="192.21" x2="286.811" y2="191.553" gradientUnits="userSpaceOnUse">
<stop stop-color="#6F39CC"/>
<stop offset="1" stop-color="#8740FF"/>
</linearGradient>
<linearGradient id="paint18_linear_1430_1902" x1="261.595" y1="206.352" x2="281.75" y2="205.68" gradientUnits="userSpaceOnUse">
<stop offset="0.0001" stop-color="#C918C3"/>
<stop offset="1" stop-color="#FF50F9"/>
</linearGradient>
<linearGradient id="paint19_linear_1430_1902" x1="18.2275" y1="206.353" x2="38.3854" y2="205.681" gradientUnits="userSpaceOnUse">
<stop stop-color="#1871C9"/>
<stop offset="1" stop-color="#61B0FF"/>
</linearGradient>
<linearGradient id="paint20_linear_1430_1902" x1="274.39" y1="162.222" x2="291.501" y2="161.626" gradientUnits="userSpaceOnUse">
<stop stop-color="#6F39CC"/>
<stop offset="1" stop-color="#8740FF"/>
</linearGradient>
<linearGradient id="paint21_linear_1430_1902" x1="271.7" y1="177.51" x2="290.068" y2="176.872" gradientUnits="userSpaceOnUse">
<stop stop-color="#6F39CC"/>
<stop offset="1" stop-color="#8740FF"/>
</linearGradient>
<linearGradient id="paint22_linear_1430_1902" x1="13.1704" y1="192.209" x2="32.5602" y2="191.553" gradientUnits="userSpaceOnUse">
<stop stop-color="#6F39CC"/>
<stop offset="1" stop-color="#8740FF"/>
</linearGradient>
<linearGradient id="paint23_linear_1430_1902" x1="9.91113" y1="177.51" x2="28.2787" y2="176.865" gradientUnits="userSpaceOnUse">
<stop offset="0.0001" stop-color="#C918C3"/>
<stop offset="1" stop-color="#FF50F9"/>
</linearGradient>
<linearGradient id="paint24_linear_1430_1902" x1="11.2612" y1="115.311" x2="30.1511" y2="114.659" gradientUnits="userSpaceOnUse">
<stop offset="0.0001" stop-color="#C918C3"/>
<stop offset="1" stop-color="#FF50F9"/>
</linearGradient>
<linearGradient id="paint25_linear_1430_1902" x1="8.94336" y1="130.225" x2="26.6867" y2="129.599" gradientUnits="userSpaceOnUse">
<stop stop-color="#6F39CC"/>
<stop offset="1" stop-color="#8740FF"/>
</linearGradient>
<linearGradient id="paint26_linear_1430_1902" x1="15.4053" y1="100.849" x2="35.1978" y2="100.182" gradientUnits="userSpaceOnUse">
<stop offset="0.0001" stop-color="#C918C3"/>
<stop offset="1" stop-color="#FF50F9"/>
</linearGradient>
<linearGradient id="paint27_linear_1430_1902" x1="8.47852" y1="162.222" x2="25.5899" y2="161.62" gradientUnits="userSpaceOnUse">
<stop offset="0.0001" stop-color="#C918C3"/>
<stop offset="1" stop-color="#FF50F9"/>
</linearGradient>
<linearGradient id="paint28_linear_1430_1902" x1="264.782" y1="100.85" x2="284.573" y2="100.19" gradientUnits="userSpaceOnUse">
<stop stop-color="#6F39CC"/>
<stop offset="1" stop-color="#8740FF"/>
</linearGradient>
<linearGradient id="paint29_linear_1430_1902" x1="8.40039" y1="146.083" x2="24.8417" y2="145.529" gradientUnits="userSpaceOnUse">
<stop stop-color="#1871C9"/>
<stop offset="1" stop-color="#61B0FF"/>
</linearGradient>
<linearGradient id="paint30_linear_1430_1902" x1="102.8" y1="21.7522" x2="120.188" y2="21.2612" gradientUnits="userSpaceOnUse">
<stop stop-color="#1871C9"/>
<stop offset="1" stop-color="#61B0FF"/>
</linearGradient>
<linearGradient id="paint31_linear_1430_1902" x1="158.553" y1="282.619" x2="173.648" y2="282.213" gradientUnits="userSpaceOnUse">
<stop stop-color="#1871C9"/>
<stop offset="1" stop-color="#61B0FF"/>
</linearGradient>
<linearGradient id="paint32_linear_1430_1902" x1="142.402" y1="275.348" x2="151.387" y2="276.155" gradientUnits="userSpaceOnUse">
<stop stop-color="#F1F1F1"/>
<stop offset="1" stop-color="#C2C2C2"/>
</linearGradient>
<linearGradient id="paint33_linear_1430_1902" x1="95.3486" y1="275.971" x2="113.32" y2="275.458" gradientUnits="userSpaceOnUse">
<stop offset="0.0001" stop-color="#C918C3"/>
<stop offset="1" stop-color="#FF50F9"/>
</linearGradient>
<linearGradient id="paint34_linear_1430_1902" x1="186.666" y1="275.97" x2="204.639" y2="275.461" gradientUnits="userSpaceOnUse">
<stop stop-color="#6F39CC"/>
<stop offset="1" stop-color="#8740FF"/>
</linearGradient>
<linearGradient id="paint35_linear_1430_1902" x1="118.347" y1="18.4118" x2="134.296" y2="17.9737" gradientUnits="userSpaceOnUse">
<stop offset="0.0001" stop-color="#C918C3"/>
<stop offset="1" stop-color="#FF50F9"/>
</linearGradient>
<linearGradient id="paint36_linear_1430_1902" x1="110.588" y1="280.144" x2="127.233" y2="279.685" gradientUnits="userSpaceOnUse">
<stop stop-color="#6F39CC"/>
<stop offset="1" stop-color="#8740FF"/>
</linearGradient>
<linearGradient id="paint37_linear_1430_1902" x1="172.756" y1="280.144" x2="189.4" y2="279.685" gradientUnits="userSpaceOnUse">
<stop stop-color="#6F39CC"/>
<stop offset="1" stop-color="#8740FF"/>
</linearGradient>
<linearGradient id="paint38_linear_1430_1902" x1="245.679" y1="232.248" x2="266.549" y2="231.588" gradientUnits="userSpaceOnUse">
<stop stop-color="#6F39CC"/>
<stop offset="1" stop-color="#8740FF"/>
</linearGradient>
<linearGradient id="paint39_linear_1430_1902" x1="254.312" y1="219.756" x2="274.964" y2="219.089" gradientUnits="userSpaceOnUse">
<stop stop-color="#6F39CC"/>
<stop offset="1" stop-color="#8740FF"/>
</linearGradient>
<linearGradient id="paint40_linear_1430_1902" x1="235.812" y1="243.672" x2="256.623" y2="243.022" gradientUnits="userSpaceOnUse">
<stop stop-color="#FC7307"/>
<stop offset="1" stop-color="#FF8B33"/>
</linearGradient>
<linearGradient id="paint41_linear_1430_1902" x1="224.826" y1="253.882" x2="245.315" y2="253.256" gradientUnits="userSpaceOnUse">
<stop offset="0.0001" stop-color="#C918C3"/>
<stop offset="1" stop-color="#FF50F9"/>
</linearGradient>
<linearGradient id="paint42_linear_1430_1902" x1="212.873" y1="262.746" x2="232.775" y2="262.151" gradientUnits="userSpaceOnUse">
<stop offset="0.0001" stop-color="#C918C3"/>
<stop offset="1" stop-color="#FF50F9"/>
</linearGradient>
<linearGradient id="paint43_linear_1430_1902" x1="200.098" y1="270.142" x2="219.16" y2="269.584" gradientUnits="userSpaceOnUse">
<stop stop-color="#1871C9"/>
<stop offset="1" stop-color="#61B0FF"/>
</linearGradient>
<linearGradient id="paint44_linear_1430_1902" x1="126.343" y1="282.618" x2="141.438" y2="282.211" gradientUnits="userSpaceOnUse">
<stop offset="0.0001" stop-color="#C918C3"/>
<stop offset="1" stop-color="#FF50F9"/>
</linearGradient>
<linearGradient id="paint45_linear_1430_1902" x1="28.9146" y1="63.9766" x2="41.2017" y2="65.1978" gradientUnits="userSpaceOnUse">
<stop stop-color="#F1F1F1"/>
<stop offset="1" stop-color="#C2C2C2"/>
</linearGradient>
<linearGradient id="paint46_linear_1430_1902" x1="60.667" y1="41.5954" x2="80.9218" y2="40.9889" gradientUnits="userSpaceOnUse">
<stop stop-color="#6F39CC"/>
<stop offset="1" stop-color="#8740FF"/>
</linearGradient>
<linearGradient id="paint47_linear_1430_1902" x1="38.0928" y1="62.0374" x2="58.9762" y2="61.3789" gradientUnits="userSpaceOnUse">
<stop stop-color="#1871C9"/>
<stop offset="1" stop-color="#61B0FF"/>
</linearGradient>
<linearGradient id="paint48_linear_1430_1902" x1="48.7231" y1="51.1742" x2="69.4253" y2="50.5411" gradientUnits="userSpaceOnUse">
<stop stop-color="#6F39CC"/>
<stop offset="1" stop-color="#8740FF"/>
</linearGradient>
<linearGradient id="paint49_linear_1430_1902" x1="73.7744" y1="33.4246" x2="93.324" y2="32.8516" gradientUnits="userSpaceOnUse">
<stop stop-color="#6F39CC"/>
<stop offset="1" stop-color="#8740FF"/>
</linearGradient>
<linearGradient id="paint50_linear_1430_1902" x1="87.8784" y1="26.7798" x2="106.47" y2="26.2468" gradientUnits="userSpaceOnUse">
<stop stop-color="#6F39CC"/>
<stop offset="1" stop-color="#8740FF"/>
</linearGradient>
<linearGradient id="paint51_linear_1430_1902" x1="43.3599" y1="243.672" x2="64.1723" y2="243.022" gradientUnits="userSpaceOnUse">
<stop offset="0.0001" stop-color="#C918C3"/>
<stop offset="1" stop-color="#FF50F9"/>
</linearGradient>
<linearGradient id="paint52_linear_1430_1902" x1="54.6694" y1="253.881" x2="75.156" y2="253.26" gradientUnits="userSpaceOnUse">
<stop stop-color="#6F39CC"/>
<stop offset="1" stop-color="#8740FF"/>
</linearGradient>
<linearGradient id="paint53_linear_1430_1902" x1="80.8271" y1="270.142" x2="99.8873" y2="269.585" gradientUnits="userSpaceOnUse">
<stop stop-color="#1871C9"/>
<stop offset="1" stop-color="#61B0FF"/>
</linearGradient>
<linearGradient id="paint54_linear_1430_1902" x1="67.2109" y1="262.743" x2="87.1122" y2="262.148" gradientUnits="userSpaceOnUse">
<stop offset="0.0001" stop-color="#C918C3"/>
<stop offset="1" stop-color="#FF50F9"/>
</linearGradient>
<linearGradient id="paint55_linear_1430_1902" x1="21.3174" y1="87.032" x2="41.7446" y2="86.3598" gradientUnits="userSpaceOnUse">
<stop stop-color="#1871C9"/>
<stop offset="1" stop-color="#61B0FF"/>
</linearGradient>
<linearGradient id="paint56_linear_1430_1902" x1="25.0161" y1="219.757" x2="45.6654" y2="219.083" gradientUnits="userSpaceOnUse">
<stop offset="0.0001" stop-color="#C918C3"/>
<stop offset="1" stop-color="#FF50F9"/>
</linearGradient>
<linearGradient id="paint57_linear_1430_1902" x1="33.4297" y1="232.249" x2="54.2987" y2="231.583" gradientUnits="userSpaceOnUse">
<stop stop-color="#1871C9"/>
<stop offset="1" stop-color="#61B0FF"/>
</linearGradient>
<clipPath id="clip0_1430_1902">
<rect width="300" height="300" fill="white"/>
</clipPath>
</defs>
</svg>
