<svg width="24" height="24" viewBox="0 0 24 24" fill="none" xmlns="http://www.w3.org/2000/svg">
<path d="M10 3H4C3.44772 3 3 3.44772 3 4V10C3 10.5523 3.44772 11 4 11H10C10.5523 11 11 10.5523 11 10V4C11 3.44772 10.5523 3 10 3Z" stroke="white" stroke-width="1.01627" stroke-linecap="round" stroke-linejoin="round"/>
<path d="M7.06493 7.31931C7.20542 7.31931 7.31931 7.20542 7.31931 7.06493C7.31931 6.92444 7.20542 6.81055 7.06493 6.81055C6.92444 6.81055 6.81055 6.92444 6.81055 7.06493C6.81055 7.20542 6.92444 7.31931 7.06493 7.31931Z" fill="white" stroke="white" stroke-width="1.01627" stroke-linecap="round" stroke-linejoin="round"/>
<path d="M10 13H4C3.44772 13 3 13.4477 3 14V20C3 20.5523 3.44772 21 4 21H10C10.5523 21 11 20.5523 11 20V14C11 13.4477 10.5523 13 10 13Z" stroke="white" stroke-width="1.01627" stroke-linecap="round" stroke-linejoin="round"/>
<path d="M5.28629 15.5413C5.42661 15.5413 5.54036 15.4276 5.54036 15.2873C5.54036 15.147 5.42661 15.0332 5.28629 15.0332C5.14598 15.0332 5.03223 15.147 5.03223 15.2873C5.03223 15.4276 5.14598 15.5413 5.28629 15.5413Z" fill="white" stroke="white" stroke-width="1.01627" stroke-linecap="round" stroke-linejoin="round"/>
<path d="M8.84293 15.5413C8.98325 15.5413 9.097 15.4276 9.097 15.2873C9.097 15.147 8.98325 15.0332 8.84293 15.0332C8.70262 15.0332 8.58887 15.147 8.58887 15.2873C8.58887 15.4276 8.70262 15.5413 8.84293 15.5413Z" fill="white" stroke="white" stroke-width="1.01627" stroke-linecap="round" stroke-linejoin="round"/>
<path d="M8.84293 19.098C8.98325 19.098 9.097 18.9842 9.097 18.8439C9.097 18.7036 8.98325 18.5898 8.84293 18.5898C8.70262 18.5898 8.58887 18.7036 8.58887 18.8439C8.58887 18.9842 8.70262 19.098 8.84293 19.098Z" fill="white" stroke="white" stroke-width="1.01627" stroke-linecap="round" stroke-linejoin="round"/>
<path d="M5.28629 19.098C5.42661 19.098 5.54036 18.9842 5.54036 18.8439C5.54036 18.7036 5.42661 18.5898 5.28629 18.5898C5.14598 18.5898 5.03223 18.7036 5.03223 18.8439C5.03223 18.9842 5.14598 19.098 5.28629 19.098Z" fill="white" stroke="white" stroke-width="1.01627" stroke-linecap="round" stroke-linejoin="round"/>
<path d="M20 13H14C13.4477 13 13 13.4477 13 14V20C13 20.5523 13.4477 21 14 21H20C20.5523 21 21 20.5523 21 20V14C21 13.4477 20.5523 13 20 13Z" stroke="white" stroke-width="1.01627" stroke-linecap="round" stroke-linejoin="round"/>
<path d="M18.75 15.5C18.8881 15.5 19 15.3881 19 15.25C19 15.1119 18.8881 15 18.75 15C18.6119 15 18.5 15.1119 18.5 15.25C18.5 15.3881 18.6119 15.5 18.75 15.5Z" fill="white" stroke="white" stroke-width="1.01627" stroke-linecap="round" stroke-linejoin="round"/>
<path d="M15.25 19C15.3881 19 15.5 18.8881 15.5 18.75C15.5 18.6119 15.3881 18.5 15.25 18.5C15.1119 18.5 15 18.6119 15 18.75C15 18.8881 15.1119 19 15.25 19Z" fill="white" stroke="white" stroke-width="1.01627" stroke-linecap="round" stroke-linejoin="round"/>
</svg>
