<svg width="42" height="42" viewBox="0 0 42 42" fill="none" xmlns="http://www.w3.org/2000/svg">
<path fill-rule="evenodd" clip-rule="evenodd" d="M26.5555 31H15.4444C14.855 31 14.2898 30.7659 13.873 30.3491C13.4563 29.9324 13.2222 29.3671 13.2222 28.7778V13.2222C13.2222 12.6329 13.4563 12.0676 13.873 11.6509C14.2898 11.2341 14.855 11 15.4444 11H23.2222L28.7777 16.5556V28.7778C28.7777 29.3671 28.5436 29.9324 28.1268 30.3491C27.7101 30.7659 27.1449 31 26.5555 31ZM18.7778 21C18.7778 20.3864 19.2752 19.8889 19.8889 19.8889H21C21.6136 19.8889 22.1111 20.3864 22.1111 21V24.3333C22.7248 24.3333 23.2222 24.8308 23.2222 25.4444C23.2222 26.0581 22.7248 26.5556 22.1111 26.5556H21C20.3864 26.5556 19.8889 26.0581 19.8889 25.4444V22.1111C19.2752 22.1111 18.7778 21.6137 18.7778 21ZM21 16.5556C20.3864 16.5556 19.8889 17.053 19.8889 17.6667C19.8889 18.2803 20.3864 18.7778 21 18.7778H21.0111C21.6248 18.7778 22.1222 18.2803 22.1222 17.6667C22.1222 17.053 21.6248 16.5556 21.0111 16.5556H21Z" fill="white"/>
<path opacity="0.15" d="M23.2222 11V15.4444C23.2222 15.7391 23.3392 16.0217 23.5476 16.2301C23.756 16.4385 24.0386 16.5556 24.3333 16.5556H28.7777" fill="#13052D"/>
</svg>
