<svg width="42" height="42" viewBox="0 0 42 42" fill="none" xmlns="http://www.w3.org/2000/svg">
<path d="M25.3833 18.0763C25.5046 18.1266 25.6149 18.2003 25.7077 18.2932L26.9997 19.5862L28.2927 18.2932C28.4813 18.111 28.7339 18.0103 28.9961 18.0125C29.2583 18.0148 29.5091 18.12 29.6945 18.3054C29.8799 18.4908 29.9851 18.7416 29.9874 19.0038C29.9897 19.266 29.8889 19.5186 29.7067 19.7072L28.4137 21.0002L29.7067 22.2932C29.8889 22.4818 29.9897 22.7344 29.9874 22.9966C29.9851 23.2588 29.8799 23.5096 29.6945 23.695C29.5091 23.8804 29.2583 23.9856 28.9961 23.9879C28.7339 23.9902 28.4813 23.8894 28.2927 23.7072L26.9997 22.4142L25.7067 23.7072C25.5181 23.8894 25.2655 23.9902 25.0033 23.9879C24.7411 23.9856 24.4903 23.8804 24.3049 23.695C24.1195 23.5096 24.0143 23.2588 24.012 22.9966C24.0097 22.7344 24.1105 22.4818 24.2927 22.2932L25.5857 21.0002L24.2927 19.7072C24.1999 19.6143 24.1262 19.504 24.076 19.3826C24.0258 19.2613 24 19.1312 24 18.9998C24 18.8685 24.026 18.7384 24.0763 18.6171C24.1266 18.4958 24.2003 18.3855 24.2932 18.2927C24.3861 18.1999 24.4964 18.1262 24.6178 18.076C24.7391 18.0258 24.8692 18 25.0006 18C25.1319 18 25.262 18.026 25.3833 18.0763Z" fill="#7B738A"/>
<path d="M15 23.9338H13C12.7348 23.9338 12.4804 23.8285 12.2929 23.6409C12.1054 23.4534 12 23.199 12 22.9338V18.9338C12 18.6686 12.1054 18.4142 12.2929 18.2267C12.4804 18.0392 12.7348 17.9338 13 17.9338H15L18.5 13.4338C18.5874 13.264 18.7326 13.1311 18.9095 13.0591C19.0863 12.9871 19.2831 12.9807 19.4643 13.0411C19.6454 13.1014 19.799 13.2246 19.8972 13.3884C19.9955 13.5521 20.0319 13.7456 20 13.9338V27.9338C20.0319 28.1221 19.9955 28.3155 19.8972 28.4793C19.799 28.643 19.6454 28.7662 19.4643 28.8266C19.2831 28.887 19.0863 28.8805 18.9095 28.8085C18.7326 28.7365 18.5874 28.6036 18.5 28.4338L15 23.9338Z" fill="#7B738A"/>
</svg>
