<svg width="42" height="42" viewBox="0 0 42 42" fill="none" xmlns="http://www.w3.org/2000/svg">
<path d="M24 16.9336C24.621 17.3993 25.125 18.0032 25.4721 18.6975C25.8193 19.3918 26 20.1574 26 20.9336C26 21.7098 25.8193 22.4754 25.4721 23.1697C25.125 23.8639 24.621 24.4679 24 24.9336" stroke="white" stroke-width="2" stroke-linecap="round" stroke-linejoin="round"/>
<path d="M26.7 13.9336C27.7439 14.7772 28.586 15.8437 29.1644 17.0549C29.7429 18.2661 30.0431 19.5914 30.0431 20.9336C30.0431 22.2758 29.7429 23.6011 29.1644 24.8123C28.586 26.0235 27.7439 27.0899 26.7 27.9336" stroke="white" stroke-width="2" stroke-linecap="round" stroke-linejoin="round"/>
<path d="M15 23.9338H13C12.7348 23.9338 12.4804 23.8285 12.2929 23.6409C12.1054 23.4534 12 23.199 12 22.9338V18.9338C12 18.6686 12.1054 18.4142 12.2929 18.2267C12.4804 18.0392 12.7348 17.9338 13 17.9338H15L18.5 13.4338C18.5874 13.264 18.7326 13.1311 18.9095 13.0591C19.0863 12.9871 19.2831 12.9807 19.4643 13.0411C19.6454 13.1014 19.799 13.2246 19.8972 13.3884C19.9955 13.5521 20.0319 13.7456 20 13.9338V27.9338C20.0319 28.1221 19.9955 28.3155 19.8972 28.4793C19.799 28.643 19.6454 28.7662 19.4643 28.8266C19.2831 28.887 19.0863 28.8805 18.9095 28.8085C18.7326 28.7365 18.5874 28.6036 18.5 28.4338L15 23.9338Z" fill="white"/>
</svg>
