<svg width="42" height="42" viewBox="0 0 42 42" fill="none" xmlns="http://www.w3.org/2000/svg">
<path d="M25.9238 12.0992L25.9237 12.099C25.8191 11.8131 25.5015 11.6649 25.2146 11.7694C25.2145 11.7694 25.2145 11.7695 25.2144 11.7695L21.5191 13.1082H12.2916C11.2239 13.1082 10.3583 13.9738 10.3583 15.0415V28.3332C10.3583 29.6543 11.4288 30.7248 12.7499 30.7248H29.2499C30.5711 30.7248 31.6416 29.6543 31.6416 28.3332V17.7915C31.6416 16.7574 30.8295 15.9128 29.8083 15.8607V15.0415C29.8083 13.9738 28.9426 13.1082 27.8749 13.1082H26.2908L25.9238 12.0992ZM13.9387 15.8545L13.9387 15.8545L13.9369 15.8552C13.9344 15.8562 13.932 15.8572 13.9298 15.8582H13.8705H12.2916C11.8408 15.8582 11.4749 15.4923 11.4749 15.0415C11.4749 14.5907 11.8408 14.2248 12.2916 14.2248H18.4366L13.9387 15.8545ZM25.525 14.2419L25.525 14.242L26.1124 15.8582H17.1713L21.6789 14.2248H21.6835L21.7 14.2189L24.2258 13.3022L24.2259 13.3022L25.0724 12.9957L25.525 14.2419ZM27.8749 14.2248C28.3257 14.2248 28.6916 14.5907 28.6916 15.0415V15.8582H27.29L26.6963 14.2248H27.8749ZM12.2916 16.9748H29.7083C30.159 16.9748 30.5249 17.3407 30.5249 17.7915V21.3582H28.7916C27.7239 21.3582 26.8583 22.2238 26.8583 23.2915C26.8583 24.3592 27.7239 25.2248 28.7916 25.2248H30.5249V28.3332C30.5249 29.0374 29.9541 29.6082 29.2499 29.6082H12.7499C12.0461 29.6082 11.4749 29.0374 11.4749 28.3332V16.7865C11.7221 16.9046 11.9975 16.9748 12.2916 16.9748ZM28.7916 22.4748H30.5249V24.1082H28.7916C28.3408 24.1082 27.9749 23.7423 27.9749 23.2915C27.9749 22.8407 28.3408 22.4748 28.7916 22.4748Z" fill="url(#paint0_linear_720_6643)" stroke="url(#paint1_linear_720_6643)" stroke-width="0.2"/>
<defs>
<linearGradient id="paint0_linear_720_6643" x1="21.8713" y1="9.29444" x2="21.8713" y2="30.2618" gradientUnits="userSpaceOnUse">
<stop stop-color="#F3F0FF"/>
<stop offset="1" stop-color="#F1EDFF"/>
</linearGradient>
<linearGradient id="paint1_linear_720_6643" x1="21.8713" y1="9.29444" x2="21.8713" y2="30.2618" gradientUnits="userSpaceOnUse">
<stop stop-color="#F3F0FF"/>
<stop offset="1" stop-color="#F1EDFF"/>
</linearGradient>
</defs>
</svg>
