<svg width="16" height="16" viewBox="0 0 16 16" fill="none" xmlns="http://www.w3.org/2000/svg">
<path d="M11.6063 1.51808L11.6063 1.5179L11.0897 1.35593L11.0556 1.26191L11.0554 1.26198L8.37245 2.23393H1.66634C0.874779 2.23393 0.233008 2.87571 0.233008 3.66727V13.3339C0.233008 14.3098 1.02378 15.1006 1.99967 15.1006H13.9997C14.9756 15.1006 15.7663 14.3098 15.7663 13.3339V5.66727C15.7663 4.90932 15.1779 4.28871 14.433 4.23737V3.66727C14.433 2.87571 13.7912 2.23393 12.9997 2.23393H11.8667L11.6063 1.51808ZM2.85494 4.23291L2.85494 4.2329L2.85311 4.2336C2.85282 4.23371 2.85254 4.23382 2.85225 4.23393H2.81467H1.66634C1.35357 4.23393 1.09967 3.98004 1.09967 3.66727C1.09967 3.3545 1.35357 3.1006 1.66634 3.1006H5.98012L2.85494 4.23291ZM11.265 3.09507L11.265 3.09509L11.6789 4.23393H5.37052L8.49823 3.1006H8.50159L8.51812 3.0946L10.3551 2.42796L10.3551 2.42794L10.9451 2.21431L11.265 3.09507ZM12.9997 3.1006C13.3124 3.1006 13.5663 3.3545 13.5663 3.66727V4.23393H12.5934L12.1814 3.1006H12.9997ZM1.66634 5.1006H14.333C14.6458 5.1006 14.8997 5.3545 14.8997 5.66727V8.23393H13.6663C12.8748 8.23393 12.233 8.8757 12.233 9.66727C12.233 10.4588 12.8748 11.1006 13.6663 11.1006H14.8997V13.3339C14.8997 13.831 14.4968 14.2339 13.9997 14.2339H1.99967C1.50288 14.2339 1.09967 13.831 1.09967 13.3339V4.97892C1.27262 5.05554 1.46342 5.1006 1.66634 5.1006ZM13.6663 9.1006H14.8997V10.2339H13.6663C13.3536 10.2339 13.0997 9.98004 13.0997 9.66727C13.0997 9.3545 13.3536 9.1006 13.6663 9.1006Z" fill="#BDBDBD" stroke="#BDBDBD" stroke-width="0.2"/>
</svg>
